<?xml version="1.0" standalone="no"?>
<!DOCTYPE svg PUBLIC "-//W3C//DTD SVG 1.1//EN" "http://www.w3.org/Graphics/SVG/1.1/DTD/svg11.dtd" >
<svg xmlns="http://www.w3.org/2000/svg">
<metadata></metadata>
<defs>
<font id="merriweathersans_st_semibold" horiz-adv-x="0" >
<font-face units-per-em="2048" ascent="1638" descent="-410" />
<missing-glyph horiz-adv-x="666" />
<glyph unicode="&#xfb01;" horiz-adv-x="1487" d="M75 939v165l159 36v108q0 96 26 173t68 125t99 79.5t115 44.5t120 13q98 0 174 -23v-212q-58 22 -160 22q-70 0 -110 -49.5t-40 -150.5v-130h263v-201h-263v-939h-292v939h-159zM990 1476q0 73 58 126t133 53q79 0 125 -45t46 -116q0 -75 -56.5 -127.5t-133.5 -52.5 q-73 0 -122.5 45t-49.5 117zM1018 0v1139h293v-1139h-293z" />
<glyph unicode="&#xfb02;" horiz-adv-x="1492" d="M75 939v165l159 36v108q0 96 26 173t68 125t99 79.5t115 44.5t120 13q98 0 174 -23v-212q-58 22 -160 22q-70 0 -110 -49.5t-40 -150.5v-130h263v-201h-263v-939h-292v939h-159zM1021 0v1663h292v-1663h-292z" />
<glyph unicode="&#xfb03;" horiz-adv-x="2330" d="M75 939v165l159 36v108q0 96 26 173t68 125t99 79.5t115 44.5t120 13q98 0 174 -23v-212q-58 22 -160 22q-70 0 -110 -49.5t-40 -150.5v-130h263v-201h-263v-939h-292v939h-159zM917 939v165l159 36v108q0 96 26 173t68 125t99 79.5t115 44.5t120 13q98 0 174 -23v-212 q-58 22 -160 22q-70 0 -110 -49.5t-40 -150.5v-130h263v-201h-263v-939h-292v939h-159zM1833 1476q0 73 58 126t133 53q79 0 125 -45t46 -116q0 -75 -56.5 -127.5t-133.5 -52.5q-73 0 -122.5 45t-49.5 117zM1860 0v1139h293v-1139h-293z" />
<glyph unicode="&#xfb04;" horiz-adv-x="2335" d="M75 939v165l159 36v108q0 96 26 173t68 125t99 79.5t115 44.5t120 13q98 0 174 -23v-212q-58 22 -160 22q-70 0 -110 -49.5t-40 -150.5v-130h263v-201h-263v-939h-292v939h-159zM917 939v165l159 36v108q0 96 26 173t68 125t99 79.5t115 44.5t120 13q98 0 174 -23v-212 q-58 22 -160 22q-70 0 -110 -49.5t-40 -150.5v-130h263v-201h-263v-939h-292v939h-159zM1863 0v1663h292v-1663h-292z" />
<glyph />
<glyph unicode="&#xd;" />
<glyph unicode="&#x9;" />
<glyph unicode="&#xa;" />
<glyph />
<glyph />
<glyph />
<glyph />
<glyph />
<glyph />
<glyph />
<glyph unicode=" "  horiz-adv-x="666" />
<glyph unicode="&#x09;" horiz-adv-x="666" />
<glyph unicode="&#xa0;" horiz-adv-x="666" />
<glyph unicode="!" horiz-adv-x="634" d="M137 156q-2 78 54.5 137t133.5 59q79 0 125 -50t48 -126q1 -81 -54.5 -139.5t-133.5 -58.5q-74 0 -123 51t-50 127zM159 1780h323l-32 -1233h-252z" />
<glyph unicode="&#x22;" horiz-adv-x="1282" d="M237 1698h283l-37 -744h-209zM761 1698h283l-37 -744h-209z" />
<glyph unicode="#" horiz-adv-x="1636" d="M212 331v200h208l31 329h-202v193h220l30 320h242l-31 -320h289l29 320h241l-31 -320h208v-193h-226l-31 -329h213v-200h-232l-31 -331h-235l30 331h-293l-31 -331h-239l31 331h-190zM660 531h292l29 329h-289z" />
<glyph unicode="$" horiz-adv-x="1383" d="M215 1136q0 173 114 273t301 122l5 232h185l-6 -227q204 -12 316 -79l-52 -227q-50 37 -134.5 61t-187.5 24q-108 0 -182.5 -40t-74.5 -116q0 -87 61.5 -141.5t228.5 -133.5q75 -34 132 -65t113.5 -74t93.5 -89t59.5 -106.5t22.5 -128.5q0 -188 -116 -300.5t-326 -132.5 l-5 -221h-185l5 221q-122 8 -222.5 34t-140.5 53l52 235q59 -35 167.5 -65t208.5 -30q267 2 267 175q0 46 -17 80.5t-67.5 69.5t-90.5 56t-137 67q-15 7 -23 11q-365 174 -365 462z" />
<glyph unicode="%" horiz-adv-x="2104" d="M72 1064q0 104 34 189.5t92 140.5t132 85t157 32q98 1 173 -32.5t120 -94.5t67.5 -140t22.5 -174q0 -137 -59 -240t-152 -153t-204 -52q-184 -2 -283.5 122.5t-99.5 316.5zM308 1073q0 -117 42.5 -188t118.5 -71q80 0 123.5 66t43.5 183q0 119 -43.5 189.5t-119.5 70.5 q-80 0 -122.5 -66.5t-42.5 -183.5zM632 0l605 1530h234l-606 -1530h-233zM1237 465q0 104 34 189.5t92 140.5t132.5 85t157.5 32q98 1 173 -32.5t120 -94.5t67.5 -139.5t22.5 -173.5q0 -104 -34 -189t-92 -139.5t-132.5 -84.5t-157.5 -32q-93 -1 -167 33t-120.5 94.5 t-71 139.5t-24.5 171zM1474 474q0 -116 42 -187t118 -71q80 0 123.5 66t43.5 183q0 119 -43 189.5t-120 70.5q-79 0 -121.5 -66.5t-42.5 -184.5z" />
<glyph unicode="&#x26;" horiz-adv-x="1533" d="M109 404q0 249 309 386q-153 209 -153 382q0 174 117.5 274t318.5 100q185 0 298 -103.5t113 -253.5q0 -90 -25 -162t-73 -125t-103.5 -91t-132.5 -74q171 -239 310 -390q67 83 67 212q0 32 -3.5 64.5t-7 51.5t-8.5 41t-6 27h239q22 -83 22 -185q0 -220 -128 -350 q86 -47 200 -51v-158q-58 -15 -135 -15q-137 0 -258 71q-154 -71 -318 -71q-303 0 -473 108t-170 312zM379 414q0 -102 85.5 -170t266.5 -68q87 0 159 29q-171 185 -354 434q-157 -92 -157 -225zM524 1180q0 -53 16 -98.5t34.5 -73t74.5 -98.5q14 -19 22 -29 q200 103 200 305q0 64 -42.5 117t-126.5 53q-79 0 -128.5 -45.5t-49.5 -130.5z" />
<glyph unicode="'" horiz-adv-x="756" d="M237 1698h283l-37 -744h-209z" />
<glyph unicode="(" horiz-adv-x="849" d="M100 719q0 122 20 239t52 211t74.5 180t86 149.5t88 115t78 82t58.5 45.5l166 -97q-33 -28 -71.5 -71.5t-91 -128t-94 -183t-72.5 -242.5t-34 -300q-3 -154 21.5 -296t63.5 -243.5t91.5 -189.5t97.5 -140.5t89 -89.5l-167 -99q-27 18 -58 44.5t-77 77t-88 110.5 t-85.5 147.5t-75.5 185t-52 226t-20 267.5z" />
<glyph unicode=")" horiz-adv-x="849" d="M124 -220q33 28 71.5 71.5t91 128t94 183t72.5 242.5t34 300q3 154 -21.5 296t-63.5 243.5t-91.5 189.5t-97.5 140.5t-89 89.5l167 99q27 -18 58 -44.5t77 -77t88 -110.5t85.5 -147.5t75.5 -185t52 -226t20 -267.5q0 -122 -20 -239t-52 -211t-74.5 -180t-86 -149.5 t-88 -115t-78 -82t-58.5 -45.5z" />
<glyph unicode="*" horiz-adv-x="1298" d="M123 1325l109 204l249 -169l117 -111q0 2 -19.5 76.5t-21.5 79.5l-32 294h233l-22 -290l-37 -159l29 30q28 29 55.5 57t29.5 30l245 171l111 -203l-264 -126l-155 -47l157 -42l268 -118l-117 -212l-238 169l-121 111q1 -3 21 -78t21 -78l30 -294h-231l23 293l37 158 l-115 -118l-241 -172l-115 204l264 131l155 44q-2 1 -78 21t-78 21z" />
<glyph unicode="+" horiz-adv-x="1394" d="M206 664v221h223l163 -9l-7 189v212h223v-212l-7 -189l149 9h239v-221h-239l-149 6l7 -188v-214h-223v214l7 188l-163 -6h-223z" />
<glyph unicode="," horiz-adv-x="634" d="M152 78v84l195 133q60 -22 101.5 -81t58 -122.5t16.5 -127.5q0 -162 -77 -295t-186 -175l-103 98v26q45 26 75.5 99t30.5 167q0 64 -34.5 125.5t-76.5 68.5z" />
<glyph unicode="-" horiz-adv-x="1351" d="M251 658v222h850v-222h-850z" />
<glyph unicode="." horiz-adv-x="634" d="M137 156q-1 79 55 137.5t133 58.5q79 0 125.5 -50t47.5 -126q1 -81 -54.5 -139.5t-133.5 -58.5q-73 0 -122.5 51t-50.5 127z" />
<glyph unicode="/" horiz-adv-x="855" d="M24 -363l563 1962h243l-563 -1962h-243z" />
<glyph unicode="0" horiz-adv-x="1418" d="M129 771q4 344 170.5 551.5t425.5 207.5q125 0 222.5 -40t161.5 -109.5t105.5 -168.5t58.5 -210.5t16 -242.5q-2 -230 -76 -406t-207 -272.5t-306 -96.5q-122 0 -220 43t-163.5 116.5t-108.5 174.5t-61.5 214t-17.5 239zM425 780q0 -167 30 -299.5t95.5 -215.5t157.5 -83 q139 0 211.5 145.5t72.5 422.5q0 266 -71 424t-209 158t-212.5 -144t-74.5 -408z" />
<glyph unicode="1" horiz-adv-x="950" d="M115 1338q94 24 226.5 92.5t187.5 116.5h2l137 -28l-1 -1519h-305v1208q-135 -34 -219 -47z" />
<glyph unicode="2" horiz-adv-x="1277" d="M104 136q92 59 182.5 130t182.5 163t161.5 186t113.5 201t44 206q0 133 -61 208.5t-169 75.5q-93 0 -188 -39.5t-151 -94.5l-106 164q72 77 206.5 138.5t295.5 61.5q129 0 224.5 -39.5t150 -109t80 -154t25.5 -185.5q0 -221 -157 -435.5t-424 -397.5l637 25v-240h-1005z " />
<glyph unicode="3" horiz-adv-x="1180" d="M82 1378q62 55 202 105.5t271 50.5q126 0 225 -39t159.5 -121.5t60.5 -197.5q0 -124 -68.5 -218.5t-188.5 -157.5q163 -22 253 -112t90 -208q0 -212 -188 -353.5t-486 -141.5q-135 0 -286 32l-1 194q106 -24 221 -25q193 0 314 83.5t121 207.5q0 101 -74 155.5t-229 45.5 l-112 -23l-49 175q96 17 193 60q95 40 149 103.5t55 134.5q2 92 -55.5 140t-154.5 48q-167 0 -324 -106z" />
<glyph unicode="4" horiz-adv-x="1368" d="M80 361l559 1185h254l55 -82l-487 -884l-81 -127h424l30 440h250v-440h221v-210h-221v-243h-280v243h-656z" />
<glyph unicode="5" horiz-adv-x="1247" d="M179 -15l1 196q72 -2 99 -2q248 0 396 94t148 242q0 258 -291 258q-123 0 -280 -53l-71 42l57 760h828l-15 -233l-603 -1l-38 -360q143 47 268 47q212 0 328 -114t116 -325q0 -111 -53.5 -213t-151 -180.5t-248 -125t-331.5 -46.5q-92 0 -159 14z" />
<glyph unicode="6" horiz-adv-x="1386" d="M135 585q0 156 50.5 300t135.5 254.5t196 196.5t234.5 136.5t247.5 65.5l58 -180q-206 -43 -359 -172.5t-220 -306.5q137 117 336 117q204 0 322 -129t118 -328q0 -88 -22 -169t-68.5 -151.5t-112.5 -122.5t-160.5 -82t-207.5 -30q-160 0 -286 79t-194 215.5t-68 306.5z M435 660q-9 -477 272 -477q80 0 140.5 47t90 119t29.5 154q0 287 -238 287q-178 0 -291 -79q0 -6 -1 -16t-1.5 -18.5t-0.5 -16.5z" />
<glyph unicode="7" horiz-adv-x="1236" d="M111 1281l1 241h993l56 -75l-520 -1447h-352q132 281 305.5 674.5t253.5 606.5h-737z" />
<glyph unicode="8" horiz-adv-x="1336" d="M131 391q0 250 307 379q-120 73 -187.5 165.5t-67.5 225.5q0 175 137.5 280t360.5 105t352.5 -99t129.5 -259q0 -116 -67 -216.5t-205 -163.5q59 -32 102.5 -59t90.5 -65t76.5 -76t48.5 -88.5t20 -105.5q1 -102 -41 -184.5t-115.5 -135.5t-172 -81.5t-211.5 -28.5 q-119 0 -219 25t-176.5 74t-119.5 128t-43 180zM389 417q0 -109 77 -175.5t216 -66.5q108 0 181 56.5t73 149.5q0 40 -18 76t-43 62t-70.5 55t-82.5 48.5t-97 48.5q-19 9 -29 14q-94 -42 -150.5 -110.5t-56.5 -157.5zM452 1185q0 -48 21 -90t64 -79t86.5 -65t109.5 -62 q87 42 133.5 117.5t48.5 161.5q3 90 -57.5 143t-170.5 53q-107 0 -171 -50t-64 -129z" />
<glyph unicode="9" horiz-adv-x="1404" d="M139 1001q0 244 150.5 395.5t420.5 151.5q164 0 288.5 -79.5t189.5 -215.5t65 -307q0 -157 -50.5 -302t-136.5 -256.5t-197.5 -198.5t-235.5 -138t-248 -66l-69 175q199 37 349 160.5t226 289.5q-112 -84 -315 -84q-197 0 -317 136.5t-120 338.5zM425 1066 q0 -161 62 -247t172 -86q111 0 178.5 27t115.5 78l2 32q10 477 -272 477q-110 0 -184 -85.5t-74 -195.5z" />
<glyph unicode=":" horiz-adv-x="634" d="M137 156q-1 79 55 137.5t133 58.5q79 0 125.5 -50t47.5 -126q1 -81 -54.5 -139.5t-133.5 -58.5q-73 0 -122.5 51t-50.5 127zM137 923q-1 79 55 137.5t133 58.5q79 0 125.5 -50t47.5 -126q1 -81 -54.5 -139.5t-133.5 -58.5q-73 0 -122.5 51t-50.5 127z" />
<glyph unicode=";" horiz-adv-x="634" d="M137 923q-1 79 55 137.5t133 58.5q79 0 125.5 -50t47.5 -126q1 -81 -54.5 -139.5t-133.5 -58.5q-73 0 -122.5 51t-50.5 127zM152 78v84l195 133q60 -22 101.5 -81t58 -122.5t16.5 -127.5q0 -162 -77 -295t-186 -175l-103 98v26q45 26 75.5 99t30.5 167q0 64 -34.5 125.5 t-76.5 68.5z" />
<glyph unicode="&#x3c;" horiz-adv-x="1369" d="M187 698v154l956 473v-262l-627 -290l627 -271v-269z" />
<glyph unicode="=" horiz-adv-x="1411" d="M246 415v207h919v-207h-919zM246 927v208h919v-208h-919z" />
<glyph unicode="&#x3e;" horiz-adv-x="1369" d="M225 233v269l627 271l-627 290v262l956 -473v-154z" />
<glyph unicode="?" horiz-adv-x="1055" d="M107 1579v208q27 20 112.5 37t164.5 17q157 0 276.5 -41t189 -112.5t98.5 -167t13 -207.5q-7 -69 -34.5 -125.5t-65 -94t-81.5 -70t-87 -60.5t-78.5 -57t-58.5 -68.5t-25 -87.5q-3 -8 -1 -28.5t1.5 -27.5t3.5 -27.5t5.5 -27.5t7 -28t7.5 -29.5t8.5 -30.5t9.5 -32h-223 q-79 109 -83 261q-1 51 18.5 96t52.5 79.5t73 66.5t81.5 61.5t76.5 59t59 65.5t29 75q34 156 -55.5 244t-283.5 88q-118 0 -211 -36zM309 153q-1 77 55 135t132 58q77 0 122.5 -49t47.5 -124q1 -80 -54 -137.5t-132 -57.5q-72 0 -121 50t-50 125z" />
<glyph unicode="@" horiz-adv-x="2234" d="M180 420q0 248 84.5 459.5t229.5 356t342 226t418 81.5q231 0 409 -83t281.5 -249t103.5 -393q0 -157 -33.5 -292.5t-91 -231.5t-133 -164.5t-160 -101.5t-172.5 -33q-86 0 -129.5 44.5t-50.5 143.5q-4 50 2 101q-160 -289 -364 -289q-56 0 -108.5 28t-95.5 81t-68 140 t-23 195q2 86 24 171.5t69 168.5t112.5 147t163.5 103t215 39q143 0 229 -55l185 31q-54 -223 -127 -614q-47 -256 25 -256q44 0 91 28t90.5 83t78 127.5t55 170.5t20.5 204q0 135 -34.5 239t-92 169.5t-139.5 107t-168.5 58t-187.5 16.5q-172 0 -326.5 -67.5t-271.5 -187.5 t-186 -300t-69 -392q0 -160 39 -287t105 -209t157 -136.5t189.5 -77.5t209.5 -23q259 0 440 99l42 -144q-73 -50 -205 -86t-297 -36q-147 0 -276.5 33.5t-240.5 104.5t-190.5 174.5t-124.5 251t-45 326.5zM855 468q-2 -117 28 -187.5t91 -70.5q64 0 145.5 105t142 249.5 t74.5 260.5q-21 31 -66 47t-93 16q-92 0 -166.5 -62t-114 -157t-41.5 -201z" />
<glyph unicode="A" horiz-adv-x="1445" d="M9 0l552 1533h331l544 -1533h-316l-107 337h-585l-108 -337h-311zM497 550h449l-174 550l-49 176l-49 -176z" />
<glyph unicode="B" horiz-adv-x="1398" d="M183 0v1523l142 -1q45 0 159.5 7.5t197.5 7.5q535 0 535 -373q0 -119 -57.5 -218t-172.5 -131q136 -10 231 -113.5t95 -244.5q0 -109 -30.5 -191.5t-100 -147t-193 -98.5t-299.5 -34q-142 0 -358 14h-149zM480 209q38 -22 210 -22q158 0 238 60t80 197q0 122 -77.5 181.5 t-243.5 59.5q-171 0 -207 -6v-470zM480 882q28 -5 63 -6h40.5h50.5q56 1 64 1q103 0 167.5 63t64.5 188q0 110 -73.5 161t-218.5 51q-128 0 -158 -13v-445z" />
<glyph unicode="C" horiz-adv-x="1318" d="M87 755q0 187 59.5 338t161.5 247t235.5 147t285.5 51q76 0 146.5 -7.5t106 -15.5t83.5 -21t56 -15l-40 -259q-115 78 -328 78q-212 0 -337 -139.5t-125 -384.5q0 -255 121 -406t342 -151q104 0 207 29t143 66l1 -248q-56 -23 -95.5 -37t-118 -28.5t-162.5 -14.5 q-347 0 -544.5 208t-197.5 563z" />
<glyph unicode="D" horiz-adv-x="1506" d="M183 0v1522h115q38 0 186 8t214 8q367 0 548 -190t181 -546q-1 -390 -199 -606q-195 -212 -541 -212h-13q-56 0 -196 8t-204 8h-91zM483 217q72 -17 220 -17q194 4 305 144t111 425q0 301 -111 429.5t-345 128.5q-116 0 -180 -14v-1096z" />
<glyph unicode="E" horiz-adv-x="1244" d="M183 0v1522h917v-224h-621v-407h463v-219h-463v-444h688v-228h-984z" />
<glyph unicode="F" horiz-adv-x="1119" d="M183 0v1522h909v-224h-612v-441h467v-223h-467v-634h-297z" />
<glyph unicode="G" horiz-adv-x="1466" d="M90 753q0 198 57.5 350.5t159.5 246t235 141t291 47.5q101 0 171 -8t160 -29t102 -23l-10 -256q-159 84 -422 84q-200 0 -319.5 -140.5t-119.5 -385.5q0 -167 46 -295t142 -203.5t231 -75.5q188 0 261 47v326l-251 16v209h527v-714q-34 -2 -84.5 -19t-100.5 -36 t-144.5 -35t-206.5 -16q-333 0 -529 210t-196 559z" />
<glyph unicode="H" horiz-adv-x="1593" d="M183 0v1522h300v-645h627v645h301v-1522h-301v658h-627v-658h-300z" />
<glyph unicode="I" horiz-adv-x="693" d="M195 0v1522h303v-1522h-303z" />
<glyph unicode="J" horiz-adv-x="744" d="M-49 -182q204 77 259 258q16 54 23.5 144.5t8 152.5t0.5 235v914h302v-909q0 -33 1 -139q1 -53 1 -90.5t-1 -59.5q-1 -43 -5.5 -113t-14.5 -121q-15 -80 -55.5 -149.5t-93.5 -117t-115.5 -82.5t-122 -52.5t-112.5 -20.5z" />
<glyph unicode="K" horiz-adv-x="1415" d="M183 0v1522h297v-712l538 712h336l-520 -662q11 -17 76 -115t104.5 -158.5t100 -154t110.5 -174.5t88 -147l65 -111h-340q-9 14 -28.5 51.5t-35.5 66.5q-41 78 -94 164.5t-132 208t-102 157.5l-166 -199v-449h-297z" />
<glyph unicode="L" horiz-adv-x="1098" d="M183 0v1522h307v-1293h552v-229h-859z" />
<glyph unicode="M" horiz-adv-x="1988" d="M113 -1l166 1523h404l246 -834l72 -341l67 341l230 834h388l191 -1522h-291l-84 902l-25 406l-92 -415l-278 -904h-223l-291 904l-102 414l-23 -405l-73 -902z" />
<glyph unicode="N" horiz-adv-x="1588" d="M182 0v1522h278l589 -927l113 -222l-26 303v846h269v-1522h-288l-567 901l-127 239l28 -314v-826h-269z" />
<glyph unicode="O" horiz-adv-x="1587" d="M98 771q4 192 60 339.5t153.5 239.5t225.5 139t281 49h9q308 0 487 -206q175 -202 175 -544v-26q-4 -192 -57 -340.5t-147 -242.5t-219 -143t-278 -52h-17q-203 0 -355 94q-158 98 -240 276q-78 171 -78 395v22zM402 758q0 -155 43 -277.5t133.5 -198.5t216.5 -76 q183 0 286.5 143t103.5 424q0 154 -40.5 274t-126.5 193t-207 73q-86 0 -158.5 -32t-129.5 -96.5t-89 -173.5t-32 -253z" />
<glyph unicode="P" horiz-adv-x="1326" d="M183 0v1522h141q52 0 176 8t199 8q273 0 417.5 -122t144.5 -390q0 -261 -154 -399.5t-449 -138.5q-35 0 -175 4v-492h-300zM483 708q72 -9 170 -9q69 0 123.5 15.5t99.5 51t69 101t24 157.5q0 307 -309 307h-14q-109 -4 -163 -16v-607z" />
<glyph unicode="Q" horiz-adv-x="1587" d="M98 771q4 192 60 339.5t153.5 239.5t225.5 139t281 49h9q308 0 487 -206q175 -202 175 -544v-26q-6 -313 -138 -501.5t-360 -249.5q105 -115 343 -115q120 0 186 24v-206q-28 -15 -85 -27t-116 -12q-204 0 -341.5 69t-241.5 241q-300 12 -472 227q-166 207 -166 532v27z M402 758q0 -155 43 -277.5t133.5 -198.5t216.5 -76q183 0 286.5 143t103.5 424q0 154 -40.5 274t-126.5 193t-207 73q-86 0 -158.5 -32t-129.5 -96.5t-89 -173.5t-32 -253z" />
<glyph unicode="R" horiz-adv-x="1418" d="M183 0v1522h100q47 0 194.5 8t238.5 8q90 0 168 -14.5t147.5 -48.5t119 -85.5t78 -129.5t28.5 -177q0 -162 -68 -268t-191 -157q60 -42 111 -132.5t107.5 -222t90.5 -192.5l62 -111h-333q-12 16 -55 110q-18 41 -46 115t-49.5 127t-50.5 110.5t-64 93t-75 46.5 q-68 -4 -215 -4v-598h-298zM481 804q59 -7 211 -7q129 0 199.5 69.5t70.5 207.5q0 127 -68 190.5t-219 63.5q-118 0 -194 -18v-506z" />
<glyph unicode="S" horiz-adv-x="1175" d="M116 1136q0 101 41 179t113.5 126t165.5 72.5t203 24.5q255 0 392 -81l-52 -227q-50 37 -134.5 61t-187.5 24q-108 0 -182.5 -40t-74.5 -116q0 -87 61.5 -141.5t228.5 -133.5q75 -34 132 -65t113.5 -74t93.5 -89t59.5 -106.5t22.5 -128.5q0 -208 -141 -322.5t-395 -114.5 q-147 0 -276 29.5t-178 61.5l52 235q59 -35 167.5 -65t208.5 -30q267 2 267 175q0 46 -17 80.5t-67.5 69.5t-90.5 56t-137 67q-5 3 -8 4t-7 3l-8 4q-365 174 -365 462z" />
<glyph unicode="T" horiz-adv-x="1293" d="M53 1291v231h1187v-231h-443v-1291h-302v1291h-442z" />
<glyph unicode="U" horiz-adv-x="1501" d="M150 628l1 894h298l-2 -830q0 -138 19.5 -231.5t61.5 -147t98 -75.5t136 -22q73 0 125 22t91.5 75t58.5 147t19 232v830h296v-895q0 -643 -588 -643q-614 0 -614 638v6z" />
<glyph unicode="V" horiz-adv-x="1386" d="M11 1522h317l306 -919l67 -257l69 257l290 919h316l-549 -1531h-258z" />
<glyph unicode="W" horiz-adv-x="1958" d="M6 1522h303l204 -926l46 -300l50 300l253 926h244l254 -926l60 -296l44 295l199 927h289l-397 -1533h-287l-253 912l-38 221l-37 -222l-252 -911h-273z" />
<glyph unicode="X" horiz-adv-x="1351" d="M29 0l466 781l-461 741l333 1l225 -388l96 -170l94 170l215 387h315l-460 -767l473 -755h-335l-238 416l-88 161l-84 -160l-232 -417h-319z" />
<glyph unicode="Y" horiz-adv-x="1297" d="M0 1522h322l280 -565l58 -151l49 151l274 565h314l-494 -946v-576h-306v575z" />
<glyph unicode="Z" horiz-adv-x="1299" d="M67 84l704 1122l65 87h-690v229h1038l46 -81l-689 -1118l-74 -96h712v-227h-1067z" />
<glyph unicode="[" horiz-adv-x="837" d="M160 66v1420q0 149 42 204.5t157 55.5q102 0 318 -24v-147h-255v-1609l255 -2v-146q-187 -27 -318 -27q-113 0 -156 62t-43 213z" />
<glyph unicode="\" horiz-adv-x="855" d="M22 1599h243l563 -1962h-243z" />
<glyph unicode="]" horiz-adv-x="837" d="M158 -36l255 2v1609h-255v147q216 24 318 24q115 0 157 -55.5t42 -204.5v-1420q0 -151 -43 -213t-156 -62q-131 0 -318 27v146z" />
<glyph unicode="^" horiz-adv-x="1379" d="M164 490l414 1041h223l414 -1041h-266l-260 694l-256 -694h-269z" />
<glyph unicode="_" horiz-adv-x="1693" d="M-39 -262h1772v-151h-1772v151z" />
<glyph unicode="`" horiz-adv-x="642" d="M59 1645l196 158q197 -270 340 -424l-137 -120q-71 35 -211 167t-188 219z" />
<glyph unicode="a" horiz-adv-x="1193" d="M87 315q0 104 58 183t161 122q179 73 447 73v100q0 96 -49.5 127t-174.5 31q-78 0 -179.5 -25t-153.5 -57l-63 174q58 36 195.5 75t267.5 39q232 0 339.5 -87t107.5 -303v-783h-155q-34 0 -51.5 2.5t-34.5 12.5t-24 31.5t-7 57.5v8q-54 -47 -139.5 -79.5t-188.5 -32.5 q-159 0 -257.5 90t-98.5 241zM376 342q0 -83 46 -125t130 -42q58 0 119.5 22t81.5 42v302q-66 0 -142.5 -12t-123.5 -34q-53 -25 -82 -60t-29 -93z" />
<glyph unicode="b" horiz-adv-x="1304" d="M162 64v1597h292v-442l-8 -184q126 121 317 121q93 0 173 -33.5t142.5 -99t98.5 -171t36 -240.5q0 -284 -160.5 -457t-427.5 -173q-135 0 -283 29.5t-180 52.5zM454 221q47 -36 181 -36q122 0 199 105.5t79 295.5v8q0 340 -245 340q-109 0 -214 -78v-635z" />
<glyph unicode="c" horiz-adv-x="1020" d="M91 560q0 127 35 234.5t103 188.5t177 127t249 46q104 0 186.5 -18t112.5 -40l-38 -221q-89 59 -246 59q-117 0 -200 -85.5t-88 -261.5v-22q0 -175 78 -268q82 -99 214 -99q147 0 253 57l45 -161q-49 -49 -148.5 -80.5t-207.5 -31.5q-169 0 -289.5 76.5t-178 204.5 t-57.5 295z" />
<glyph unicode="d" horiz-adv-x="1303" d="M91 528q0 283 157.5 455.5t417.5 172.5q98 0 187 -27l-3 90v444h291v-1679h-184q-44 0 -65.5 17t-21.5 59v55q-131 -131 -330 -131q-92 0 -172 33.5t-142.5 99t-98.5 171t-36 240.5zM392 551v-11q0 -336 243 -336q61 0 119 23.5t96 53.5v627q-50 44 -182 44 q-123 0 -199 -104.5t-77 -296.5z" />
<glyph unicode="e" horiz-adv-x="1170" d="M91 574q0 256 143 418t397 164h7q87 0 162 -24q78 -25 141 -76.5t100 -140t39 -206.5q0 -143 -11 -204h-691q8 -169 91.5 -241t230.5 -72q74 0 164.5 19t131.5 42l49 -157q-58 -47 -175.5 -79.5t-241.5 -32.5q-257 0 -397 155.5t-140 434.5zM383 668h427q1 22 1 42 q0 257 -190 257q-207 0 -238 -299z" />
<glyph unicode="f" horiz-adv-x="847" d="M77 939v165l159 36v108q0 96 26 173t68 125t99 79.5t115 44.5t120 13q98 0 174 -23v-212q-58 22 -160 22q-70 0 -110 -49.5t-40 -150.5v-130h263v-201h-263v-939h-292v939h-159z" />
<glyph unicode="g" horiz-adv-x="1290" d="M88 -172q0 76 44.5 138t117.5 98q-90 51 -90 165q0 62 41 125q40 60 115 104q-98 47 -151 127.5t-53 188.5q0 185 130 282t357 99h10q194 0 319 -74q36 27 91.5 46t114.5 19h119v-213h-190q30 -66 30 -150q0 -179 -129.5 -280t-365.5 -101q-72 0 -129 10q-51 -40 -51 -98 q0 -54 30.5 -75.5t108.5 -21.5h229q435 0 435 -327q0 -96 -49.5 -174.5t-134 -128.5t-192.5 -76.5t-228 -26.5q-261 0 -395 88.5t-134 255.5zM378 -135q0 -101 57 -155t197 -54q130 0 217.5 44.5t87.5 127.5q0 42 -10.5 73t-37 56t-76 38t-121.5 13h-184q-36 0 -74 5 q-56 -64 -56 -148zM396 781q0 -97 50.5 -156.5t155.5 -59.5q101 0 151.5 48t50.5 165q0 217 -199 217q-98 0 -153.5 -47.5t-55.5 -166.5z" />
<glyph unicode="h" horiz-adv-x="1333" d="M169 0v1663h292v-456l-13 -183q68 53 170 92t208 41h10q176 0 255 -107q82 -110 82 -347v-703h-292v695q-1 133 -43 185q-39 48 -131 48h-14q-51 -2 -115.5 -24.5t-116.5 -64.5v-839h-292z" />
<glyph unicode="i" horiz-adv-x="649" d="M150 1476q0 73 58 126t133 53q79 0 125 -45t46 -116q0 -75 -56.5 -127.5t-133.5 -52.5q-73 0 -122.5 45t-49.5 117zM178 0v1139h293v-1139h-293z" />
<glyph unicode="j" horiz-adv-x="624" d="M-84 -290q13 -7 52 -14.5t65 -7.5q81 0 113 65.5t32 214.5v1171h293v-1088q0 -155 -26 -263.5t-77.5 -173t-121 -93t-164.5 -28.5q-44 0 -97 5.5t-69 12.5v199zM147 1476q0 73 58 126t133 53q79 0 125 -45t46 -116q0 -75 -56.5 -127.5t-133.5 -52.5q-73 0 -122.5 45 t-49.5 117z" />
<glyph unicode="k" horiz-adv-x="1226" d="M164 0v1661h291v-801l-7 -184l400 464h339l-422 -445l461 -695h-323l-327 496l-124 -131l3 -163v-202h-291z" />
<glyph unicode="l" horiz-adv-x="654" d="M181 0v1663h292v-1663h-292z" />
<glyph unicode="m" horiz-adv-x="2012" d="M169 0v1139h264l5 -121q70 54 175 95t211 44h13q100 0 165 -30q70 -32 107 -107q69 53 175.5 94.5t218.5 42.5h11q113 -1 185 -39q75 -40 113.5 -138t38.5 -264v-716h-291v695q0 133 -37 185q-34 48 -127 48h-15q-54 -1 -115.5 -26t-111.5 -62q6 -54 6 -117v-723h-289 v695q0 133 -37 185q-34 49 -127 48h-15q-52 -2 -116 -25.5t-115 -63.5v-839h-292z" />
<glyph unicode="n" horiz-adv-x="1326" d="M169 0v1139h264l5 -121q72 56 180 97t210 42h10q172 0 249 -98q79 -101 79 -345v-714h-291v695q0 135 -38 187q-35 48 -127 48h-18q-52 -2 -116 -26.5t-115 -64.5v-839h-292z" />
<glyph unicode="o" horiz-adv-x="1265" d="M91 593q4 268 155.5 415.5t395.5 147.5q114 0 206 -32.5t152.5 -88t101 -133.5t57.5 -166q15 -79 15 -168v-21q-3 -179 -75 -307.5t-194.5 -192t-282.5 -63.5q-114 0 -205.5 32.5t-152 88t-101 133.5t-57.5 166q-15 79 -15 168v21zM390 587q0 -116 23.5 -203.5 t78.5 -142.5t137 -56h4q242 0 242 375q0 85 -13.5 154.5t-41 123.5t-74 84t-109.5 31h-4q-243 0 -243 -366z" />
<glyph unicode="p" horiz-adv-x="1306" d="M162 -506v1646h271v-118q131 134 330 134q93 0 173 -33.5t143 -99t99.5 -171t36.5 -240.5q0 -283 -158 -455.5t-419 -172.5q-98 0 -187 27l3 -150v-367h-292zM454 230q50 -45 182 -45q123 0 199 104.5t78 296.5v8q0 340 -244 340q-113 0 -215 -78v-626z" />
<glyph unicode="q" horiz-adv-x="1304" d="M91 528q0 283 158 455.5t418 172.5q148 0 265 -50l211 34v-1646h-291v367l6 241q-125 -118 -316 -118q-92 0 -172.5 33.5t-143 99t-99 171t-36.5 240.5zM393 551v-8q0 -339 243 -339q62 0 120 24t96 54v625q-48 45 -183 45q-122 0 -198.5 -104.5t-77.5 -296.5z" />
<glyph unicode="r" horiz-adv-x="885" d="M164 0v1139h248l15 -155q33 69 123.5 121t192.5 52q70 0 100 -14v-282q-49 26 -135 26q-154 0 -253 -103v-784h-291z" />
<glyph unicode="s" horiz-adv-x="1029" d="M109 70l36 202q35 -26 133 -58.5t196 -33.5h3q185 0 185 118q0 24 -13 45t-31 37t-54 34.5t-63.5 30t-76.5 31.5q-154 60 -234 148q-80 86 -80 220q0 102 62 174q61 72 157.5 105t217.5 33q109 0 198.5 -20.5t134.5 -43.5l-35 -204q-31 26 -108 50.5t-155 24.5 q-98 1 -146 -27q-50 -28 -49 -81q1 -59 51 -97q52 -40 179 -84q325 -120 325 -352q0 -161 -118.5 -250t-322.5 -89q-123 0 -233 27t-159 60z" />
<glyph unicode="t" horiz-adv-x="883" d="M67 939v154q103 30 131 46q36 22 53 60q18 41 72 201h176v-260h308v-201h-308v-503q0 -66 3.5 -104t10 -65t23 -38.5t36.5 -15.5t56 -4q40 0 96.5 13.5t84.5 28.5l43 -163q-47 -39 -150.5 -71.5t-200.5 -32.5q-145 0 -218.5 75t-73.5 246v634h-142z" />
<glyph unicode="u" horiz-adv-x="1304" d="M157 471v669h292v-677q0 -85 9.5 -136.5t33.5 -78.5t54.5 -36t82.5 -9q55 0 118 21t96 45v871h292v-1156h-168q-51 0 -73 14.5t-22 64.5v32q-68 -46 -170 -78.5t-187 -32.5q-90 0 -154.5 24t-103.5 64.5t-62 105t-30.5 132.5t-7.5 161z" />
<glyph unicode="v" horiz-adv-x="1149" d="M4 1140h312l190 -575l81 -286l73 286l179 575h307l-431 -1156h-265z" />
<glyph unicode="w" horiz-adv-x="1693" d="M7 1140h284l153 -576l58 -250l58 249l164 577h268l159 -576l59 -252l57 248l146 580h273l-352 -1156h-261l-186 669l-38 191l-41 -191l-180 -669h-267z" />
<glyph unicode="x" horiz-adv-x="1178" d="M25 0l401 577l-401 563h330l205 -316l36 -60l31 61l204 315h324l-404 -557l413 -583h-335l-213 330l-32 52l-26 -53l-199 -329h-334z" />
<glyph unicode="y" horiz-adv-x="1157" d="M22 1140h306l222 -714l59 -210l52 210l185 714h306l-379 -1172q-119 -370 -351 -450q-66 -25 -155 -25q-27 0 -77.5 5.5t-58.5 10.5v225q47 -15 109 -15q38 0 75 12t78.5 40.5t76 87t54.5 141.5h-92z" />
<glyph unicode="z" horiz-adv-x="1081" d="M64 82l508 760l59 89h-503v209h856l35 -95l-503 -745l-62 -90h543v-210h-891z" />
<glyph unicode="{" horiz-adv-x="1001" d="M74 695v164q54 5 111 23t100.5 48.5t43.5 64.5v491q0 146 49 205t166 59q110 0 298 -24v-149h-253v-583q0 -60 -41 -101q-49 -56 -208 -117q150 -54 210 -119q39 -45 39 -99v-592h253v-139q-125 -35 -298 -35q-116 0 -165.5 60.5t-49.5 207.5v491q0 49 -85.5 92.5 t-169.5 51.5z" />
<glyph unicode="|" horiz-adv-x="856" d="M306 -187v1967h244v-1967h-244z" />
<glyph unicode="}" horiz-adv-x="1001" d="M158 -34h253v592q0 54 39 99q60 65 210 119q-159 61 -208 117q-41 41 -41 101v583h-253v149q188 24 298 24q117 0 166 -59t49 -205v-491q0 -34 43.5 -64.5t100.5 -48.5t111 -23v-164q-84 -8 -169.5 -51.5t-85.5 -92.5v-491q0 -147 -49.5 -207.5t-165.5 -60.5 q-173 0 -298 35v139z" />
<glyph unicode="~" horiz-adv-x="1439" d="M200 783q11 32 39.5 68.5t70 72.5t101 60t123.5 24q55 0 103 -17t81.5 -41t65 -48t67.5 -41t74 -17q66 0 112 30t87 81l115 -129q-27 -80 -116 -147t-212 -67q-55 0 -101.5 17t-79.5 41t-63 48.5t-67 41.5t-77 17q-65 0 -107 -28.5t-86 -81.5z" />
<glyph />
<glyph unicode="&#xa1;" horiz-adv-x="634" d="M135 1166q-1 81 54.5 139.5t133.5 58.5q74 0 123 -51t50 -127q2 -78 -54.5 -137t-133.5 -59q-79 0 -125 50t-48 126zM151 -438l32 1233h252l39 -1233h-323z" />
<glyph unicode="&#xa2;" horiz-adv-x="1194" d="M147 560q0 153 48.5 275.5t152.5 206.5t253 106l5 229h166l-5 -223q86 -5 151.5 -21.5t91.5 -34.5l-38 -221q-88 59 -246 59q-117 0 -200 -85.5t-88 -261.5q-5 -191 77.5 -290t214.5 -99q147 0 253 57l45 -161q-41 -41 -120 -70.5t-171 -38.5l-4 -203h-167l4 208 q-205 32 -314 186t-109 382z" />
<glyph unicode="&#xa3;" horiz-adv-x="1576" d="M128 97q0 77 73 127t190 57q30 46 30 219v223h-179v177h179v141q0 226 140 361.5t385 135.5q225 0 356 -103l-126 -211q-98 88 -241 88q-52 0 -89.5 -12.5t-69.5 -45t-48.5 -96.5t-16.5 -158v-100h326v-177h-325v-38q2 -185 -13 -287.5t-65 -152.5q38 -8 94 -26.5 t110 -30.5t119 -12q122 0 177.5 48.5t55.5 127.5q0 48 -25 90.5t-50 51.5l211 100q46 -27 93 -98.5t47 -164.5q0 -170 -113 -259.5t-339 -89.5q-98 0 -192.5 17t-152.5 38t-114 37t-88 15q-33 -35 -92.5 -64t-114.5 -29q-49 0 -90.5 26.5t-41.5 74.5z" />
<glyph unicode="&#xa4;" horiz-adv-x="1548" d="M209 313l199 201q-81 116 -81 259q0 141 80 258l-197 200l137 144l206 -211q104 60 224 60q122 0 225 -61l218 218l138 -143l-209 -210q79 -114 79 -255q0 -140 -80 -257l198 -201l-137 -142l-207 209q-104 -59 -225 -59q-120 0 -223 58l-207 -209zM541 773 q0 -100 69 -171.5t168 -71.5t166.5 71t67.5 172t-67.5 172t-166.5 71t-168 -71t-69 -172z" />
<glyph unicode="&#xa5;" horiz-adv-x="1548" d="M141 1522h319l255 -452l70 -154l68 157l257 449h311l-448 -700h297v-170h-354v-209h354v-170h-354v-273h-281v273h-374v170h374v209h-374v170h323z" />
<glyph unicode="&#xa6;" horiz-adv-x="856" d="M306 -186v810h244v-810h-244zM306 961v819h244v-819h-244z" />
<glyph unicode="&#xa7;" horiz-adv-x="1372" d="M191 756q0 179 165 315q-132 108 -132 261q0 73 27 132t72.5 97.5t107.5 64t127.5 36.5t137.5 11q246 0 375 -73l-48 -215q-117 82 -314 81q-97 -1 -160 -31.5t-63 -95.5q0 -47 38.5 -87.5t100 -72t135.5 -64.5t148 -72.5t135.5 -87t100 -118t38.5 -155.5 q0 -163 -131 -296q97 -92 97 -218q0 -96 -42.5 -168.5t-115 -113t-156 -60t-177.5 -19.5q-133 0 -253 28.5t-172 64.5l48 215q50 -37 147.5 -68t216.5 -30q105 1 174 33.5t69 99.5q0 43 -38.5 79t-100 63.5t-135.5 56t-148 64.5t-135.5 80t-100 111.5t-38.5 151.5zM437 815 q0 -52 27 -93.5t80.5 -74t104.5 -55.5t129.5 -55t125.5 -55q38 90 38 143q0 45 -20 84t-49 67t-79 58t-91 49t-105 49t-103 50q-58 -101 -58 -167z" />
<glyph unicode="&#xa8;" horiz-adv-x="942" d="M57 1483q0 72 54.5 123.5t125.5 51.5q74 0 115.5 -43.5t41.5 -114.5q0 -73 -53 -124t-125 -51q-69 0 -114 44t-45 114zM548 1483q0 72 54.5 123.5t125.5 51.5q73 0 115 -43.5t42 -114.5q0 -73 -53 -124t-125 -51q-69 0 -114 44t-45 114z" />
<glyph unicode="&#xa9;" horiz-adv-x="2116" d="M188 1123q0 120 31 233.5t86.5 209.5t135.5 177t175.5 137t208.5 87.5t233 31.5q179 0 340.5 -69t277.5 -186t184.5 -279.5t68.5 -341.5q0 -180 -68.5 -342.5t-184.5 -280.5t-277.5 -187.5t-340.5 -69.5t-340.5 69.5t-277.5 187.5t-184 280.5t-68 342.5zM330 1123 q0 -153 55.5 -291.5t151 -239.5t231.5 -160.5t290 -59.5t290 59.5t231.5 160.5t151 239.5t55.5 291.5t-55.5 291t-151 239t-231.5 160.5t-290 59.5t-290 -59.5t-231.5 -160.5t-151 -239t-55.5 -291zM612 1117q0 106 32 196.5t93 158t156.5 105.5t214.5 38q141 0 244 -60 l-30 -176q-89 59 -221 59q-125 0 -197.5 -85.5t-72.5 -215.5q-1 -156 70 -239t188 -83q75 0 138.5 18.5t101.5 42.5l43 -145q-49 -42 -133.5 -69t-180.5 -27q-101 0 -186 40t-141.5 107t-87.5 154t-31 181z" />
<glyph unicode="&#xaa;" horiz-adv-x="1053" d="M118 934q0 183 189 256q150 57 364 57v57q0 80 -40 104.5t-139 24.5q-65 0 -160.5 -26.5t-130.5 -51.5l-56 147q33 31 159.5 71.5t234.5 40.5q191 0 284.5 -70t93.5 -237v-628h-117h-14q-31 0 -45 1t-30.5 7.5t-22.5 22.5t-6 43v14q-34 -36 -105.5 -65.5t-152.5 -29.5 q-139 0 -222.5 69.5t-83.5 192.5zM360 953q0 -51 38 -81.5t97 -30.5q58 0 107 17.5t68 34.5l1 -2v222q-166 0 -234 -34q-77 -41 -77 -126z" />
<glyph unicode="&#xab;" horiz-adv-x="1977" d="M231 497v232l653 424l71 -207l-442 -331l442 -329l-71 -205zM1002 497v232l653 424l71 -207l-442 -331l442 -329l-71 -205z" />
<glyph unicode="&#xac;" horiz-adv-x="1471" d="M241 647v205h990v-547h-235v342h-755z" />
<glyph unicode="&#xad;" horiz-adv-x="1351" d="M251 658v222h850v-222h-850z" />
<glyph unicode="&#xae;" horiz-adv-x="2116" d="M187 1123q0 179 68.5 341.5t184.5 279.5t277.5 186t340.5 69q239 0 439.5 -117t316.5 -318.5t116 -440.5q0 -180 -68.5 -342.5t-185 -280.5t-278 -187.5t-340.5 -69.5t-340.5 69.5t-277.5 187.5t-184.5 280.5t-68.5 342.5zM329 1123q0 -153 55.5 -291.5t151.5 -239 t232 -160t290 -59.5t290 59.5t232 160t151.5 239t55.5 291.5t-55.5 291t-151.5 238.5t-232 160t-290 59.5t-290 -59.5t-232 -160t-151.5 -238.5t-55.5 -291zM722 644v962h87q36 0 121.5 3.5t140.5 3.5q181 0 273.5 -77t92.5 -198q0 -250 -195 -307q29 -20 54 -51.5t39.5 -58 t36.5 -70t35 -65.5q26 -45 91 -142l-223 1q-26 32 -69 122q-3 7 -20 45t-23.5 51.5t-24 44t-30.5 44.5t-32.5 30.5t-40.5 23.5q-22 -1 -115 -1v-361h-198zM920 1151q29 -5 128 -5q95 0 142.5 39.5t47.5 127.5q0 79 -47 119t-163 37q-75 -2 -108 -11v-307z" />
<glyph unicode="&#xaf;" horiz-adv-x="681" d="M50 1412v199h581v-199h-581z" />
<glyph unicode="&#xb0;" horiz-adv-x="941" d="M112 1278q0 152 103 253t255 101q154 0 256.5 -101t102.5 -253t-102.5 -253t-256.5 -101q-151 0 -254.5 101.5t-103.5 252.5zM296 1278q0 -80 51 -131.5t123 -51.5q74 0 125 51.5t51 131.5t-51.5 131t-124.5 51q-74 0 -124 -50.5t-50 -131.5z" />
<glyph unicode="&#xb1;" horiz-adv-x="1394" d="M206 664v221h223l163 -9l-7 189v212h223v-212l-7 -189l149 9h239v-221h-239l-149 6l7 -188v-214h-223v214l7 188l-163 -6h-223zM241 0v201h906v-201h-906z" />
<glyph unicode="&#xb2;" horiz-adv-x="1035" d="M200 824q59 36 131.5 88t155.5 123.5t150 143t111.5 149t44.5 139.5q0 95 -54 135t-156 40q-84 0 -161 -37t-117 -79l-81 98q45 64 161 124.5t245 60.5q88 0 156 -18.5t110 -48.5t69.5 -73t38 -88.5t10.5 -97.5q0 -86 -49 -177t-133.5 -174.5t-177 -153.5t-200.5 -135 l600 64l2 -202h-810z" />
<glyph unicode="&#xb3;" horiz-adv-x="1035" d="M133 746l15 146q101 -40 211 -40q143 0 221 49t78 146q0 78 -52 122.5t-151 43.5l-114 -41l-37 138q80 17 148 49q67 35 102.5 73.5t35.5 90.5q0 64 -33 94t-123 30q-62 0 -128 -26.5t-107 -64.5l-66 123q52 51 153.5 91t206.5 40q152 0 238.5 -67.5t86.5 -177.5 q0 -206 -233 -290q87 6 149.5 -12.5t95.5 -55.5t47.5 -79t14.5 -91q0 -141 -134.5 -241.5t-353.5 -100.5q-158 0 -271 51z" />
<glyph unicode="&#xb4;" horiz-adv-x="642" d="M38 1391q226 249 338 412l195 -158q-40 -78 -183.5 -211.5t-209.5 -162.5z" />
<glyph unicode="&#xb5;" horiz-adv-x="1376" d="M178 -371v1511h291v-711q0 -124 50.5 -178t157.5 -54q46 0 99.5 21t88.5 51v871h292v-867q0 -76 41 -76q36 0 81 27l31 -137q-19 -28 -88.5 -66.5t-156.5 -38.5q-69 0 -110.5 33.5t-42.5 104.5q-26 -36 -52.5 -62t-81.5 -50t-122 -24q-87 0 -144.5 19.5t-96.5 66.5 l31 -441h-268z" />
<glyph unicode="&#xb6;" horiz-adv-x="1369" d="M67 1248q0 216 149 339.5t442 123.5q66 0 257.5 -9.5t269.5 -10.5v-1691h-229v1520h-228v-1520h-227v777q-206 0 -320 115t-114 356z" />
<glyph unicode="&#xb7;" horiz-adv-x="634" d="M137 725q-1 79 55 137.5t133 58.5q79 0 125.5 -50t47.5 -126q1 -81 -54.5 -139.5t-133.5 -58.5q-73 0 -122.5 51t-50.5 127z" />
<glyph unicode="&#xb8;" horiz-adv-x="503" d="M40 -436l19 161q22 -14 78 -14q52 0 85.5 37.5t36.5 112.5q9 102 -28 169l117 4l47 -4q34 -32 50 -102.5t12 -150.5q-6 -121 -76.5 -181t-175.5 -60q-45 0 -96 8t-69 20z" />
<glyph unicode="&#xb9;" horiz-adv-x="1035" d="M118 1637q317 71 447 172h4l108 -17v-945l267 1v-143h-799v143h296v717q-56 -18 -144.5 -35.5t-151.5 -22.5z" />
<glyph unicode="&#xba;" horiz-adv-x="1051" d="M89 1156q1 97 29 176t72.5 130.5t103.5 86.5t120.5 50.5t125.5 15.5q197 0 307 -132t106 -348q-2 -120 -40 -212.5t-100.5 -146t-137 -80t-157.5 -26.5q-203 0 -317 132t-112 354zM344 1156q0 -139 49.5 -221t135.5 -81q84 2 127 68t43 211q0 140 -44.5 220t-125.5 78 q-86 -2 -135.5 -67.5t-49.5 -207.5z" />
<glyph unicode="&#xbb;" horiz-adv-x="1977" d="M249 286l442 329l-442 331l71 207l653 -424v-232l-653 -416zM1020 286l442 329l-442 331l71 207l653 -424v-232l-653 -416z" />
<glyph unicode="&#xbc;" horiz-adv-x="2443" d="M118 1463q317 71 447 172h4l108 -17v-945l267 1v-143h-799v143h296v717q-56 -18 -144.5 -35.5t-151.5 -22.5zM767 -145l736 1818l167 -26l-735 -1814zM1458 303q2 3 108 213t207 410t117 236h201l42 -62l-397 -682l-60 -86l326 21l33 283h180v-270l182 12v-165h-182v-213 h-215v213h-483z" />
<glyph unicode="&#xbd;" horiz-adv-x="2443" d="M118 1463q317 71 447 172h4l108 -17v-945l267 1v-143h-799v143h296v717q-56 -18 -144.5 -35.5t-151.5 -22.5zM767 -145l736 1818l167 -26l-735 -1814zM1608 121q59 36 131.5 88t155.5 123.5t150 143t111.5 149t44.5 139.5q0 95 -54 135t-156 40q-84 0 -161 -37t-117 -79 l-81 98q45 64 161 124.5t245 60.5q88 0 156 -18.5t110 -48.5t69.5 -73t38 -88.5t10.5 -97.5q0 -86 -49 -177t-133.5 -174.5t-177 -153.5t-200.5 -135l600 64l2 -202h-810z" />
<glyph unicode="&#xbe;" horiz-adv-x="2449" d="M144 572l15 146q101 -40 211 -40q143 0 221 49t78 146q0 78 -52 122.5t-151 43.5l-114 -41l-37 138q80 17 148 49q67 35 102.5 73.5t35.5 90.5q0 64 -33 94t-123 30q-62 0 -128 -26.5t-107 -64.5l-66 123q52 51 153.5 91t206.5 40q152 0 238.5 -67.5t86.5 -177.5 q0 -206 -233 -290q87 6 149.5 -12.5t95.5 -55.5t47.5 -79t14.5 -91q0 -141 -134.5 -241.5t-353.5 -100.5q-158 0 -271 51zM767 -145l736 1818l167 -26l-735 -1814zM1458 303q2 3 108 213t207 410t117 236h201l42 -62l-397 -682l-60 -86l326 21l33 283h180v-270l182 12v-165 h-182v-213h-215v213h-483z" />
<glyph unicode="&#xbf;" horiz-adv-x="1055" d="M92 25q7 69 34.5 125.5t65 94t81.5 70t87 60.5t78.5 57t58.5 68.5t25 87.5q3 8 1 28.5t-1.5 27.5t-3.5 27.5t-5.5 27.5t-7 28t-7.5 29.5t-8.5 30.5t-9.5 32h223q79 -109 83 -261q1 -51 -18.5 -96t-52.5 -79.5t-73 -66.5t-81.5 -61.5t-76.5 -59t-59 -65.5t-29 -75 q-34 -156 55.5 -244t283.5 -88q118 0 211 36v-208q-27 -20 -112.5 -37t-164.5 -17q-157 0 -276.5 41t-189 112.5t-98.5 167t-13 207.5zM387 1165q-1 80 54 137.5t132 57.5q72 0 121 -50t50 -125q1 -77 -55 -135t-132 -58q-77 0 -122.5 49t-47.5 124z" />
<glyph unicode="&#xc0;" horiz-adv-x="1445" d="M9 0l552 1533h331l544 -1533h-316l-107 337h-585l-108 -337h-311zM355 1855l201 131q16 -47 302 -321l-129 -108q-67 23 -192 122t-182 176zM497 550h449l-174 550l-49 176l-49 -176z" />
<glyph unicode="&#xc1;" horiz-adv-x="1445" d="M9 0l552 1533h331l544 -1533h-316l-107 337h-585l-108 -337h-311zM497 550h449l-174 550l-49 176l-49 -176zM587 1665q286 274 302 321l201 -131q-69 -86 -184 -179.5t-190 -118.5z" />
<glyph unicode="&#xc2;" horiz-adv-x="1445" d="M9 0l552 1533h331l544 -1533h-316l-107 337h-585l-108 -337h-311zM343 1682l271 302h214l273 -300l-160 -87l-220 197l-222 -197zM497 550h449l-174 550l-49 176l-49 -176z" />
<glyph unicode="&#xc3;" horiz-adv-x="1445" d="M9 0l552 1533h331l544 -1533h-316l-107 337h-585l-108 -337h-311zM289 1759q28 84 113 146t181 62q49 0 88.5 -14t64.5 -34.5t46.5 -40.5t46.5 -34t54 -14q87 0 176 98l98 -103q-27 -82 -111.5 -146t-176.5 -64q-48 0 -87 14.5t-64.5 35.5t-48 42t-49 35.5t-55.5 14.5 q-86 0 -173 -101zM497 550h449l-174 550l-49 176l-49 -176z" />
<glyph unicode="&#xc4;" horiz-adv-x="1445" d="M9 0l552 1533h331l544 -1533h-316l-107 337h-585l-108 -337h-311zM292 1784q0 73 55 124.5t128 51.5q76 0 119 -43.5t43 -114.5q0 -74 -53.5 -124.5t-128.5 -50.5q-69 0 -116 44t-47 113zM497 550h449l-174 550l-49 176l-49 -176zM809 1784q0 72 55.5 124t127.5 52 q76 0 119.5 -43.5t43.5 -114.5q0 -74 -54 -124.5t-129 -50.5q-69 0 -116 44t-47 113z" />
<glyph unicode="&#xc5;" horiz-adv-x="1445" d="M9 0l522 1449q-75 35 -115.5 100t-39.5 153q1 74 31.5 129t80.5 85.5t108.5 45t124.5 14.5q160 0 251 -71t90 -206q-1 -171 -143 -243l517 -1456h-316l-107 337h-585l-108 -337h-311zM497 550h449l-174 550l-49 176l-49 -176zM556 1700q0 -65 44 -102t118 -38 q80 -1 123 30t43 107q0 66 -46 100.5t-120 35.5q-162 2 -162 -133z" />
<glyph unicode="&#xc6;" horiz-adv-x="1911" d="M-89 0l704 1522h1148v-224h-616v-407h458v-219h-458v-444h683v-228h-980v339h-464l-150 -339h-325zM480 551h370v825h-4z" />
<glyph unicode="&#xc7;" horiz-adv-x="1318" d="M87 755q0 187 59.5 338t161.5 247t235.5 147t285.5 51q76 0 146.5 -7.5t106 -15.5t83.5 -21t56 -15l-40 -259q-115 78 -328 78q-212 0 -337 -139.5t-125 -384.5q0 -255 121 -406t342 -151q104 0 207 29t143 66l1 -248q-164 -70 -323 -78q37 -80 32 -209 q-6 -121 -76.5 -181t-175.5 -60q-45 0 -96 8t-69 20l19 161q22 -14 78 -14q52 0 85.5 37.5t36.5 112.5q7 81 -11 131q-292 36 -455 239t-163 524z" />
<glyph unicode="&#xc8;" horiz-adv-x="1244" d="M183 0v1522h917v-224h-621v-407h463v-219h-463v-444h688v-228h-984zM322 1855l201 131q16 -47 302 -321l-129 -108q-67 23 -192 122t-182 176z" />
<glyph unicode="&#xc9;" horiz-adv-x="1244" d="M183 0v1522h917v-224h-621v-407h463v-219h-463v-444h688v-228h-984zM554 1665q286 274 302 321l201 -131q-69 -86 -184 -179.5t-190 -118.5z" />
<glyph unicode="&#xca;" horiz-adv-x="1244" d="M183 0v1522h917v-224h-621v-407h463v-219h-463v-444h688v-228h-984zM310 1682l271 302h214l273 -300l-160 -87l-220 197l-222 -197z" />
<glyph unicode="&#xcb;" horiz-adv-x="1244" d="M183 0v1522h917v-224h-621v-407h463v-219h-463v-444h688v-228h-984zM259 1784q0 73 55 124.5t128 51.5q76 0 119 -43.5t43 -114.5q0 -74 -53.5 -124.5t-128.5 -50.5q-69 0 -116 44t-47 113zM776 1784q0 72 55.5 124t127.5 52q76 0 119.5 -43.5t43.5 -114.5 q0 -74 -54 -124.5t-129 -50.5q-69 0 -116 44t-47 113z" />
<glyph unicode="&#xcc;" horiz-adv-x="693" d="M-19 1855l201 131q16 -47 302 -321l-129 -108q-67 23 -192 122t-182 176zM195 0v1522h303v-1522h-303z" />
<glyph unicode="&#xcd;" horiz-adv-x="693" d="M195 0v1522h303v-1522h-303zM212 1665q286 274 302 321l201 -131q-69 -86 -184 -179.5t-190 -118.5z" />
<glyph unicode="&#xce;" horiz-adv-x="693" d="M-31 1682l271 302h214l273 -300l-160 -87l-220 197l-222 -197zM195 0v1522h303v-1522h-303z" />
<glyph unicode="&#xcf;" horiz-adv-x="693" d="M-82 1784q0 73 55 124.5t128 51.5q76 0 119 -43.5t43 -114.5q0 -74 -53.5 -124.5t-128.5 -50.5q-69 0 -116 44t-47 113zM195 0v1522h303v-1522h-303zM435 1784q0 72 55.5 124t127.5 52q76 0 119.5 -43.5t43.5 -114.5q0 -74 -54 -124.5t-129 -50.5q-69 0 -116 44t-47 113z " />
<glyph unicode="&#xd0;" horiz-adv-x="1506" d="M62 698v192h121v632h115q38 0 186 8t214 8q367 0 548 -190t181 -546q0 -390 -198.5 -606t-554.5 -212q-56 0 -196 8t-204 8h-91v698h-121zM483 217q72 -17 220 -17q194 4 305 144t111 425q0 301 -111 429.5t-345 128.5q-116 0 -180 -14v-423h344v-192h-344v-481z" />
<glyph unicode="&#xd1;" horiz-adv-x="1588" d="M182 0v1522h278l589 -927l113 -222l-26 303v846h269v-1522h-288l-567 901l-127 239l28 -314v-826h-269zM375 1759q28 84 113 146t181 62q49 0 88.5 -14t64.5 -34.5t46.5 -40.5t46.5 -34t54 -14q87 0 176 98l98 -103q-27 -82 -111.5 -146t-176.5 -64q-48 0 -87 14.5 t-64.5 35.5t-48 42t-49 35.5t-55.5 14.5q-86 0 -173 -101z" />
<glyph unicode="&#xd2;" horiz-adv-x="1587" d="M98 771q4 192 60 339.5t153.5 239.5t225.5 139t281 49q314 3 496 -206.5t175 -569.5q-4 -192 -57 -340.5t-147 -242.5t-219 -143t-278 -52q-214 -4 -372.5 93.5t-240 277t-77.5 416.5zM402 758q0 -155 43 -277.5t133.5 -198.5t216.5 -76q183 0 286.5 143t103.5 424 q0 154 -40.5 274t-126.5 193t-207 73q-86 0 -158.5 -32t-129.5 -96.5t-89 -173.5t-32 -253zM452 1855l201 131q16 -47 302 -321l-129 -108q-67 23 -192 122t-182 176z" />
<glyph unicode="&#xd3;" horiz-adv-x="1587" d="M98 771q4 192 60 339.5t153.5 239.5t225.5 139t281 49q314 3 496 -206.5t175 -569.5q-4 -192 -57 -340.5t-147 -242.5t-219 -143t-278 -52q-214 -4 -372.5 93.5t-240 277t-77.5 416.5zM402 758q0 -155 43 -277.5t133.5 -198.5t216.5 -76q183 0 286.5 143t103.5 424 q0 154 -40.5 274t-126.5 193t-207 73q-86 0 -158.5 -32t-129.5 -96.5t-89 -173.5t-32 -253zM684 1665q286 274 302 321l201 -131q-69 -86 -184 -179.5t-190 -118.5z" />
<glyph unicode="&#xd4;" horiz-adv-x="1587" d="M98 771q4 192 60 339.5t153.5 239.5t225.5 139t281 49q314 3 496 -206.5t175 -569.5q-4 -192 -57 -340.5t-147 -242.5t-219 -143t-278 -52q-214 -4 -372.5 93.5t-240 277t-77.5 416.5zM402 758q0 -155 43 -277.5t133.5 -198.5t216.5 -76q183 0 286.5 143t103.5 424 q0 154 -40.5 274t-126.5 193t-207 73q-86 0 -158.5 -32t-129.5 -96.5t-89 -173.5t-32 -253zM441 1682l271 302h214l273 -300l-160 -87l-220 197l-222 -197z" />
<glyph unicode="&#xd5;" horiz-adv-x="1587" d="M98 771q4 192 60 339.5t153.5 239.5t225.5 139t281 49q314 3 496 -206.5t175 -569.5q-4 -192 -57 -340.5t-147 -242.5t-219 -143t-278 -52q-214 -4 -372.5 93.5t-240 277t-77.5 416.5zM386 1759q28 84 113 146t181 62q49 0 88.5 -14t64.5 -34.5t46.5 -40.5t46.5 -34 t54 -14q87 0 176 98l98 -103q-27 -82 -111.5 -146t-176.5 -64q-48 0 -87 14.5t-64.5 35.5t-48 42t-49 35.5t-55.5 14.5q-86 0 -173 -101zM402 758q0 -155 43 -277.5t133.5 -198.5t216.5 -76q183 0 286.5 143t103.5 424q0 154 -40.5 274t-126.5 193t-207 73q-86 0 -158.5 -32 t-129.5 -96.5t-89 -173.5t-32 -253z" />
<glyph unicode="&#xd6;" horiz-adv-x="1587" d="M98 771q4 192 60 339.5t153.5 239.5t225.5 139t281 49q314 3 496 -206.5t175 -569.5q-4 -192 -57 -340.5t-147 -242.5t-219 -143t-278 -52q-214 -4 -372.5 93.5t-240 277t-77.5 416.5zM390 1784q0 73 55 124.5t128 51.5q76 0 119 -43.5t43 -114.5q0 -74 -53.5 -124.5 t-128.5 -50.5q-69 0 -116 44t-47 113zM402 758q0 -155 43 -277.5t133.5 -198.5t216.5 -76q183 0 286.5 143t103.5 424q0 154 -40.5 274t-126.5 193t-207 73q-86 0 -158.5 -32t-129.5 -96.5t-89 -173.5t-32 -253zM907 1784q0 72 55.5 124t127.5 52q76 0 119.5 -43.5 t43.5 -114.5q0 -74 -54 -124.5t-129 -50.5q-69 0 -116 44t-47 113z" />
<glyph unicode="&#xd7;" horiz-adv-x="1389" d="M200 418l359 356l-359 367l154 151l342 -376l342 376l153 -151l-359 -364l359 -359l-153 -153l-342 366l-342 -366z" />
<glyph unicode="&#xd8;" horiz-adv-x="1587" d="M98 771q4 192 60 339.5t153.5 239.5t225.5 139t281 49q92 0 173 -18l91 253l133 -32l-95 -264q179 -83 276 -268.5t93 -446.5q-4 -192 -57 -340.5t-147 -242.5t-219 -143t-278 -52q-103 -1 -197 20l-79 -221l-132 30l85 237q-179 88 -275.5 276.5t-91.5 444.5zM402 758 q0 -144 39 -263t114 -193l357 996q-52 15 -101 15q-86 0 -158.5 -32t-129.5 -96.5t-89 -173.5t-32 -253zM671 227q57 -21 124 -21q183 0 286.5 143t103.5 424q0 147 -39.5 266.5t-114.5 189.5z" />
<glyph unicode="&#xd9;" horiz-adv-x="1501" d="M150 628l1 894h298l-2 -830q0 -138 19.5 -231.5t61.5 -147t98 -75.5t136 -22q73 0 125 22t91.5 75t58.5 147t19 232v830h296v-895q0 -643 -588 -643q-617 0 -614 644zM391 1855l201 131q16 -47 302 -321l-129 -108q-67 23 -192 122t-182 176z" />
<glyph unicode="&#xda;" horiz-adv-x="1501" d="M150 628l1 894h298l-2 -830q0 -138 19.5 -231.5t61.5 -147t98 -75.5t136 -22q73 0 125 22t91.5 75t58.5 147t19 232v830h296v-895q0 -643 -588 -643q-617 0 -614 644zM623 1665q286 274 302 321l201 -131q-69 -86 -184 -179.5t-190 -118.5z" />
<glyph unicode="&#xdb;" horiz-adv-x="1501" d="M150 628l1 894h298l-2 -830q0 -138 19.5 -231.5t61.5 -147t98 -75.5t136 -22q73 0 125 22t91.5 75t58.5 147t19 232v830h296v-895q0 -643 -588 -643q-617 0 -614 644zM379 1682l271 302h214l273 -300l-160 -87l-220 197l-222 -197z" />
<glyph unicode="&#xdc;" horiz-adv-x="1501" d="M150 628l1 894h298l-2 -830q0 -138 19.5 -231.5t61.5 -147t98 -75.5t136 -22q73 0 125 22t91.5 75t58.5 147t19 232v830h296v-895q0 -643 -588 -643q-617 0 -614 644zM328 1784q0 73 55 124.5t128 51.5q76 0 119 -43.5t43 -114.5q0 -74 -53.5 -124.5t-128.5 -50.5 q-69 0 -116 44t-47 113zM845 1784q0 72 55.5 124t127.5 52q76 0 119.5 -43.5t43.5 -114.5q0 -74 -54 -124.5t-129 -50.5q-69 0 -116 44t-47 113z" />
<glyph unicode="&#xdd;" horiz-adv-x="1297" d="M0 1522h322l280 -565l58 -151l49 151l274 565h314l-494 -946v-576h-306v575zM532 1665q286 274 302 321l201 -131q-69 -86 -184 -179.5t-190 -118.5z" />
<glyph unicode="&#xde;" horiz-adv-x="1321" d="M183 0v1522h300v-258q216 12 237 12q260 0 396.5 -122t136.5 -357q0 -254 -146 -395.5t-419 -141.5q-37 0 -205 8v-268h-300zM483 473q54 -7 144 -7q72 0 127.5 14t103.5 48t74 99t26 158q0 289 -331 280q-84 -2 -144 -15v-577z" />
<glyph unicode="&#xdf;" horiz-adv-x="1324" d="M34 939v169l151 38q30 148 116 247t202.5 142.5t262.5 43.5q183 0 296 -78t113 -206q0 -55 -16.5 -102t-40.5 -78t-53 -61t-53 -52.5t-40.5 -51.5t-16.5 -60q0 -45 35 -88.5t84.5 -84.5t99 -89t84.5 -121.5t35 -162.5q0 -80 -24 -143.5t-63.5 -103.5t-95 -66 t-113.5 -36.5t-124 -10.5q-72 0 -139.5 10.5t-95.5 24.5v206q82 -45 195 -45q67 0 112.5 35t45.5 114q-1 55 -32 103.5t-75 88.5t-88 83t-75 106.5t-31 139.5q0 51 21 95.5t51 77.5l60 66t51 75.5t21 91.5q0 63 -45 98t-127 35q-60 0 -106 -22t-82 -71.5t-54.5 -136.5 t-18.5 -209v-950h-292v939h-135z" />
<glyph unicode="&#xe0;" horiz-adv-x="1193" d="M87 315q0 104 58 183t161 122q179 73 447 73v100q0 96 -49.5 127t-174.5 31q-78 0 -179.5 -25t-153.5 -57l-63 174q58 36 195.5 75t267.5 39q232 0 339.5 -87t107.5 -303v-783h-155q-34 0 -51.5 2.5t-34.5 12.5t-24 31.5t-7 57.5v8q-54 -47 -139.5 -79.5t-188.5 -32.5 q-159 0 -257.5 90t-98.5 241zM180 1645l196 158q197 -270 340 -424l-137 -120q-71 35 -211 167t-188 219zM376 342q0 -83 46 -125t130 -42q58 0 119.5 22t81.5 42v302q-66 0 -142.5 -12t-123.5 -34q-53 -25 -82 -60t-29 -93z" />
<glyph unicode="&#xe1;" horiz-adv-x="1193" d="M87 315q0 104 58 183t161 122q179 73 447 73v100q0 96 -49.5 127t-174.5 31q-78 0 -179.5 -25t-153.5 -57l-63 174q58 36 195.5 75t267.5 39q232 0 339.5 -87t107.5 -303v-783h-155q-34 0 -51.5 2.5t-34.5 12.5t-24 31.5t-7 57.5v8q-54 -47 -139.5 -79.5t-188.5 -32.5 q-159 0 -257.5 90t-98.5 241zM376 342q0 -83 46 -125t130 -42q58 0 119.5 22t81.5 42v302q-66 0 -142.5 -12t-123.5 -34q-53 -25 -82 -60t-29 -93zM450 1391q226 249 338 412l195 -158q-40 -78 -183.5 -211.5t-209.5 -162.5z" />
<glyph unicode="&#xe2;" horiz-adv-x="1193" d="M87 315q0 104 58 183t161 122q179 73 447 73v100q0 96 -49.5 127t-174.5 31q-78 0 -179.5 -25t-153.5 -57l-63 174q58 36 195.5 75t267.5 39q232 0 339.5 -87t107.5 -303v-783h-155q-34 0 -51.5 2.5t-34.5 12.5t-24 31.5t-7 57.5v8q-54 -47 -139.5 -79.5t-188.5 -32.5 q-159 0 -257.5 90t-98.5 241zM200 1370l293 342h205l289 -342l-155 -84l-236 215l-246 -215zM376 342q0 -83 46 -125t130 -42q58 0 119.5 22t81.5 42v302q-66 0 -142.5 -12t-123.5 -34q-53 -25 -82 -60t-29 -93z" />
<glyph unicode="&#xe3;" horiz-adv-x="1193" d="M87 315q0 104 58 183t161 122q179 73 447 73v100q0 96 -49.5 127t-174.5 31q-78 0 -179.5 -25t-153.5 -57l-63 174q58 36 195.5 75t267.5 39q232 0 339.5 -87t107.5 -303v-783h-155q-34 0 -51.5 2.5t-34.5 12.5t-24 31.5t-7 57.5v8q-54 -47 -139.5 -79.5t-188.5 -32.5 q-159 0 -257.5 90t-98.5 241zM154 1454q29 82 108.5 145t179.5 63q51 0 92 -14t66.5 -34t48 -40t48.5 -34t55 -14q97 0 184 98l98 -104q-31 -84 -108.5 -146.5t-174.5 -62.5q-51 0 -92 14t-67 34.5t-48.5 40.5t-49 34t-56.5 14q-95 0 -181 -97zM376 342q0 -83 46 -125 t130 -42q58 0 119.5 22t81.5 42v302q-66 0 -142.5 -12t-123.5 -34q-53 -25 -82 -60t-29 -93z" />
<glyph unicode="&#xe4;" horiz-adv-x="1193" d="M87 315q0 104 58 183t161 122q179 73 447 73v100q0 96 -49.5 127t-174.5 31q-78 0 -179.5 -25t-153.5 -57l-63 174q58 36 195.5 75t267.5 39q232 0 339.5 -87t107.5 -303v-783h-155q-34 0 -51.5 2.5t-34.5 12.5t-24 31.5t-7 57.5v8q-54 -47 -139.5 -79.5t-188.5 -32.5 q-159 0 -257.5 90t-98.5 241zM181 1483q0 72 54.5 123.5t125.5 51.5q74 0 115.5 -43.5t41.5 -114.5q0 -73 -53 -124t-125 -51q-69 0 -114 44t-45 114zM376 342q0 -83 46 -125t130 -42q58 0 119.5 22t81.5 42v302q-66 0 -142.5 -12t-123.5 -34q-53 -25 -82 -60t-29 -93z M672 1483q0 72 54.5 123.5t125.5 51.5q73 0 115 -43.5t42 -114.5q0 -73 -53 -124t-125 -51q-69 0 -114 44t-45 114z" />
<glyph unicode="&#xe5;" horiz-adv-x="1193" d="M87 315q0 104 58 183t161 122q179 73 447 73v100q0 96 -49.5 127t-174.5 31q-78 0 -179.5 -25t-153.5 -57l-63 174q58 36 195.5 75t267.5 39q232 0 339.5 -87t107.5 -303v-783h-155q-34 0 -51.5 2.5t-34.5 12.5t-24 31.5t-7 57.5v8q-54 -47 -139.5 -79.5t-188.5 -32.5 q-159 0 -257.5 90t-98.5 241zM252 1609q1 74 31.5 130t80.5 88.5t108.5 48t124.5 15.5q159 0 250.5 -75t90.5 -211q-1 -98 -50.5 -166.5t-125 -98.5t-170.5 -30q-157 0 -249.5 81.5t-90.5 217.5zM376 342q0 -83 46 -125t130 -42q58 0 119.5 22t81.5 42v302q-66 0 -142.5 -12 t-123.5 -34q-53 -25 -82 -60t-29 -93zM432 1607q0 -66 44.5 -107.5t117.5 -42.5q166 -2 166 147q0 67 -46.5 105t-119.5 39q-70 1 -116 -32.5t-46 -108.5z" />
<glyph unicode="&#xe6;" horiz-adv-x="1825" d="M91 315q0 104 58.5 183t159.5 122q174 73 444 73v99q0 93 -51.5 124.5t-169.5 31.5q-79 0 -181.5 -28t-147.5 -56l-66 179q57 32 195 73t280 41q125 0 205.5 -26.5t125.5 -91.5q139 116 347 117q72 1 135.5 -14t120 -49.5t97.5 -85.5t65.5 -127t26.5 -171 q0 -140 -11 -201h-687q4 -90 28 -152t67.5 -96.5t97.5 -49t126 -14.5q74 0 165.5 18.5t131.5 41.5l49 -160q-58 -47 -175 -79.5t-241 -32.5q-279 0 -416 176q-75 -88 -185 -132t-236 -44q-159 0 -258.5 90t-99.5 241zM382 342q0 -167 171 -167q69 0 141 30t106 81 q-42 109 -47 255q-167 0 -263 -46q-52 -24 -80 -59.5t-28 -93.5zM1042 668h425q16 299 -188 299q-208 0 -237 -299z" />
<glyph unicode="&#xe7;" horiz-adv-x="1020" d="M91 560q0 127 35 234.5t103 188.5t177 127t249 46q104 0 186.5 -18t112.5 -40l-38 -221q-89 59 -246 59q-117 0 -200 -85.5t-88 -261.5q-5 -191 77.5 -290t214.5 -99q147 0 253 57l45 -161q-40 -40 -115 -68.5t-163 -38.5q40 -83 33 -212q-6 -121 -76.5 -181t-175.5 -60 q-45 0 -96 8t-69 20l19 161q22 -14 78 -14q52 0 85.5 37.5t36.5 112.5q7 81 -11 130q-206 31 -316.5 185.5t-110.5 383.5z" />
<glyph unicode="&#xe8;" horiz-adv-x="1170" d="M91 574q0 256 143 418t397 164q91 1 169 -24t141 -76.5t100 -140t39 -206.5q0 -143 -11 -204h-691q8 -169 91.5 -241t230.5 -72q74 0 164.5 19t131.5 42l49 -157q-58 -47 -175.5 -79.5t-241.5 -32.5q-257 0 -397 155.5t-140 434.5zM209 1645l196 158q197 -270 340 -424 l-137 -120q-71 35 -211 167t-188 219zM383 668h427q16 299 -189 299q-207 0 -238 -299z" />
<glyph unicode="&#xe9;" horiz-adv-x="1170" d="M91 574q0 256 143 418t397 164q91 1 169 -24t141 -76.5t100 -140t39 -206.5q0 -143 -11 -204h-691q8 -169 91.5 -241t230.5 -72q74 0 164.5 19t131.5 42l49 -157q-58 -47 -175.5 -79.5t-241.5 -32.5q-257 0 -397 155.5t-140 434.5zM383 668h427q16 299 -189 299 q-207 0 -238 -299zM479 1391q226 249 338 412l195 -158q-40 -78 -183.5 -211.5t-209.5 -162.5z" />
<glyph unicode="&#xea;" horiz-adv-x="1170" d="M91 574q0 256 143 418t397 164q91 1 169 -24t141 -76.5t100 -140t39 -206.5q0 -143 -11 -204h-691q8 -169 91.5 -241t230.5 -72q74 0 164.5 19t131.5 42l49 -157q-58 -47 -175.5 -79.5t-241.5 -32.5q-257 0 -397 155.5t-140 434.5zM229 1370l293 342h205l289 -342 l-155 -84l-236 215l-246 -215zM383 668h427q16 299 -189 299q-207 0 -238 -299z" />
<glyph unicode="&#xeb;" horiz-adv-x="1170" d="M91 574q0 256 143 418t397 164q91 1 169 -24t141 -76.5t100 -140t39 -206.5q0 -143 -11 -204h-691q8 -169 91.5 -241t230.5 -72q74 0 164.5 19t131.5 42l49 -157q-58 -47 -175.5 -79.5t-241.5 -32.5q-257 0 -397 155.5t-140 434.5zM210 1483q0 72 54.5 123.5t125.5 51.5 q74 0 115.5 -43.5t41.5 -114.5q0 -73 -53 -124t-125 -51q-69 0 -114 44t-45 114zM383 668h427q16 299 -189 299q-207 0 -238 -299zM701 1483q0 72 54.5 123.5t125.5 51.5q73 0 115 -43.5t42 -114.5q0 -73 -53 -124t-125 -51q-69 0 -114 44t-45 114z" />
<glyph unicode="&#xec;" horiz-adv-x="649" d="M-91 1645l196 158q197 -270 340 -424l-137 -120q-71 35 -211 167t-188 219zM178 0v1139h293v-1139h-293z" />
<glyph unicode="&#xed;" horiz-adv-x="649" d="M178 0v1139h293v-1139h-293zM179 1391q226 249 338 412l195 -158q-40 -78 -183.5 -211.5t-209.5 -162.5z" />
<glyph unicode="&#xee;" horiz-adv-x="649" d="M-71 1370l293 342h205l289 -342l-155 -84l-236 215l-246 -215zM178 0v1139h293v-1139h-293z" />
<glyph unicode="&#xef;" horiz-adv-x="649" d="M-89 1483q0 72 54.5 123.5t125.5 51.5q74 0 115.5 -43.5t41.5 -114.5q0 -73 -53 -124t-125 -51q-69 0 -114 44t-45 114zM178 0v1139h293v-1139h-293zM402 1483q0 72 54.5 123.5t125.5 51.5q73 0 115 -43.5t42 -114.5q0 -73 -53 -124t-125 -51q-69 0 -114 44t-45 114z" />
<glyph unicode="&#xf0;" horiz-adv-x="1246" d="M89 552q0 269 141.5 435t377.5 166q123 -1 209 -61q-71 190 -248 343l-130 -154l-137 104l132 150q-112 71 -213 105l58 152q157 -47 278 -116q26 31 59 72.5t53 67.5l20 26l139 -104q-70 -86 -129 -152q227 -166 352 -415.5t125 -539.5q0 -168 -41.5 -296t-116 -205.5 t-172 -116.5t-216.5 -40q-248 -1 -394.5 156.5t-146.5 422.5zM388 549q0 -177 65.5 -279t183.5 -102q110 0 178.5 106.5t68.5 298.5q0 222 -4 270q-15 46 -76.5 80t-159.5 34q-125 0 -190.5 -108t-65.5 -300z" />
<glyph unicode="&#xf1;" horiz-adv-x="1326" d="M169 0v1139h264l5 -121q72 56 180 97t210 42q180 3 259 -98t79 -345v-714h-291v695q0 135 -38 187.5t-145 47.5q-52 -2 -116 -26.5t-115 -64.5v-839h-292zM298 1454q29 82 108.5 145t179.5 63q51 0 92 -14t66.5 -34t48 -40t48.5 -34t55 -14q97 0 184 98l98 -104 q-31 -84 -108.5 -146.5t-174.5 -62.5q-51 0 -92 14t-67 34.5t-48.5 40.5t-49 34t-56.5 14q-95 0 -181 -97z" />
<glyph unicode="&#xf2;" horiz-adv-x="1265" d="M91 593q4 268 155.5 415.5t395.5 147.5q114 0 206 -32.5t152.5 -88t101 -133.5t57.5 -166t15 -189q-3 -179 -75 -307.5t-194.5 -192t-282.5 -63.5q-114 0 -205.5 32.5t-152 88t-101 133.5t-57.5 166t-15 189zM225 1645l196 158q197 -270 340 -424l-137 -120 q-71 35 -211 167t-188 219zM390 587q0 -116 23.5 -203.5t78.5 -142.5t137 -56q246 -3 246 375q0 85 -13.5 154.5t-41 123.5t-74 84t-109.5 31q-247 3 -247 -366z" />
<glyph unicode="&#xf3;" horiz-adv-x="1265" d="M91 593q4 268 155.5 415.5t395.5 147.5q114 0 206 -32.5t152.5 -88t101 -133.5t57.5 -166t15 -189q-3 -179 -75 -307.5t-194.5 -192t-282.5 -63.5q-114 0 -205.5 32.5t-152 88t-101 133.5t-57.5 166t-15 189zM390 587q0 -116 23.5 -203.5t78.5 -142.5t137 -56 q246 -3 246 375q0 85 -13.5 154.5t-41 123.5t-74 84t-109.5 31q-247 3 -247 -366zM495 1391q226 249 338 412l195 -158q-40 -78 -183.5 -211.5t-209.5 -162.5z" />
<glyph unicode="&#xf4;" horiz-adv-x="1265" d="M91 593q4 268 155.5 415.5t395.5 147.5q114 0 206 -32.5t152.5 -88t101 -133.5t57.5 -166t15 -189q-3 -179 -75 -307.5t-194.5 -192t-282.5 -63.5q-114 0 -205.5 32.5t-152 88t-101 133.5t-57.5 166t-15 189zM245 1370l293 342h205l289 -342l-155 -84l-236 215l-246 -215 zM390 587q0 -116 23.5 -203.5t78.5 -142.5t137 -56q246 -3 246 375q0 85 -13.5 154.5t-41 123.5t-74 84t-109.5 31q-247 3 -247 -366z" />
<glyph unicode="&#xf5;" horiz-adv-x="1265" d="M91 593q4 268 155.5 415.5t395.5 147.5q114 0 206 -32.5t152.5 -88t101 -133.5t57.5 -166t15 -189q-3 -179 -75 -307.5t-194.5 -192t-282.5 -63.5q-114 0 -205.5 32.5t-152 88t-101 133.5t-57.5 166t-15 189zM199 1454q29 82 108.5 145t179.5 63q51 0 92 -14t66.5 -34 t48 -40t48.5 -34t55 -14q97 0 184 98l98 -104q-31 -84 -108.5 -146.5t-174.5 -62.5q-51 0 -92 14t-67 34.5t-48.5 40.5t-49 34t-56.5 14q-95 0 -181 -97zM390 587q0 -116 23.5 -203.5t78.5 -142.5t137 -56q246 -3 246 375q0 85 -13.5 154.5t-41 123.5t-74 84t-109.5 31 q-247 3 -247 -366z" />
<glyph unicode="&#xf6;" horiz-adv-x="1265" d="M91 593q4 268 155.5 415.5t395.5 147.5q114 0 206 -32.5t152.5 -88t101 -133.5t57.5 -166t15 -189q-3 -179 -75 -307.5t-194.5 -192t-282.5 -63.5q-114 0 -205.5 32.5t-152 88t-101 133.5t-57.5 166t-15 189zM226 1483q0 72 54.5 123.5t125.5 51.5q74 0 115.5 -43.5 t41.5 -114.5q0 -73 -53 -124t-125 -51q-69 0 -114 44t-45 114zM390 587q0 -116 23.5 -203.5t78.5 -142.5t137 -56q246 -3 246 375q0 85 -13.5 154.5t-41 123.5t-74 84t-109.5 31q-247 3 -247 -366zM717 1483q0 72 54.5 123.5t125.5 51.5q73 0 115 -43.5t42 -114.5 q0 -73 -53 -124t-125 -51q-69 0 -114 44t-45 114z" />
<glyph unicode="&#xf7;" horiz-adv-x="1406" d="M212 666v216h983v-216h-983zM537 336q1 77 58 132.5t133 55.5q79 0 124 -47t45 -121q0 -79 -56 -133t-134 -54q-73 0 -121.5 46.5t-48.5 120.5zM538 1200q0 76 57 131.5t134 55.5q79 0 124 -47.5t45 -121.5q0 -78 -56 -132.5t-134 -54.5q-73 0 -121.5 47.5t-48.5 121.5z " />
<glyph unicode="&#xf8;" horiz-adv-x="1269" d="M91 593q4 268 155.5 415.5t395.5 147.5q62 0 122 -11l76 217l131 -32l-79 -224q147 -68 215.5 -216t66.5 -343q-3 -179 -75 -307.5t-194.5 -192t-282.5 -63.5q-57 0 -119 10l-74 -211l-129 30l76 219q-148 67 -218 216t-67 345zM381 587q0 -207 79 -314l234 672 q-29 8 -57 8q-128 1 -192 -92t-64 -274zM572 192q25 -7 57 -7q127 -1 191.5 94t64.5 281q0 200 -77 305z" />
<glyph unicode="&#xf9;" horiz-adv-x="1304" d="M157 471v669h292v-677q0 -85 9.5 -136.5t33.5 -78.5t54.5 -36t82.5 -9q55 0 118 21t96 45v871h292v-1156h-168q-51 0 -73 14.5t-22 64.5v32q-68 -46 -170 -78.5t-187 -32.5q-90 0 -154.5 24t-103.5 64.5t-62 105t-30.5 132.5t-7.5 161zM242 1645l196 158 q197 -270 340 -424l-137 -120q-71 35 -211 167t-188 219z" />
<glyph unicode="&#xfa;" horiz-adv-x="1304" d="M157 471v669h292v-677q0 -85 9.5 -136.5t33.5 -78.5t54.5 -36t82.5 -9q55 0 118 21t96 45v871h292v-1156h-168q-51 0 -73 14.5t-22 64.5v32q-68 -46 -170 -78.5t-187 -32.5q-90 0 -154.5 24t-103.5 64.5t-62 105t-30.5 132.5t-7.5 161zM513 1391q226 249 338 412 l195 -158q-40 -78 -183.5 -211.5t-209.5 -162.5z" />
<glyph unicode="&#xfb;" horiz-adv-x="1304" d="M157 471v669h292v-677q0 -85 9.5 -136.5t33.5 -78.5t54.5 -36t82.5 -9q55 0 118 21t96 45v871h292v-1156h-168q-51 0 -73 14.5t-22 64.5v32q-68 -46 -170 -78.5t-187 -32.5q-90 0 -154.5 24t-103.5 64.5t-62 105t-30.5 132.5t-7.5 161zM262 1370l293 342h205l289 -342 l-155 -84l-236 215l-246 -215z" />
<glyph unicode="&#xfc;" horiz-adv-x="1304" d="M157 471v669h292v-677q0 -85 9.5 -136.5t33.5 -78.5t54.5 -36t82.5 -9q55 0 118 21t96 45v871h292v-1156h-168q-51 0 -73 14.5t-22 64.5v32q-68 -46 -170 -78.5t-187 -32.5q-90 0 -154.5 24t-103.5 64.5t-62 105t-30.5 132.5t-7.5 161zM244 1483q0 72 54.5 123.5 t125.5 51.5q74 0 115.5 -43.5t41.5 -114.5q0 -73 -53 -124t-125 -51q-69 0 -114 44t-45 114zM735 1483q0 72 54.5 123.5t125.5 51.5q73 0 115 -43.5t42 -114.5q0 -73 -53 -124t-125 -51q-69 0 -114 44t-45 114z" />
<glyph unicode="&#xfd;" horiz-adv-x="1157" d="M22 1140h306l222 -714l59 -210l52 210l185 714h306l-379 -1172q-119 -370 -351 -450q-66 -25 -155 -25q-27 0 -77.5 5.5t-58.5 10.5v225q47 -15 109 -15q38 0 75 12t78.5 40.5t76 87t54.5 141.5h-92zM460 1391q226 249 338 412l195 -158q-40 -78 -183.5 -211.5 t-209.5 -162.5z" />
<glyph unicode="&#xfe;" horiz-adv-x="1304" d="M162 -507v2168h292v-442l-8 -184q126 121 317 121q93 0 173 -33.5t142.5 -99t98.5 -171t36 -240.5q0 -284 -160.5 -457t-427.5 -173q-85 0 -182 13l11 -164v-338h-292zM454 221q47 -36 181 -36q122 0 199 105.5t79 295.5q3 348 -245 348q-109 0 -214 -78v-635z" />
<glyph unicode="&#xff;" horiz-adv-x="1157" d="M22 1140h306l222 -714l59 -210l52 210l185 714h306l-379 -1172q-119 -370 -351 -450q-66 -25 -155 -25q-27 0 -77.5 5.5t-58.5 10.5v225q47 -15 109 -15q38 0 75 12t78.5 40.5t76 87t54.5 141.5h-92zM192 1483q0 72 54.5 123.5t125.5 51.5q74 0 115.5 -43.5t41.5 -114.5 q0 -73 -53 -124t-125 -51q-69 0 -114 44t-45 114zM683 1483q0 72 54.5 123.5t125.5 51.5q73 0 115 -43.5t42 -114.5q0 -73 -53 -124t-125 -51q-69 0 -114 44t-45 114z" />
<glyph unicode="&#x152;" horiz-adv-x="2105" d="M97 769q4 191 58 337.5t149.5 239t221.5 140.5t279 52q138 2 239 -51v35h913v-224h-617v-407h458v-219h-458v-444h684v-228h-980v55q-115 -68 -275 -71q-209 -3 -364 97.5t-233.5 279t-74.5 408.5zM400 758q0 -247 104.5 -398t291.5 -151q160 0 248 85v944 q-83 70 -226 70q-64 0 -121.5 -16t-112.5 -55.5t-95 -100.5t-64.5 -158t-24.5 -220z" />
<glyph unicode="&#x153;" horiz-adv-x="1960" d="M91 593q4 267 157 415t396 148q254 0 392 -158q142 155 388 158q91 1 168.5 -24t140 -76.5t99 -140t38.5 -206.5q0 -140 -11 -201h-687q7 -170 89 -241t229 -71q75 0 166.5 18.5t131.5 41.5l49 -160q-58 -47 -175 -79.5t-240 -32.5q-257 0 -396 157q-149 -157 -404 -157 q-114 0 -205 32t-152 88t-101 134t-57.5 166.5t-15.5 188.5zM392 587q0 -116 23.5 -203.5t78 -142.5t135.5 -56q248 -3 248 375q0 115 -23 200t-78 138.5t-138 54.5q-246 3 -246 -366zM1177 668h425q16 299 -188 299q-208 0 -237 -299z" />
<glyph unicode="&#x178;" horiz-adv-x="1297" d="M0 1522h322l280 -565l58 -151l49 151l274 565h314l-494 -946v-576h-306v575zM238 1784q0 73 55 124.5t128 51.5q76 0 119 -43.5t43 -114.5q0 -74 -53.5 -124.5t-128.5 -50.5q-69 0 -116 44t-47 113zM755 1784q0 72 55.5 124t127.5 52q76 0 119.5 -43.5t43.5 -114.5 q0 -74 -54 -124.5t-129 -50.5q-69 0 -116 44t-47 113z" />
<glyph unicode="&#x2c6;" horiz-adv-x="861" d="M37 1370l293 342h205l289 -342l-155 -84l-236 215l-246 -215z" />
<glyph unicode="&#x2dc;" horiz-adv-x="927" d="M24 1454q29 82 108.5 145t179.5 63q51 0 92 -14t66.5 -34t48 -40t48.5 -34t55 -14q97 0 184 98l98 -104q-31 -84 -108.5 -146.5t-174.5 -62.5q-51 0 -92 14t-67 34.5t-48.5 40.5t-49 34t-56.5 14q-95 0 -181 -97z" />
<glyph unicode="&#x2000;" horiz-adv-x="999" />
<glyph unicode="&#x2001;" horiz-adv-x="1999" />
<glyph unicode="&#x2002;" horiz-adv-x="999" />
<glyph unicode="&#x2003;" horiz-adv-x="1999" />
<glyph unicode="&#x2004;" horiz-adv-x="666" />
<glyph unicode="&#x2005;" horiz-adv-x="499" />
<glyph unicode="&#x2006;" horiz-adv-x="333" />
<glyph unicode="&#x2007;" horiz-adv-x="333" />
<glyph unicode="&#x2008;" horiz-adv-x="249" />
<glyph unicode="&#x2009;" horiz-adv-x="399" />
<glyph unicode="&#x200a;" horiz-adv-x="111" />
<glyph unicode="&#x2010;" horiz-adv-x="1351" d="M251 658v222h850v-222h-850z" />
<glyph unicode="&#x2011;" horiz-adv-x="1351" d="M251 658v222h850v-222h-850z" />
<glyph unicode="&#x2012;" horiz-adv-x="1351" d="M251 658v222h850v-222h-850z" />
<glyph unicode="&#x2013;" horiz-adv-x="1699" d="M244 658v222h1212v-222h-1212z" />
<glyph unicode="&#x2014;" horiz-adv-x="2371" d="M244 658v222h1883v-222h-1883z" />
<glyph unicode="&#x2018;" horiz-adv-x="580" d="M109 1317q0 70 15 135t37 111t51 85.5t54 62.5t48 38l125 -77v-31q-35 -32 -57 -104.5t-22 -153.5t33 -145t72 -84v-71l-151 -147q-84 31 -144.5 135.5t-60.5 245.5z" />
<glyph unicode="&#x2019;" horiz-adv-x="580" d="M120 1539v70l175 140q70 -32 118.5 -121.5t48.5 -227.5q0 -97 -20.5 -181t-53 -139t-61.5 -89t-58 -55l-122 77v32q28 32 46.5 104.5t18.5 152.5q0 84 -29 150t-63 87z" />
<glyph unicode="&#x201a;" horiz-adv-x="580" d="M120 60v70l175 140q70 -32 118.5 -121.5t48.5 -227.5q0 -97 -20.5 -181t-53 -139t-61.5 -89t-58 -55l-122 77v32q28 32 46.5 104.5t18.5 152.5q0 84 -29 150t-63 87z" />
<glyph unicode="&#x201c;" horiz-adv-x="1113" d="M109 1317q0 70 15 135t37 111t51 85.5t54 62.5t48 38l125 -77v-31q-35 -32 -57 -104.5t-22 -153.5t33 -145t72 -84v-71l-151 -147q-84 31 -144.5 135.5t-60.5 245.5zM646 1317q0 70 15 135t37 111t51 85.5t54 62.5t48 38l125 -77v-31q-35 -32 -57 -104.5t-22 -153.5 t33 -145t72 -84v-71l-151 -147q-84 31 -144.5 135.5t-60.5 245.5z" />
<glyph unicode="&#x201d;" horiz-adv-x="1116" d="M120 1539v70l175 140q70 -32 118.5 -121.5t48.5 -227.5q0 -97 -20.5 -181t-53 -139t-61.5 -89t-58 -55l-122 77v32q28 32 46.5 104.5t18.5 152.5q0 84 -29 150t-63 87zM660 1539v70l175 140q70 -32 118.5 -121.5t48.5 -227.5q0 -97 -20.5 -181t-53 -139t-61.5 -89 t-58 -55l-122 77v32q28 32 46.5 104.5t18.5 152.5q0 84 -29 150t-63 87z" />
<glyph unicode="&#x201e;" horiz-adv-x="1110" d="M120 75v70l175 140q70 -32 118.5 -121.5t48.5 -227.5q0 -97 -20.5 -181t-53 -139t-61.5 -89t-58 -55l-122 77v32q28 32 46.5 104.5t18.5 152.5q0 84 -29 150t-63 87zM652 75v70l175 140q70 -32 118.5 -121.5t48.5 -227.5q0 -97 -20.5 -181t-53 -139t-61.5 -89t-58 -55 l-122 77v32q28 32 46.5 104.5t18.5 152.5q0 84 -29 150t-63 87z" />
<glyph unicode="&#x2022;" horiz-adv-x="874" d="M182 722q3 107 82 185t185 78t176.5 -72t67.5 -179q-3 -108 -81 -186.5t-184 -78.5t-177.5 73.5t-68.5 179.5z" />
<glyph unicode="&#x2026;" horiz-adv-x="1902" d="M137 156q-1 79 55 137.5t133 58.5q79 0 125.5 -50t47.5 -126q1 -81 -54.5 -139.5t-133.5 -58.5q-73 0 -122.5 51t-50.5 127zM771 156q-1 79 55 137.5t133 58.5q79 0 125.5 -50t47.5 -126q1 -81 -54.5 -139.5t-133.5 -58.5q-73 0 -122.5 51t-50.5 127zM1405 156 q-1 79 55 137.5t133 58.5q79 0 125.5 -50t47.5 -126q1 -81 -54.5 -139.5t-133.5 -58.5q-73 0 -122.5 51t-50.5 127z" />
<glyph unicode="&#x202f;" horiz-adv-x="399" />
<glyph unicode="&#x2039;" horiz-adv-x="1205" d="M231 497v232l653 424l71 -207l-442 -331l442 -329l-71 -205z" />
<glyph unicode="&#x203a;" horiz-adv-x="1205" d="M249 286l442 329l-442 331l71 207l653 -424v-232l-653 -416z" />
<glyph unicode="&#x205f;" horiz-adv-x="499" />
<glyph unicode="&#x20ac;" horiz-adv-x="1502" d="M101 499v168h188q-1 17 -1 53q0 81 7 145h-165v167h196q63 237 227 367t407 139q99 4 169 -6t136 -31t78 -24l-53 -228q-61 35 -125.5 51t-182.5 17q-131 0 -225 -72t-137 -213h512v-167h-542q-2 -48 -2 -74q0 -71 4 -124h504v-168h-480q75 -313 367 -313q98 0 188.5 24 t143.5 61l60 -219q-24 -4 -63.5 -18t-78 -27t-116.5 -24t-177 -11q-264 0 -424 138.5t-208 388.5h-207z" />
<glyph unicode="&#x2122;" horiz-adv-x="2219" d="M154 1363v180h710v-180h-253v-596h-211v596h-246zM980 767l43 776h334l121 -364l37 -144l30 144l112 364h323l74 -776h-207l-37 495l-7 125l-49 -153l-160 -471h-147l-182 471l-57 154l-3 -126l-19 -495h-206z" />
<glyph unicode="&#x25fc;" horiz-adv-x="1140" d="M0 0v1140h1140v-1140h-1140z" />
</font>
</defs>
</svg>
