<?xml version="1.0" standalone="no"?>
<!DOCTYPE svg PUBLIC "-//W3C//DTD SVG 1.1//EN" "http://www.w3.org/Graphics/SVG/1.1/DTD/svg11.dtd" >
<svg xmlns="http://www.w3.org/2000/svg">
<metadata></metadata>
<defs>
<font id="merriweathersans_st_SBdIt" horiz-adv-x="0" >
<font-face units-per-em="2048" ascent="1638" descent="-410" />
<missing-glyph horiz-adv-x="485" />
<glyph unicode="&#xfb01;" horiz-adv-x="1324" d="M134 966l32 174h126l15 97q26 202 135 321.5t283 119.5q80 0 128 -26l-54 -183q-36 38 -94 37q-59 -1 -99 -58t-52 -155l-23 -153h195l-16 -174h-201q-131 -960 -131 -966h-241l131 966h-134zM827 0l155 1140h244l-156 -1140h-243zM1012 1502q2 65 50.5 112.5t114.5 47.5 q62 0 101 -38t37 -92q-2 -67 -50.5 -115.5t-120.5 -48.5q-55 0 -94 39.5t-38 94.5z" />
<glyph unicode="&#xfb02;" horiz-adv-x="1324" d="M134 966l32 174h126l15 97q26 202 135 321.5t283 119.5q80 0 128 -26l-54 -183q-36 38 -94 37q-59 -1 -99 -58t-52 -155l-23 -153h195l-16 -174h-201q-131 -960 -131 -966h-241l131 966h-134zM828 3l223 1634h244l-223 -1634h-244z" />
<glyph unicode="&#xfb03;" horiz-adv-x="2040" d="M134 966l32 174h126l14 69q28 202 142.5 321t299.5 119q99 0 158 -26l-54 -182q-50 37 -124 36q-70 -1 -115.5 -58t-59.5 -154l-22 -125h204l-16 -174h-210q-131 -960 -131 -966h-241l131 966h-134zM850 966l32 174h126l15 97q26 202 135 321.5t283 119.5q80 0 128 -26 l-54 -183q-36 38 -94 37q-59 -1 -99 -58t-52 -155l-23 -153h195l-16 -174h-201q-131 -960 -131 -966h-241l131 966h-134zM1543 0l155 1140h244l-156 -1140h-243zM1728 1502q2 65 50.5 112.5t114.5 47.5q62 0 101 -38t37 -92q-2 -67 -50.5 -115.5t-120.5 -48.5 q-55 0 -94 39.5t-38 94.5z" />
<glyph unicode="&#xfb04;" horiz-adv-x="2040" d="M134 966l32 174h126l14 69q28 202 142.5 321t299.5 119q99 0 158 -26l-54 -182q-50 37 -124 36q-70 -1 -115.5 -58t-59.5 -154l-22 -125h204l-16 -174h-210q-131 -960 -131 -966h-241l131 966h-134zM850 966l32 174h126l15 97q26 202 135 321.5t283 119.5q80 0 128 -26 l-54 -183q-36 38 -94 37q-59 -1 -99 -58t-52 -155l-23 -153h195l-16 -174h-201q-131 -960 -131 -966h-241l131 966h-134zM1544 3l223 1634h244l-223 -1634h-244z" />
<glyph />
<glyph unicode="&#xd;" />
<glyph unicode="&#x9;" />
<glyph unicode="&#xa;" />
<glyph />
<glyph />
<glyph />
<glyph />
<glyph />
<glyph />
<glyph />
<glyph unicode=" "  horiz-adv-x="485" />
<glyph unicode="&#x09;" horiz-adv-x="485" />
<glyph unicode="&#xa0;" horiz-adv-x="485" />
<glyph unicode="!" horiz-adv-x="686" d="M120 109q6 70 59.5 118.5t127.5 48.5q72 0 104 -37t27 -95q-6 -75 -59 -121.5t-129 -46.5q-60 0 -97.5 37t-32.5 96zM233 488l150 1290h267l-229 -1290h-188z" />
<glyph unicode="&#x22;" horiz-adv-x="1042" d="M222 966l79 721h257l-170 -721h-166zM728 966l79 721h257l-170 -721h-166z" />
<glyph unicode="#" horiz-adv-x="1405" d="M110 352l12 158h214l60 374h-208l11 155h220l51 318h189l-49 -318h287l54 318h189l-52 -318h220l-11 -155h-232l-61 -374h215l-12 -158h-227l-56 -352h-184l50 352h-288l-61 -352h-186l57 352h-202zM526 510h288l60 374h-287z" />
<glyph unicode="$" horiz-adv-x="1204" d="M112 71l73 197q36 -35 127.5 -66t176.5 -31q126 0 206.5 52.5t80.5 157.5q0 81 -46.5 149.5t-162.5 147.5q-63 43 -109 82.5t-93 94.5t-73 123t-27 145q-4 169 103.5 279t286.5 136l35 210h199l-35 -208q157 -16 246 -80l-77 -190q-40 41 -118.5 63.5t-149.5 22.5 q-66 0 -118.5 -15t-92 -57.5t-41.5 -109.5q-4 -99 44 -162t180 -157q50 -35 85 -62t78.5 -69.5t70.5 -83.5t46 -96t20 -114q3 -190 -109.5 -303.5t-307.5 -139.5l-40 -231h-198l38 227q-96 10 -182 36.5t-116 51.5z" />
<glyph unicode="%" horiz-adv-x="1939" d="M171 1049q0 112 55 214t156.5 167.5t223.5 65.5q150 0 220.5 -82.5t70.5 -227.5q0 -117 -52 -221.5t-153 -173t-229 -68.5q-140 0 -216 89.5t-76 236.5zM355 1056q0 -83 37.5 -133.5t104.5 -50.5q51 0 93 31t65.5 78t36 97t12.5 94q0 82 -34.5 129.5t-96.5 47.5 q-52 0 -95.5 -29.5t-69 -74.5t-39.5 -94.5t-14 -94.5zM438 0l881 1530h186l-875 -1530h-192zM1078 388q0 112 55 214t156.5 167.5t222.5 65.5q150 0 220.5 -82.5t70.5 -227.5q0 -117 -52 -221.5t-153 -172.5t-228 -68q-140 0 -216 89t-76 236zM1261 395q0 -83 38 -133.5 t104 -50.5q51 0 93 31t66 78t36.5 97t12.5 94q0 82 -35 129.5t-97 47.5q-52 0 -95.5 -29.5t-69 -74.5t-39.5 -94.5t-14 -94.5z" />
<glyph unicode="&#x26;" horiz-adv-x="1543" d="M67 366q0 71 25.5 132.5t75.5 112.5t103.5 89t127.5 80q-86 188 -86 342q0 184 121 304t317 120q93 0 167 -29t117 -75t65 -99t22 -106t-14.5 -101.5t-35 -86.5t-59.5 -78t-70 -66.5t-85.5 -61.5t-88 -54.5t-93.5 -52.5q163 -276 343 -443q86 97 86 243q0 62 -16 119 q-66 -5 -101 -24l10 161q36 38 153 38l335 -1l-12 -172h-151q6 -32 6 -71q0 -251 -152 -409q86 -40 215 -40q12 -1 44 -1l-26 -138q-69 -17 -181 -17q-58 0 -126.5 16.5t-123.5 47.5q-150 -62 -345 -62q-119 0 -218.5 21.5t-179 66t-124.5 120t-45 175.5zM314 378 q0 -63 28 -108.5t77.5 -70t107 -36t125.5 -11.5q92 0 173 23q-79 76 -144 158t-100 136t-96 155q-171 -116 -171 -246zM538 1138q0 -131 57 -253q69 38 116.5 69t92.5 71.5t67.5 86.5t22.5 99q0 81 -40.5 128.5t-118.5 47.5q-89 0 -143 -73t-54 -176z" />
<glyph unicode="'" horiz-adv-x="536" d="M222 966l79 721h257l-170 -721h-166z" />
<glyph unicode="(" horiz-adv-x="854" d="M181 500q0 122 18 246q24 162 84 316t130.5 263.5t150 201t138.5 141.5t100 72l115 -77q-41 -35 -87.5 -84.5t-106.5 -132.5t-111 -177.5t-97 -223.5t-70 -265q-23 -145 -23 -282q0 -121 19 -235t46 -195.5t63 -152.5t65.5 -112.5t56.5 -70.5l-129 -77h-17 q-32 24 -69 62.5t-88.5 114.5t-91 166t-68 223t-28.5 279z" />
<glyph unicode=")" horiz-adv-x="854" d="M-33 -251q41 35 87.5 84.5t106.5 132.5t111 177.5t97 223.5t70 265q23 145 23 282q0 121 -19 235t-46 195.5t-63 152.5t-65.5 112.5t-56.5 70.5l129 77h17q32 -24 69 -62.5t88.5 -114.5t91 -166t68 -223t28.5 -279q0 -122 -18 -246q-24 -162 -84 -316t-130.5 -263.5 t-150 -201t-138.5 -141.5t-100 -72z" />
<glyph unicode="*" horiz-adv-x="1366" d="M208 978l293 122l138 50l-128 49l-268 123l120 179l230 -180l99 -91l-9 140l-1 303h206l-64 -303l-40 -140l120 91l267 181l83 -180l-293 -123l-138 -50l128 -49l268 -122l-126 -178l-225 179l-101 94l13 -143l4 -303l-211 1l64 302l38 143l-117 -94l-264 -181z" />
<glyph unicode="+" horiz-adv-x="1362" d="M223 681l23 190h233l132 -11l12 157l28 245h206l-26 -245l-28 -156l110 10h261l-23 -190h-261l-107 7l-9 -155l-30 -251h-207l29 251l25 155l-135 -7h-233z" />
<glyph unicode="," horiz-adv-x="526" d="M-18 -406l3 21q74 37 121 112.5t47 161.5q0 66 -26.5 119t-66.5 66l7 54l121 146q54 -21 94 -58t60.5 -82t30 -87.5t9.5 -84.5q0 -165 -88 -291.5t-233 -176.5z" />
<glyph unicode="-" horiz-adv-x="1266" d="M220 615l23 185h838l-24 -185h-837z" />
<glyph unicode="." horiz-adv-x="526" d="M71 100q0 72 48 124t125 52q67 0 99 -34.5t32 -88.5q0 -82 -47 -129.5t-127 -47.5q-56 0 -93 35t-37 89z" />
<glyph unicode="/" horiz-adv-x="854" d="M-108 -362l861 1959h204l-863 -1959h-202z" />
<glyph unicode="0" horiz-adv-x="1278" d="M109 601q0 199 50.5 373t136.5 296t205 191.5t253 69.5q112 0 198 -45t139.5 -127t80.5 -190.5t27 -240.5q0 -249 -82 -464.5t-233 -347.5t-337 -132q-111 0 -197 51t-137.5 139t-77.5 196t-26 231zM355 632q0 -210 55.5 -337t166.5 -127q113 0 199 109.5t128 273 t42 345.5q0 225 -50.5 338t-162.5 114q-79 1 -145 -47t-108 -124t-71 -173.5t-41.5 -191t-12.5 -180.5z" />
<glyph unicode="1" horiz-adv-x="923" d="M202 1328q96 21 208.5 79t207.5 123h1l128 -22l-220 -1508h-248l180 1233q-88 -28 -230 -53z" />
<glyph unicode="2" horiz-adv-x="1221" d="M44 127q143 88 281 199t258 236t194 259t74 246q0 267 -273 267q-145 0 -321 -135l-86 137q76 76 198.5 135t270.5 59q109 0 194.5 -27.5t137.5 -71.5t86 -103.5t46.5 -117.5t12.5 -120q0 -103 -49.5 -216.5t-129 -213t-182.5 -195.5t-206.5 -170.5t-205.5 -131.5l719 34 l2 -197h-984z" />
<glyph unicode="3" horiz-adv-x="1116" d="M47 -4l21 180q108 -10 172 -10q137 0 246 34.5t176 105.5t67 167q0 93 -68.5 150t-215.5 59l-155 -36l17 191q100 19 200 67.5t173.5 126t73.5 160.5q0 151 -198 151q-88 0 -164 -35t-155 -95l-73 159q60 59 186.5 110t272.5 51q76 0 143 -19t120.5 -55.5t84.5 -98 t31 -139.5q0 -140 -112 -258.5t-275 -174.5q92 2 165.5 -23t118.5 -69t68.5 -98.5t23.5 -114.5q0 -149 -105.5 -264.5t-273 -174.5t-362.5 -59q-47 0 -203 12z" />
<glyph unicode="4" horiz-adv-x="1268" d="M26 421q324 501 646 1109h150l117 -80l-574 -883l-82 -102l424 17l56 422l228 38l-59 -450l250 14l-26 -200h-249l-36 -306h-226l38 306h-609z" />
<glyph unicode="5" horiz-adv-x="1122" d="M62 4l27 167q37 -6 79 -6q87 0 169.5 14t158.5 45t133 76.5t91 112t34 147.5q0 115 -63.5 176t-191.5 61q-56 0 -128 -15t-123 -38l-89 93l159 693h581l22 16h158l-51 -217h-523l-100 -386q101 30 221 30q202 0 304.5 -97t102.5 -277q0 -136 -64.5 -251t-177 -194 t-267 -123t-332.5 -44q-85 0 -130 17z" />
<glyph unicode="6" horiz-adv-x="1259" d="M130 506q0 250 112.5 474t312 382t453.5 225l54 -144q-218 -77 -385.5 -232t-225.5 -312q128 106 314 106q91 0 165 -33.5t120 -90t70.5 -127t24.5 -148.5q0 -89 -21.5 -176.5t-67 -168.5t-110 -142.5t-158.5 -98t-205 -36.5t-198.5 42t-142.5 114.5t-83.5 165.5 t-28.5 200zM366 490q0 -338 234 -338q93 0 164.5 66t106 161t34.5 196q0 124 -62.5 186t-156.5 62q-180 0 -294 -129q-26 -99 -26 -204z" />
<glyph unicode="7" horiz-adv-x="1093" d="M135 1335l12 195h942l37 -50l-640 -1480h-284l642 1338z" />
<glyph unicode="8" horiz-adv-x="1258" d="M102 354q0 80 27.5 149t77.5 121t111 91t137 69q-184 156 -184 353q0 193 135 302t344 109q176 0 292 -91.5t116 -240.5t-99 -264t-238 -161q64 -46 106 -81.5t86 -84.5t66 -104t22 -116q0 -129 -74 -226.5t-196 -147t-272 -49.5q-120 0 -222 41t-168.5 127.5 t-66.5 203.5zM351 383q0 -106 68 -173.5t173 -67.5q110 0 181 64t71 164q0 40 -14 77t-35 66.5t-59.5 64t-72.5 59.5t-90 64q-219 -115 -222 -318zM511 1165q0 -84 51 -151.5t148 -138.5q97 48 157 131.5t60 190.5q0 93 -56 145.5t-138 52.5q-97 0 -159.5 -66t-62.5 -164z " />
<glyph unicode="9" horiz-adv-x="1259" d="M144 929q0 89 21.5 174.5t68 163t111.5 136t159 93t205 34.5q93 0 168.5 -27.5t127 -75.5t87 -114.5t51.5 -142.5t16 -162q0 -252 -106.5 -478.5t-300.5 -389.5t-443 -230l-55 144q215 76 373.5 230t217.5 314q-49 -44 -128.5 -69t-175.5 -25t-174 37t-125.5 98 t-72.5 135.5t-25 154.5zM384 960q0 -137 65.5 -206t161.5 -69q103 0 176 39.5t111 85.5q25 103 25 207q0 150 -61.5 247.5t-179.5 97.5q-74 0 -133.5 -39t-94 -100.5t-52.5 -129.5t-18 -133z" />
<glyph unicode=":" horiz-adv-x="526" d="M50 100q0 72 48 124t125 52q67 0 99 -34.5t32 -88.5q0 -82 -47 -129.5t-127 -47.5q-56 0 -93 35t-37 89zM143 909q0 72 48 124t125 52q67 0 99 -34.5t32 -88.5q0 -82 -47 -129.5t-127 -47.5q-56 0 -93 35t-37 89z" />
<glyph unicode=";" horiz-adv-x="526" d="M-18 -406l3 21q74 37 121 112.5t47 161.5q0 66 -26.5 119t-66.5 66l7 54l121 146q54 -21 94 -58t60.5 -82t30 -87.5t9.5 -84.5q0 -165 -88 -291.5t-233 -176.5zM146 909q0 72 48 124t125 52q67 0 99 -34.5t32 -88.5q0 -82 -47 -129.5t-127 -47.5q-56 0 -93 35t-37 89z " />
<glyph unicode="&#x3c;" horiz-adv-x="1376" d="M196 690l16 129l1015 513l-28 -229l-729 -358l643 -359l-21 -209z" />
<glyph unicode="=" horiz-adv-x="1070" d="M99 332l24 184h822l-23 -184h-823zM165 836l23 184h823l-24 -184h-822z" />
<glyph unicode="&#x3e;" horiz-adv-x="1376" d="M251 180l28 229l729 358l-643 359l21 209l896 -513l-16 -129z" />
<glyph unicode="?" horiz-adv-x="1032" d="M256 697q0 88 64.5 157t213.5 148q228 110 256 208q13 48 13 105q0 125 -95.5 199.5t-229.5 74.5q-114 0 -214 -30l36 167q23 22 84.5 37.5t122.5 15.5q135 0 238 -35.5t162.5 -97t89 -137t29.5 -161.5q0 -76 -19 -140t-51.5 -109.5t-74 -83.5t-87.5 -66t-92.5 -53 t-88 -49t-74 -49.5t-51.5 -59t-19 -72.5q0 -25 9 -54.5t20.5 -57t13.5 -36.5l-139 -55l-17 1q-40 32 -70 99t-30 134zM332 100q0 72 48 124t124 52q67 0 99.5 -34.5t32.5 -88.5q0 -81 -47.5 -129t-126.5 -48q-57 0 -93.5 35t-36.5 89z" />
<glyph unicode="@" horiz-adv-x="1986" d="M108 374q0 265 85 487t231 371t343.5 231t422.5 82q324 0 513 -176t189 -474q0 -163 -38 -308t-101.5 -249.5t-144.5 -181t-167.5 -114.5t-169.5 -38q-31 0 -51.5 14.5t-30.5 43.5t-13.5 60.5t-3.5 77.5t12 164q-71 -167 -166 -265.5t-202 -98.5q-53 0 -103 26t-93 76.5 t-68 135.5t-23 192q2 92 23.5 184t66.5 178.5t107.5 152.5t153.5 106t198 40q51 0 116.5 -14t103.5 -40l174 30q-28 -111 -59.5 -314t-46.5 -360q-5 -46 -6 -77.5t0 -63t1 -35.5q0 -27 14 -27q79 0 157 99t127 255.5t49 314.5q0 535 -559 535q-155 0 -293.5 -55.5 t-240.5 -151.5t-177 -222t-112.5 -270t-37.5 -291q0 -145 34.5 -262t93 -195.5t140 -131t172.5 -76t193 -23.5q97 0 205 24t164 52l39 -116q-70 -53 -184.5 -84.5t-241.5 -31.5q-174 0 -320 55t-251.5 157.5t-164.5 257t-59 344.5zM744 452q0 -258 116 -258q58 0 141 123.5 t146 283.5t77 269q-22 31 -71 48t-92 17q-74 0 -136 -46t-100.5 -118t-59.5 -155.5t-21 -163.5z" />
<glyph unicode="A" horiz-adv-x="1289" d="M-90 0l744 1530h288l269 -1530h-245l-55 363h-575l-161 -363h-265zM415 541h469l-104 685l-11 117l-51 -121z" />
<glyph unicode="B" horiz-adv-x="1274" d="M99 0l200 1530h125q44 0 143 8t153 8q105 0 187 -18.5t134 -49t85.5 -74.5t47.5 -90q14 -49 14 -106q0 -153 -79 -257q-80 -105 -225 -148q128 -20 209 -104t82 -209v-10q1 -128 -47 -222q-50 -98 -144.5 -157t-219.5 -87.5t-284 -28.5q-40 0 -137.5 7.5t-132.5 7.5h-111 zM366 174q54 -15 159 -15q90 0 158.5 15.5t122.5 50t82 96.5q27 60 27 143v6q-1 123 -77.5 180t-226.5 57q-104 0 -176 -6zM458 877q46 -2 147 -2q151 0 243.5 80t91.5 229q-2 100 -66.5 146t-204.5 46q-87 0 -147 -9z" />
<glyph unicode="C" horiz-adv-x="1156" d="M100 626v16q0 253 92 457q96 211 266 329t382 118q64 0 121.5 -9t86 -17.5t72.5 -24.5l54 -17l-80 -215q-29 20 -51 32t-84 28.5t-135 16.5q-87 0 -160.5 -31t-124 -85.5t-89 -123t-60 -148.5t-31.5 -158q-9 -70 -9 -139v-14q2 -212 81 -336t237 -124q109 0 204 34 t140 68l34 -191q-47 -36 -157 -72t-274 -36q-112 0 -201.5 37t-146.5 98.5t-95.5 146t-54.5 173.5t-17 187z" />
<glyph unicode="D" horiz-adv-x="1391" d="M99 0l200 1530h127q43 0 162.5 8t166.5 8q151 0 263 -44.5t179.5 -128t100.5 -195t35 -253.5v-17q1 -146 -31 -280q-34 -142 -102.5 -260.5t-164 -205t-223.5 -133.5q-123 -45 -264 -45h-12q-56 2 -122 7q-117 9 -201 9h-114zM368 194q84 -27 191 -27h22q102 2 186.5 46 t142 116t97.5 168q39 95 57 201q16 95 16 194v23q-2 171 -43 269.5t-123 140t-222 41.5q-92 0 -172 -18z" />
<glyph unicode="E" horiz-adv-x="1158" d="M99 0l200 1530h812l-16 -192l-576 6l-61 -470l432 6l-19 -199l-436 13l-67 -509l680 15l-21 -200h-928z" />
<glyph unicode="F" horiz-adv-x="1064" d="M99 0l200 1530h811l-23 -192l-568 6l-62 -480l458 7l-20 -205l-462 14l-90 -680h-244z" />
<glyph unicode="G" horiz-adv-x="1366" d="M99 621v17q0 154 35 291q36 145 105.5 256.5t163.5 193.5t210.5 124.5t243.5 42.5q192 0 363 -56l55 -18l-65 -221q-45 35 -141.5 65.5t-216.5 30.5q-108 0 -196.5 -45t-145 -117t-95 -166t-53.5 -189q-15 -88 -15 -177v-11q1 -96 19 -177.5t54.5 -149t100.5 -105.5 t149 -38q64 0 143.5 16t142.5 46l46 336h-237l24 195h472l-90 -675q-41 -5 -128 -30q-3 -1 -31.5 -9.5t-35.5 -10.5t-35.5 -9.5t-40.5 -10.5t-39.5 -9.5t-44 -9t-43 -6.5t-47.5 -6t-47 -3.5t-50 -1.5q-112 0 -202.5 37t-150 98.5t-100 145t-58.5 172t-19 184.5z" />
<glyph unicode="H" horiz-adv-x="1437" d="M95 0l201 1530h245l-89 -679h601l89 679h246l-200 -1530h-246l88 672h-602l-88 -672h-245z" />
<glyph unicode="I" horiz-adv-x="618" d="M118 0l201 1530h245l-201 -1530h-245z" />
<glyph unicode="J" horiz-adv-x="617" d="M-173 -231q116 35 195 124.5t101 192.5q38 176 71 412t72.5 590.5t50.5 441.5h245q-159 -1319 -201 -1455q-25 -85 -64.5 -151.5t-85.5 -110t-105 -73.5t-116 -45t-125 -23z" />
<glyph unicode="K" horiz-adv-x="1273" d="M99 0l200 1530h245l-98 -741l629 741h284l-611 -679q44 -75 90 -158.5t105.5 -194.5t84.5 -157q114 -210 200 -341h-292q-22 33 -170 329q-26 49 -91.5 179t-84.5 168l-186 -207l-61 -469h-244z" />
<glyph unicode="L" horiz-adv-x="1005" d="M99 0l200 1530h245l-174 -1331l548 6l-28 -205h-791z" />
<glyph unicode="M" horiz-adv-x="1850" d="M24 0l392 1530h332l133 -1058l13 -186l49 186l406 1058h356l-33 -1530h-246l61 1056l25 338l-117 -305l-437 -1092l-215 -15l-149 1090l-25 321l-59 -328l-241 -1065h-245z" />
<glyph unicode="N" horiz-adv-x="1430" d="M99 0l200 1530h237l415 -981l67 -223l18 252l115 952h234l-201 -1530h-224l-423 1002l-67 245l-18 -291l-122 -956h-231z" />
<glyph unicode="O" horiz-adv-x="1383" d="M95 600v21q-1 184 49 349q52 174 146.5 301t231 201t294.5 74q122 0 219.5 -48.5t159 -134t94 -196t34.5 -238.5v-15q0 -186 -49 -352q-51 -173 -143.5 -301t-229 -202.5t-296.5 -74.5q-123 0 -221 48.5t-159.5 133.5t-94.5 195.5t-35 238.5zM349 632q4 -242 73.5 -352 t213.5 -110q128 0 230 105t154 271q50 157 49 333v20q-3 241 -72.5 349t-214.5 108q-96 0 -179.5 -63t-138.5 -165t-86 -232q-29 -122 -29 -248v-16z" />
<glyph unicode="P" horiz-adv-x="1215" d="M99 0l200 1530h128q43 0 143.5 8t161.5 8q233 0 356.5 -101t125.5 -303v-13q0 -275 -168 -445q-172 -174 -459 -174q-124 0 -176 8l-68 -518h-244zM437 712q57 -13 135 -13h21q364 3 375 421v14q0 113 -63 172q-67 63 -214 63q-83 0 -171 -18z" />
<glyph unicode="Q" horiz-adv-x="1383" d="M95 600v21q0 184 49 349q53 174 147 301t230.5 201t294.5 74q122 0 219.5 -48.5t159 -134t94 -196t34.5 -238.5v-13q0 -229 -71 -424q-73 -201 -212 -333.5t-322 -164.5q1 -43 17.5 -73t40.5 -47t64 -26t75 -11.5t86 -2.5q141 0 228 28v-169q-38 -29 -139.5 -50 t-192.5 -21q-79 0 -147 21t-120 62.5t-74 114.5q-11 39 -11 85q0 38 8 81q-147 13 -251.5 100t-154.5 218.5t-52 295.5zM349 632q4 -242 73.5 -352t213.5 -110q128 0 229.5 105t154.5 271q49 156 49 333v20q-3 241 -72.5 349t-214.5 108q-96 0 -179.5 -63t-138.5 -165 t-86 -232q-29 -122 -29 -248v-16z" />
<glyph unicode="R" horiz-adv-x="1292" d="M97 0l201 1530h132q57 0 149 8t154 8q245 0 368 -94t125 -272v-12q0 -177 -86 -311q-89 -138 -262 -190q39 -36 79 -112.5t62 -151.5q79 -203 114.5 -284.5t63.5 -119.5l-277 2q-32 48 -116 305q-91 315 -189 322q-123 1 -190 1l-83 -629h-245zM450 823q52 -3 215 -3 q107 0 179 50t102 127q27 70 26 155v18q-6 196 -265 196q-103 0 -187 -14z" />
<glyph unicode="S" horiz-adv-x="1048" d="M19 77l74 198q36 -35 129.5 -66.5t177.5 -31.5q126 0 205 52.5t79 157.5q1 81 -45 147.5t-163 146.5q-62 42 -108 82t-92 94.5t-71 122t-26 143.5v8q0 189 132 301q135 114 353 114q124 0 212.5 -25.5t136.5 -59.5l-78 -190q-40 41 -117 63.5t-148 22.5q-66 0 -119 -16 t-91.5 -59.5t-40.5 -110.5v-15q-1 -44 9 -78q12 -40 43 -78t68 -69t101 -76q50 -36 84 -63t77.5 -69.5t70 -83t45.5 -95t20 -112.5v-6q0 -212 -148 -326q-150 -116 -396 -116q-113 0 -225 31t-149 62z" />
<glyph unicode="T" horiz-adv-x="1131" d="M131 1338l29 192h1051l-27 -192l-400 11l-176 -1349h-247l177 1349z" />
<glyph unicode="U" horiz-adv-x="1386" d="M137 429v7q0 49 13 158l122 936h245l-118 -898q-12 -109 -12 -192q3 -134 67 -198t190 -64q152 0 237.5 107t118.5 356l116 889h241l-119 -912q-45 -340 -197 -487t-433 -147q-231 0 -349.5 116.5t-121.5 328.5z" />
<glyph unicode="V" horiz-adv-x="1188" d="M121 1530h244l150 -1065l22 -234l84 234l440 1065h259l-686 -1530h-270z" />
<glyph unicode="W" horiz-adv-x="1782" d="M117 1530h246l116 -1060l28 -218l63 218l318 806l-28 254h236l100 -1060l17 -218l68 218l392 1060h249l-619 -1537h-265l-84 766l-15 171l-57 -171l-291 -766h-256z" />
<glyph unicode="X" horiz-adv-x="1183" d="M-71 0l560 798l-319 732h266l214 -566l367 566h273l-539 -782l347 -748h-276l-234 593l-372 -593h-287z" />
<glyph unicode="Y" horiz-adv-x="1107" d="M83 1530h260l216 -642l30 -93l44 93l373 642h267l-595 -940l-79 -590h-238l79 590z" />
<glyph unicode="Z" horiz-adv-x="1157" d="M-10 89l778 1119l121 132l-659 -13l29 203h922l24 -86l-768 -1125l-112 -124l711 12l-33 -207h-986z" />
<glyph unicode="[" horiz-adv-x="854" d="M165 -72q0 60 5 110q7 113 46.5 394.5t90 608.5t64.5 435q19 147 69.5 205t167.5 58q46 0 116 -11.5t118 -23.5l47 -12l-17 -113h-269l-220 -1643q31 0 135 -0.5t134 -0.5q-5 -36 -13 -112q-64 -18 -93 -25.5t-86 -16t-115 -8.5q-95 0 -137.5 36.5t-42.5 118.5z" />
<glyph unicode="\" horiz-adv-x="854" d="M20 1597h202l577 -1959h-203z" />
<glyph unicode="]" horiz-adv-x="854" d="M27 -152l17 113h269l220 1643q-31 0 -135 0.5t-134 0.5q5 36 13 112q64 18 93 25.5t86 16t115 8.5q95 0 137.5 -36.5t42.5 -118.5q0 -60 -5 -110q-7 -113 -46.5 -394.5t-90 -608.5t-64.5 -435q-19 -147 -69.5 -205t-167.5 -58q-46 0 -116 11.5t-118 23.5z" />
<glyph unicode="^" horiz-adv-x="1364" d="M161 510l517 1020h218l260 -1020h-201l-190 775l-399 -775h-205z" />
<glyph unicode="_" horiz-adv-x="1335" d="M-111 -353l20 166h1378l-20 -166h-1378z" />
<glyph unicode="`" horiz-adv-x="543" d="M31 1575l170 156l302 -416l-97 -78q-71 29 -202 147t-173 191z" />
<glyph unicode="a" horiz-adv-x="1182" d="M78 415q0 102 24 204t76.5 199.5t127.5 172t186 120t243 45.5q108 0 233 -37l134 37l-157 -1156h-217l15 206q-60 -94 -149 -158t-198 -64q-161 0 -239.5 116.5t-78.5 314.5zM331 438q0 -276 127 -276q46 0 92.5 26.5t85.5 70t69.5 88.5t55.5 94l76 534q-59 18 -131 18 q-76 0 -139.5 -35t-106 -91.5t-72.5 -130t-43.5 -149t-13.5 -149.5z" />
<glyph unicode="b" horiz-adv-x="1201" d="M81 -11l221 1648h232l-64 -541l-31 -164q61 94 153.5 159t204.5 65q161 0 239.5 -116.5t78.5 -315.5q0 -102 -24.5 -204t-78.5 -199t-130 -171.5t-187.5 -120t-243.5 -45.5q-112 0 -237 37zM348 165q59 -18 131 -18q94 0 169.5 52.5t120.5 136t68.5 178t23.5 187.5 q0 275 -126 275q-48 0 -97.5 -28t-91 -73t-74 -91.5t-56.5 -94.5z" />
<glyph unicode="c" horiz-adv-x="920" d="M82 436q0 105 25 208t75.5 195t120 163t165.5 112.5t206 41.5q152 0 231 -39l-61 -220q-35 30 -86.5 51.5t-103.5 21.5q-58 0 -116 -36.5t-104 -100t-75 -160t-29 -206.5q0 -161 46 -231.5t144 -70.5q120 0 254 132l72 -125q-50 -71 -148.5 -129.5t-227.5 -58.5 q-192 0 -290 123t-98 329z" />
<glyph unicode="d" horiz-adv-x="1195" d="M76 415q0 102 25 204t78.5 199t129.5 172t188 120.5t244 45.5q52 0 124 -12l68 493h239l-218 -1637h-217l14 214q-61 -96 -153.5 -163t-203.5 -67q-161 0 -239.5 116.5t-78.5 314.5zM329 438q0 -274 127 -274q47 0 95.5 27.5t89 72.5t72.5 91.5t57 94.5l72 522 q-65 21 -130 21q-76 0 -140.5 -35t-108 -92t-74.5 -130t-45.5 -149t-14.5 -149z" />
<glyph unicode="e" horiz-adv-x="1058" d="M82 436q3 202 81.5 366t217.5 259t313 95q148 0 223 -69t75 -185q0 -78 -29.5 -145.5t-82 -117t-116.5 -89.5t-140 -67t-145.5 -44t-139.5 -27v-20q-1 -37 5 -68q8 -40 27 -78t59.5 -60t99.5 -22q79 0 167.5 44t161.5 117l66 -129q-55 -76 -174.5 -144t-263.5 -68 q-105 0 -186 38t-128 102.5t-70 143.5q-21 73 -21 154v14zM341 563q58 3 127.5 27t133.5 63.5t107 100t43 126.5q0 114 -112 114q-64 0 -120 -43.5t-92 -110.5t-58.5 -139t-28.5 -138z" />
<glyph unicode="f" horiz-adv-x="716" d="M134 966l32 174h126l15 97q28 202 143 321.5t299 119.5q99 0 158 -26l-54 -183q-47 37 -120 37h-4q-70 -1 -115.5 -58t-59.5 -155l-23 -153h204l-16 -174h-210q-131 -960 -131 -966h-241l131 966h-134z" />
<glyph unicode="g" horiz-adv-x="1191" d="M76 415q0 102 25 204t78.5 199t129.5 172t188 120.5t244 45.5q108 0 233 -37l137 37l-168 -1230q-14 -98 -55.5 -175t-96 -124.5t-124.5 -79t-137.5 -43.5t-138.5 -12q-68 0 -153.5 12t-115.5 26l50 192q42 -23 117.5 -43.5t148.5 -20.5q116 0 175 62t82 184l52 304 q-60 -94 -151.5 -159t-201.5 -65q-161 0 -239.5 116.5t-78.5 314.5zM329 438q0 -274 127 -274q46 0 93.5 26.5t87.5 70t72 89t58 93.5l74 532q-57 18 -129 18q-76 0 -140.5 -35t-108 -92t-74.5 -130t-45.5 -149t-14.5 -149z" />
<glyph unicode="h" horiz-adv-x="1233" d="M85 0l212 1637h241l-59 -504l-37 -218q84 107 197 174t230 67q120 0 179 -69t59 -225q0 -71 -40 -348q-13 -91 -39.5 -270t-35.5 -244h-245q12 91 39 273.5t35 239.5q35 256 36 321v5q0 65 -23 87q-24 24 -75 23q-74 0 -170 -67.5t-166 -164.5l-97 -717h-241z" />
<glyph unicode="i" horiz-adv-x="608" d="M111 0l155 1140h244l-156 -1140h-243zM346 1614q48 48 115 48q62 0 101 -38q37 -36 37 -87v-5q-2 -67 -50.5 -115.5t-120.5 -48.5q-55 0 -94 40q-38 39 -38 91q-1 66 50 115z" />
<glyph unicode="j" horiz-adv-x="605" d="M-243 -481l63 132q15 -12 49 -12q52 0 91.5 24t64 59.5t43.5 97t29 114.5t21 134l147 1072h244l-155 -1137q-33 -242 -155.5 -381.5t-293.5 -139.5q-95 0 -148 37zM340 1614q49 48 115 48q62 0 101 -38q37 -36 37 -87v-5q-2 -67 -50.5 -115.5t-120.5 -48.5q-55 0 -94 40 q-38 38 -38 91q0 66 50 115z" />
<glyph unicode="k" horiz-adv-x="1097" d="M85 0l212 1637h241l-212 -1637h-241zM444 633h1l-1 1q153 84 275 254q101 124 145 252h236q-10 -122 -102 -251q-60 -94 -143.5 -168.5t-158.5 -113.5l353 -604h-282z" />
<glyph unicode="l" horiz-adv-x="608" d="M112 3l223 1634h244l-223 -1634h-244z" />
<glyph unicode="m" horiz-adv-x="1828" d="M81 3l155 1137h233l-19 -210q80 102 184.5 164t212.5 62q102 0 160 -51t72 -163q81 96 183 155t207 59q118 0 177 -69t59 -225q0 -71 -40 -348q-17 -122 -75 -511h-244q13 93 40 279t33 231q35 256 36 321v5q0 65 -23 87q-24 24 -75 23q-61 0 -138 -53t-142 -134 q-8 -80 -33 -248q-17 -122 -75 -511h-244q11 79 36.5 253t36.5 257q35 242 36 321v5q0 65 -24 87q-24 24 -75 23q-68 0 -158 -67t-155 -163l-97 -716h-244z" />
<glyph unicode="n" horiz-adv-x="1232" d="M81 3l155 1137h232l-19 -217q85 104 196 168.5t225 64.5q120 0 179 -69t59 -225q0 -71 -40 -348q-17 -122 -75 -511h-244q13 93 40 279t33 231q35 256 35 321v5q-1 63 -23 87q-24 24 -74 23q-74 0 -171.5 -69.5t-167.5 -167.5l-96 -709h-244z" />
<glyph unicode="o" horiz-adv-x="1149" d="M82 452v6q0 133 40 257q42 127 117.5 225t188.5 157t245 59q194 0 291 -123.5t100 -343.5v-8q0 -105 -24 -205q-25 -104 -76 -192.5t-121 -155.5t-163.5 -105.5t-199.5 -38.5q-195 0 -295.5 125t-102.5 343zM330 442q3 -291 185 -291q75 0 134.5 50.5t94.5 132.5 q34 81 52 175q17 89 17 179v10q-2 146 -44.5 218.5t-133.5 72.5q-75 0 -135.5 -51t-96.5 -132.5t-55 -175.5q-18 -90 -18 -179v-9z" />
<glyph unicode="p" horiz-adv-x="1204" d="M13 -507l221 1647h220l-12 -201q62 92 152 154.5t200 62.5q161 0 239.5 -116t78.5 -314q0 -102 -24.5 -204t-78.5 -199.5t-130 -172.5t-187.5 -120.5t-243.5 -45.5q-53 0 -125 12l-68 -503h-242zM346 165q59 -18 131 -18q94 0 169.5 53t120.5 136.5t68.5 178.5t23.5 188 q0 273 -127 273q-47 0 -95 -26.5t-89 -70t-73 -88.5t-57 -92z" />
<glyph unicode="q" horiz-adv-x="1195" d="M76 415q0 102 25 204t78.5 199t129.5 172t188 120.5t244 45.5q103 0 227 -35l139 39l-220 -1662h-242l68 505l37 209q-61 -95 -153 -161.5t-203 -66.5q-161 0 -239.5 116.5t-78.5 314.5zM329 438q0 -274 127 -274q45 0 92.5 26t87.5 69t72 88t57 93l73 536 q-59 17 -126 17q-76 0 -140.5 -35t-108 -92t-74.5 -130t-45.5 -149t-14.5 -149z" />
<glyph unicode="r" horiz-adv-x="822" d="M81 0l156 1140h233l-19 -210q20 38 50 75t71.5 72t97 57t114.5 22q50 0 64 -13l-50 -254q-26 17 -99 17q-68 0 -147.5 -60.5t-133.5 -164.5l-94 -681h-243z" />
<glyph unicode="s" horiz-adv-x="904" d="M48 46l42 204q41 -31 115.5 -59.5t151.5 -28.5q177 0 177 124q0 22 -7.5 42.5t-15.5 35t-29 36t-33.5 32.5t-44.5 37.5t-46 38.5q-46 39 -74.5 67.5t-58 69.5t-43.5 88t-14 104q0 149 114.5 234t290.5 85q82 0 155.5 -12.5t103.5 -25.5l-38 -218q-21 25 -82 52t-141 27 q-77 0 -124.5 -31.5t-47.5 -90.5q0 -18 3.5 -34t7 -28t15.5 -28t17.5 -24t24 -25t25.5 -23t31.5 -26.5t32.5 -26.5q42 -34 66.5 -55t56.5 -56t49.5 -65.5t30 -72t12.5 -87.5q0 -82 -32.5 -144.5t-90 -101t-132 -57.5t-163.5 -19q-96 0 -186.5 19.5t-118.5 42.5z" />
<glyph unicode="t" horiz-adv-x="770" d="M133 966l41 174h105l72 279h196l-36 -279h250l-23 -174h-251l-74 -565q-16 -114 -16 -141q0 -44 12 -69.5t48 -25.5q34 0 100 32t101 61l34 -127q-49 -52 -151.5 -100t-197.5 -48q-91 0 -144.5 46t-53.5 144q0 42 14 154l81 639h-107z" />
<glyph unicode="u" horiz-adv-x="1209" d="M108 265q0 67 25 262q32 248 86 613h243q-7 -54 -26 -191.5t-34.5 -253t-22.5 -170.5q-22 -159 -22 -228q0 -67 28.5 -94t86.5 -27q73 0 159 69.5t152 169.5l98 725h244l-152 -1140h-223l16 209q-75 -101 -176.5 -165t-214.5 -64q-130 0 -198 66q-69 67 -69 219z" />
<glyph unicode="v" horiz-adv-x="1046" d="M99 1140h258l66 -746l11 -203l115 151q84 134 132 241.5t81 259.5q12 57 24 155q10 84 10 128v14h229q4 -40 3 -83q0 -29 -1 -59q-9 -154 -75.5 -319t-158 -297.5t-204.5 -250.5l-119 -137l-206 -12l-57 376z" />
<glyph unicode="w" horiz-adv-x="1692" d="M103 1140h261l68 -746l10 -206l112 154q179 286 229 543l-33 255h253l65 -746l13 -206l109 150q83 134 129.5 243.5t72.5 261.5q34 189 34 276q0 11 -1 21h229q2 -31 3 -69q0 -28 -2 -60q-12 -232 -132 -464.5t-301 -419.5l-112 -133l-200 -12l-58 376l-21 156 q-112 -241 -243 -383l-112 -137l-205 -12l-57 376z" />
<glyph unicode="x" horiz-adv-x="983" d="M-69 3l434 591l-269 546h287l139 -382l249 382h256l-423 -575l290 -562h-283l-162 399l-262 -399h-256z" />
<glyph unicode="y" horiz-adv-x="1077" d="M-164 -464l66 186q67 -39 135 -39q98 0 187 64.5t205 235.5h-147l-62 375l-111 782h257l81 -752l38 -309q90 169 107 220q91 161 137 327.5t64 371.5q4 49 6 142h230q3 -34 3 -73q0 -31 -2 -66q-18 -342 -220 -741q-110 -228 -255 -412q-99 -128 -140 -171 q-146 -154 -325 -178q-37 -5 -77 -5q-82 0 -177 42z" />
<glyph unicode="z" horiz-adv-x="971" d="M-33 55l571 766l132 130h-510l27 189h753l44 -50l-582 -785l-116 -114h558l-19 -191h-807z" />
<glyph unicode="{" horiz-adv-x="1024" d="M127 688l23 148q138 34 192 62q59 32 65 66l80 523q23 148 75.5 201.5t174.5 53.5q42 0 112.5 -12.5t119.5 -25.5l49 -12q-18 -100 -19 -114h-276l-95 -627q-10 -68 -95 -121q-13 -8 -53.5 -25.5t-75.5 -31.5l-34 -14q5 -3 19.5 -10.5t21 -11l19.5 -10.5t20 -11t18 -10 t18 -11t15 -10.5t14 -10.5t11 -10q50 -51 41 -109l-94 -619h275l-15 -111q-176 -56 -302 -56q-97 0 -137 35.5t-39 118.5l89 630q0 36 -52 70q-59 40 -165 65z" />
<glyph unicode="|" horiz-adv-x="854" d="M344 -186v1966h197v-1966h-197z" />
<glyph unicode="}" horiz-adv-x="1024" d="M55 -162q18 100 19 114h276l95 627q10 68 95 121q13 8 53.5 25.5t74.5 31.5l35 14q-5 3 -19.5 10.5t-21 11l-19.5 10.5t-20 11t-18 10t-18 11t-15 10.5t-14 10.5t-11 10q-50 51 -41 109l94 619h-275l15 111q176 56 302 56q97 0 137 -35.5t39 -118.5l-89 -630 q0 -36 52 -70q59 -40 165 -65l-23 -148q-138 -34 -192 -62q-59 -32 -65 -66l-80 -523q-23 -148 -75.5 -201.5t-174.5 -53.5q-42 0 -112.5 12.5t-119.5 25.5z" />
<glyph unicode="~" horiz-adv-x="1137" d="M115 859q26 79 120.5 146t200.5 67q46 0 89 -17.5t76 -43t64 -51t65 -43t66 -17.5q118 0 196 114l90 -92q-22 -85 -115 -150.5t-203 -65.5q-56 0 -109 27.5t-87.5 60t-79 60t-86.5 27.5q-112 0 -193 -115z" />
<glyph />
<glyph unicode="&#xa1;" horiz-adv-x="686" d="M70 -439l229 1290h188l-150 -1290h-267zM282 1195q6 75 59 121.5t129 46.5q60 0 97.5 -37t32.5 -96q-6 -70 -59.5 -118.5t-127.5 -48.5q-72 0 -104 37t-27 95z" />
<glyph unicode="&#xa2;" horiz-adv-x="1063" d="M123 436q0 156 53 301.5t161 257t252 146.5l58 238h177l-56 -225q116 -7 178 -37l-61 -220q-35 30 -86.5 51.5t-103.5 21.5q-58 0 -116 -36.5t-104 -100t-75 -160t-29 -206.5q0 -161 46 -231.5t144 -70.5q120 0 254 132l72 -125q-45 -64 -130.5 -119t-198.5 -66l-40 -220 h-177l43 234q-130 38 -195.5 152.5t-65.5 282.5z" />
<glyph unicode="&#xa3;" horiz-adv-x="1503" d="M14 76q0 64 71.5 114t188.5 68q64 54 91 231l42 248h-175l22 161h180l19 108q12 84 38.5 160t72 146t105.5 121t145.5 81.5t186.5 30.5q94 0 178.5 -24.5t126.5 -67.5l-109 -172q-17 27 -75.5 61.5t-136.5 34.5q-56 0 -97.5 -16t-79 -56.5t-66 -116t-47.5 -188.5 l-18 -102h309l-21 -161h-315l-15 -86q-28 -167 -58 -251.5t-89 -169.5q2 0 33 -9.5t38 -11.5t37 -11t43 -11.5t40.5 -9.5t45 -9.5l42 -6t46.5 -5t44 -1.5q300 0 300 191q0 39 -26.5 84t-58.5 63l172 134q66 -45 108 -122.5t41 -156.5q-3 -368 -493 -368q-101 0 -202 22.5 t-200 53.5t-152 41q-40 -51 -103.5 -84t-121.5 -33q-47 0 -77 26t-30 70z" />
<glyph unicode="&#xa4;" horiz-adv-x="1540" d="M221 1135l121 122l199 -200q109 71 241 71q138 0 251 -78l195 194l121 -122l-196 -196q69 -109 69 -236q0 -134 -74 -244l199 -198l-122 -121l-199 198q-111 -73 -244 -73q-130 0 -237 69l-199 -199l-122 121l196 196q-78 113 -78 251q0 136 76 247zM516 690 q0 -114 77.5 -196t188.5 -82t188.5 82t77.5 196t-77.5 196t-188.5 82t-188.5 -82t-77.5 -196z" />
<glyph unicode="&#xa5;" horiz-adv-x="1479" d="M193 360l17 146h409l26 210h-407l17 146h338l-299 668h242l228 -556l37 -111l60 116l340 551h262l-486 -668h340l-17 -146h-419l-27 -210h418l-17 -146h-419l-44 -360h-234l44 360h-409z" />
<glyph unicode="&#xa6;" horiz-adv-x="854" d="M344 -186v885h197v-885h-197zM344 895v885h197v-885h-197z" />
<glyph unicode="&#xa7;" horiz-adv-x="1194" d="M112 -67l55 180q35 -46 139.5 -80.5t192.5 -34.5q305 0 305 169q0 54 -59 102t-193 107q-375 165 -379 442q-3 161 178 258q-104 109 -105 253q-2 151 134.5 247.5t377.5 96.5q127 0 218 -32.5t137 -72.5l-64 -172q-40 52 -132.5 76t-168.5 24q-114 0 -184.5 -41.5 t-75.5 -103.5q-2 -31 3 -56.5t21.5 -48t32.5 -38.5t51.5 -37t61 -34.5t76.5 -39.5q19 -9 28 -14q346 -172 351 -415q1 -177 -142 -287q71 -79 72 -178q3 -178 -147 -283.5t-403 -105.5q-118 0 -230 39.5t-151 79.5zM406 853q-2 -34 3.5 -62t22 -53.5t36 -45.5t56.5 -44 t71 -43t91 -49q93 -42 145 -70q52 55 53 140q1 75 -51 136t-204 135q-93 44 -156 83q-63 -51 -67 -127z" />
<glyph unicode="&#xa8;" horiz-adv-x="811" d="M40 1507q2 65 48 112t109 47q60 0 97 -38t35 -91q-2 -68 -48 -116t-116 -48q-52 0 -89.5 40.5t-35.5 93.5zM476 1507q2 65 47.5 112t108.5 47q60 0 97.5 -38t35.5 -91q-2 -68 -48 -116t-116 -48q-52 0 -89.5 40.5t-35.5 93.5z" />
<glyph unicode="&#xa9;" horiz-adv-x="2118" d="M188 963q0 120 31 233.5t86.5 209.5t135.5 177t175.5 137t208.5 87.5t233 31.5q179 0 340.5 -69t277.5 -186t184.5 -279.5t68.5 -341.5q0 -180 -68.5 -342.5t-184.5 -280.5t-277.5 -187.5t-340.5 -69.5t-340.5 69.5t-277.5 187.5t-184 280.5t-68 342.5zM330 963 q0 -153 55.5 -291.5t151 -239.5t231.5 -160.5t290 -59.5t290 59.5t231.5 160.5t151 239.5t55.5 291.5t-55.5 291t-151 239t-231.5 160.5t-290 59.5t-290 -59.5t-231.5 -160.5t-151 -239t-55.5 -291zM614 955q0 219 130.5 358t365.5 139q144 0 243 -56l-34 -176 q-90 60 -221 60q-126 0 -199 -85t-73 -218q-1 -159 71.5 -243t193.5 -84q137 0 241 62l44 -139q-49 -42 -135.5 -69t-182.5 -27q-133 0 -236 67.5t-155 175.5t-53 235z" />
<glyph unicode="&#xaa;" horiz-adv-x="887" d="M93 1027q0 101 40.5 200t110 176.5t170 125.5t212.5 48q97 0 183 -30l117 27l-150 -836h-182l10 130q-119 -130 -264 -130q-119 0 -183 77t-64 212zM305 1048q0 -85 26.5 -127.5t92.5 -42.5q42 0 92 35t94 88l80 436q-39 25 -83 25q-71 0 -130.5 -40.5t-95.5 -103.5 t-56 -133.5t-20 -136.5z" />
<glyph unicode="&#xab;" horiz-adv-x="1913" d="M223 530l25 169l707 396l44 -142l-486 -341l399 -336l-82 -130zM938 530l25 169l707 396l44 -142l-486 -341l399 -336l-82 -130z" />
<glyph unicode="&#xac;" horiz-adv-x="1370" d="M208 679l20 174h960l-62 -531h-201l42 357h-759z" />
<glyph unicode="&#xad;" horiz-adv-x="1266" d="M220 615l23 185h838l-24 -185h-837z" />
<glyph unicode="&#xae;" horiz-adv-x="2118" d="M187 963q0 179 68.5 341.5t184.5 279.5t277.5 186t340.5 69q143 0 277 -44t241 -125t187.5 -188.5t124 -241.5t43.5 -277q0 -144 -43.5 -278.5t-124 -242.5t-187.5 -189.5t-241 -126t-277 -44.5q-179 0 -340.5 69.5t-277.5 187.5t-184.5 281t-68.5 343zM329 963 q0 -205 94.5 -377t262.5 -273t372 -101q205 0 373 101t262.5 273t94.5 377q0 204 -94.5 376t-262.5 273t-373 101q-204 0 -372 -101t-262.5 -273t-94.5 -376zM727 481v962h83q34 0 119 3.5t140 3.5q180 0 271 -76.5t91 -197.5q0 -248 -193 -306q28 -19 53.5 -51t39.5 -57.5 t37.5 -72.5t33.5 -66q23 -40 92 -142l-219 1q-26 31 -70 123q-7 14 -21 45.5t-22.5 50t-24 46t-29.5 44t-34 32t-42 22.5q-22 -1 -114 -1v-363h-191zM918 985q40 -4 127 -4q95 0 142 40t47 130q0 80 -46 120t-163 37q-66 0 -107 -11v-312z" />
<glyph unicode="&#xaf;" horiz-adv-x="616" d="M37 1419l8 167h530l-9 -167h-529z" />
<glyph unicode="&#xb0;" horiz-adv-x="916" d="M163 1277q2 142 101 237.5t248 95.5q143 0 239.5 -97.5t93.5 -235.5q-2 -143 -102.5 -238.5t-250.5 -95.5q-142 0 -237 98t-92 236zM322 1277q-2 -80 50 -136.5t128 -56.5q80 0 132.5 55t53.5 138q2 80 -50.5 136.5t-128.5 56.5q-79 0 -131 -54.5t-54 -138.5z" />
<glyph unicode="&#xb1;" horiz-adv-x="1363" d="M169 21l17 167h880l-17 -167h-880zM223 681l23 190h233l132 -11l13 157l27 245h206l-26 -245l-28 -156l110 10h261l-23 -190h-261l-107 7q-1 -18 -5 -76.5t-5 -78.5l-29 -251h-207l29 251l25 155l-135 -7h-233z" />
<glyph unicode="&#xb2;" horiz-adv-x="1035" d="M140 823q68 37 140 83.5t154.5 110.5t146 127.5t105.5 135.5t42 135q0 125 -161 125q-72 0 -141.5 -31.5t-110.5 -70.5l-81 105q53 64 159.5 117.5t236.5 53.5q163 0 244 -68t81 -175q0 -74 -30 -147.5t-79.5 -135.5t-122 -125t-148 -113.5t-166.5 -103.5l530 28 l-14 -171h-755z" />
<glyph unicode="&#xb3;" horiz-adv-x="1035" d="M159 723l33 146q113 -47 225 -47q101 0 168 15t109 57.5t42 113.5q0 63 -50.5 101t-131.5 37l-149 -41l-20 131q118 20 208 67q126 66 126 152q0 50 -33 78t-124 28q-63 0 -140 -27t-122 -65l-50 115q57 50 168 90t217 40q152 0 235 -60.5t83 -153.5q0 -43 -10.5 -79.5 t-37 -76.5t-80.5 -75t-133 -61q20 2 32 2q110 0 178 -50t68 -146q0 -156 -136.5 -252.5t-391.5 -96.5q-67 0 -148 15.5t-135 42.5z" />
<glyph unicode="&#xb4;" horiz-adv-x="561" d="M40 1316l315 415l169 -156q-30 -57 -167.5 -181.5t-221.5 -156.5z" />
<glyph unicode="&#xb5;" horiz-adv-x="1364" d="M100 -372l176 1208q7 43 1.5 78.5t-25.5 35.5q-41 0 -92 -51l-59 130q9 11 30 29t56.5 41.5t87 39.5t104.5 16q75 0 121 -51.5t33 -150.5q-4 -33 -23 -178t-36.5 -274t-17.5 -128q-11 -103 29.5 -147t109.5 -44q63 0 135.5 54.5t106.5 119.5l104 784h241l-114 -890 q-5 -37 5.5 -60t27.5 -23q50 0 117 72l66 -115q-120 -142 -271 -142q-149 0 -167 140q-30 -34 -54 -55.5t-58.5 -43.5t-78 -32t-98.5 -10q-41 1 -93 21.5t-70 54.5l-64 -429h-230z" />
<glyph unicode="&#xb6;" horiz-adv-x="1364" d="M137 1104q-2 104 29.5 187.5t99 147t181.5 98t269 34.5q88 0 207 -9.5t173 -9.5h286l-15 -130l-167 -33q-17 -148 -88.5 -694.5t-89.5 -694.5h-217l174 1386h-194l-176 -1386h-217l102 745q-161 4 -257.5 100t-99.5 259z" />
<glyph unicode="&#xb7;" horiz-adv-x="686" d="M190 668q0 72 48 124t125 52q67 0 99 -34.5t32 -88.5q0 -82 -47 -129.5t-127 -47.5q-56 0 -93 35t-37 89z" />
<glyph unicode="&#xb8;" horiz-adv-x="481" d="M-16 -436l28 167q28 -15 74 -15q76 0 120.5 35t45.5 128q2 120 -5 151l84 4l63 -4q21 -29 35.5 -91t14.5 -126q0 -143 -75.5 -211t-208.5 -68q-43 0 -101.5 9.5t-74.5 20.5z" />
<glyph unicode="&#xb9;" horiz-adv-x="1035" d="M251 1553q260 62 401 160h1l121 -16l-140 -994h-224l109 766q-89 -25 -259 -46z" />
<glyph unicode="&#xba;" horiz-adv-x="882" d="M99 1095q0 114 41 210t108 157t149 94.5t167 32.5q152 -2 246.5 -103t94.5 -266q0 -116 -39.5 -212t-105.5 -156.5t-149.5 -92.5t-174.5 -31q-141 2 -239 102.5t-98 264.5zM314 1109q0 -111 37 -176.5t100 -66.5q57 -1 100 21.5t68.5 57.5t41 83t21 92t5.5 91 q0 117 -34 182.5t-106 64.5q-64 0 -112 -36t-73 -91.5t-36.5 -111.5t-11.5 -110z" />
<glyph unicode="&#xbb;" horiz-adv-x="1913" d="M216 285l486 341l-399 336l82 130l607 -384l-25 -169l-707 -396zM931 285l486 341l-399 336l82 130l607 -384l-25 -169l-707 -396z" />
<glyph unicode="&#xbc;" horiz-adv-x="2406" d="M241 1379q260 62 401 160h1l121 -16l-140 -994h-224l109 766q-89 -25 -259 -46zM736 -145l736 1818l167 -26l-735 -1814zM1382 277q442 693 501 792h159l72 -82l-441 -595l-69 -76l333 17l46 232l191 12l-33 -233l174 9l-21 -165h-175l-27 -198h-203l27 198h-488z" />
<glyph unicode="&#xbd;" horiz-adv-x="2406" d="M241 1379q260 62 401 160h1l121 -16l-140 -994h-224l109 766q-89 -25 -259 -46zM736 -145l736 1818l167 -26l-735 -1814zM1446 120q68 37 140 83.5t154.5 110.5t146 127.5t105.5 135.5t42 135q0 125 -161 125q-72 0 -141.5 -31.5t-110.5 -70.5l-81 105q53 64 159.5 117.5 t236.5 53.5q163 0 244 -68t81 -175q0 -74 -30 -147.5t-79.5 -135.5t-122 -125t-148 -113.5t-166.5 -103.5l530 28l-14 -171h-755z" />
<glyph unicode="&#xbe;" horiz-adv-x="2449" d="M131 549l33 146q113 -47 225 -47q101 0 168 15t109 57.5t42 113.5q0 63 -50.5 101t-131.5 37l-149 -41l-20 131q118 20 208 67q126 66 126 152q0 50 -33 78t-124 28q-63 0 -140 -27t-122 -65l-50 115q57 50 168 90t217 40q152 0 235 -60.5t83 -153.5q0 -43 -10.5 -79.5 t-37 -76.5t-80.5 -75t-133 -61q20 2 32 2q110 0 178 -50t68 -146q0 -156 -136.5 -252.5t-391.5 -96.5q-67 0 -148 15.5t-135 42.5zM779 -145l736 1818l167 -26l-735 -1814zM1425 277q442 693 501 792h159l72 -82l-441 -595l-69 -76l333 17l46 232l191 12l-33 -233l174 9 l-21 -165h-175l-27 -198h-203l27 198h-488z" />
<glyph unicode="&#xbf;" horiz-adv-x="1040" d="M54 -12q0 97 31 174t80 126t108.5 89t119 70.5t108.5 61t80 71t31 90.5q0 25 -9 54.5t-20.5 57t-13.5 36.5l139 55l17 -1q40 -32 70 -99t30 -134q0 -88 -64.5 -157t-213.5 -148q-230 -111 -256 -208q-14 -52 -14 -105q0 -125 95.5 -199.5t229.5 -74.5q118 0 214 30 l-36 -167q-22 -22 -84 -37.5t-123 -15.5q-135 0 -238 35.5t-162.5 97t-89 136.5t-29.5 162zM445 1183q0 81 47 129t126 48q57 0 94 -35t37 -89q0 -72 -48.5 -124.5t-124.5 -52.5q-67 0 -99 35t-32 89z" />
<glyph unicode="&#xc0;" horiz-adv-x="1289" d="M-90 0l744 1530h288l269 -1530h-245l-55 363h-575l-161 -363h-265zM415 541h469l-104 685l-11 117l-51 -121zM482 1859l150 145l277 -342l-94 -82q-78 29 -184.5 115.5t-148.5 163.5z" />
<glyph unicode="&#xc1;" horiz-adv-x="1289" d="M-90 0l744 1530h288l269 -1530h-245l-55 363h-575l-161 -363h-265zM415 541h469l-104 685l-11 117l-51 -121zM741 1662l277 342l150 -145q-43 -77 -149.5 -163.5t-183.5 -115.5z" />
<glyph unicode="&#xc2;" horiz-adv-x="1289" d="M-90 0l744 1530h288l269 -1530h-245l-55 363h-575l-161 -363h-265zM415 541h469l-104 685l-11 117l-51 -121zM459 1659l340 345h179l196 -342l-109 -71l-202 214l-306 -220z" />
<glyph unicode="&#xc3;" horiz-adv-x="1289" d="M-90 0l744 1530h288l269 -1530h-245l-55 363h-575l-161 -363h-265zM415 541h469l-104 685l-11 117l-51 -121zM432 1796q34 67 121 122t165 55q44 0 81 -14.5t61.5 -35.5t46.5 -41.5t46.5 -35t51.5 -14.5q18 0 35.5 5.5t28.5 11t26 21t20.5 21.5t21.5 26.5t19 24.5 l96 -106q-27 -76 -110 -133.5t-168 -57.5q-48 0 -86 14.5t-62.5 35t-46.5 41t-49.5 35t-59.5 15.5q-12 0 -24 -2.5t-21 -5t-20 -10t-17 -11.5t-17.5 -15t-15 -14.5t-16 -16.5t-14.5 -15z" />
<glyph unicode="&#xc4;" horiz-adv-x="1289" d="M-90 0l744 1530h288l269 -1530h-245l-55 363h-575l-161 -363h-265zM415 541h469l-104 685l-11 117l-51 -121zM464 1810q2 65 49 112.5t107 47.5t96.5 -38.5t34.5 -91.5q-2 -67 -48 -115t-115 -48q-51 0 -88.5 40.5t-35.5 92.5zM898 1810q1 64 49 112t108 48t97 -38.5 t35 -91.5q-2 -67 -48.5 -115t-115.5 -48q-51 0 -88 40t-37 93z" />
<glyph unicode="&#xc5;" horiz-adv-x="1289" d="M-90 0l727 1495q-145 60 -145 226q0 72 33.5 128t87.5 89t115 49.5t124 16.5q131 0 208 -67t77 -188q0 -95 -51.5 -159.5t-137.5 -95.5l263 -1494h-245l-55 363h-575l-161 -363h-265zM415 541h469l-104 685l-11 117l-51 -121zM648 1724q0 -58 43.5 -99t105.5 -41 q182 0 182 168q0 59 -41.5 97.5t-104.5 38.5q-76 0 -130.5 -38.5t-54.5 -125.5z" />
<glyph unicode="&#xc6;" horiz-adv-x="1829" d="M-126 0l767 1384l-276 25l18 121h1399l-16 -192l-575 6l-62 -470l433 6l-19 -199l-437 13l-67 -509l680 15l-21 -200h-928l50 380h-478l-201 -380h-267zM438 561h406l103 791l-87 7z" />
<glyph unicode="&#xc7;" horiz-adv-x="1160" d="M103 626q-3 262 92.5 473t265.5 329t382 118q64 0 121.5 -9t86 -17.5t72.5 -24.5l54 -17l-80 -215q-29 20 -51 32t-84 28.5t-135 16.5q-87 0 -160.5 -31t-124 -85.5t-89 -123t-60 -148.5t-31.5 -157.5t-9 -153.5q2 -212 81 -336t237 -124q109 0 204 34t140 68l34 -191 q-39 -29 -123.5 -61t-209.5 -42q28 -76 28 -174q0 -143 -75.5 -211t-208.5 -68q-43 0 -101.5 9.5t-74.5 20.5l28 167q28 -15 74 -15q76 0 120.5 35t45.5 128v107q-97 10 -174.5 52t-127.5 103t-83.5 142t-48 165t-15.5 176z" />
<glyph unicode="&#xc8;" horiz-adv-x="1158" d="M99 0l200 1530h812l-16 -192l-576 6l-61 -470l432 6l-19 -199l-436 13l-67 -509l680 15l-21 -200h-928zM399 1859l150 145l277 -342l-94 -82q-78 29 -184.5 115.5t-148.5 163.5z" />
<glyph unicode="&#xc9;" horiz-adv-x="1158" d="M99 0l200 1530h812l-16 -192l-576 6l-61 -470l432 6l-19 -199l-436 13l-67 -509l680 15l-21 -200h-928zM658 1662l277 342l150 -145q-43 -77 -149.5 -163.5t-183.5 -115.5z" />
<glyph unicode="&#xca;" horiz-adv-x="1158" d="M99 0l200 1530h812l-16 -192l-576 6l-61 -470l432 6l-19 -199l-436 13l-67 -509l680 15l-21 -200h-928zM376 1659l340 345h179l196 -342l-109 -71l-202 214l-306 -220z" />
<glyph unicode="&#xcb;" horiz-adv-x="1158" d="M99 0l200 1530h812l-16 -192l-576 6l-61 -470l432 6l-19 -199l-436 13l-67 -509l680 15l-21 -200h-928zM381 1810q2 65 49 112.5t107 47.5t96.5 -38.5t34.5 -91.5q-2 -67 -48 -115t-115 -48q-51 0 -88.5 40.5t-35.5 92.5zM815 1810q1 64 49 112t108 48t97 -38.5t35 -91.5 q-2 -67 -48.5 -115t-115.5 -48q-51 0 -88 40t-37 93z" />
<glyph unicode="&#xcc;" horiz-adv-x="618" d="M118 0l201 1530h245l-201 -1530h-245zM133 1859l150 145l277 -342l-94 -82q-78 29 -184.5 115.5t-148.5 163.5z" />
<glyph unicode="&#xcd;" horiz-adv-x="618" d="M118 0l201 1530h245l-201 -1530h-245zM392 1662l277 342l150 -145q-43 -77 -149.5 -163.5t-183.5 -115.5z" />
<glyph unicode="&#xce;" horiz-adv-x="618" d="M110 1659l340 345h179l196 -342l-109 -71l-202 214l-306 -220zM118 0l201 1530h245l-201 -1530h-245z" />
<glyph unicode="&#xcf;" horiz-adv-x="618" d="M115 1810q2 65 49 112.5t107 47.5t96.5 -38.5t34.5 -91.5q-2 -67 -48 -115t-115 -48q-51 0 -88.5 40.5t-35.5 92.5zM118 0l201 1530h245l-201 -1530h-245zM549 1810q1 64 49 112t108 48t97 -38.5t35 -91.5q-2 -67 -48.5 -115t-115.5 -48q-51 0 -88 40t-37 93z" />
<glyph unicode="&#xd0;" horiz-adv-x="1395" d="M38 707l19 167h159l86 656h127q43 0 162.5 8t166.5 8q151 0 263 -44.5t179.5 -128t100.5 -195t35 -253.5q2 -155 -31.5 -297.5t-102 -260.5t-164 -204.5t-224 -133.5t-275.5 -45q-56 2 -122 7q-85 7 -178 9h-137l92 707h-156zM371 194q92 -30 213 -27q102 2 186.5 46 t142 116t97.5 168t57.5 201.5t15.5 216.5q-2 171 -43 269.5t-123 140t-222 41.5q-92 0 -172 -18l-62 -474h356l-19 -167h-359z" />
<glyph unicode="&#xd1;" horiz-adv-x="1434" d="M102 0l200 1530h237l415 -981l67 -223l18 252l115 952h234l-201 -1530h-224l-423 1002l-67 245l-18 -291l-122 -956h-231zM492 1796q34 67 121 122t165 55q44 0 81 -14.5t61.5 -35.5t46.5 -41.5t46.5 -35t51.5 -14.5q18 0 35.5 5.5t28.5 11t26 21t20.5 21.5t21.5 26.5 t19 24.5l96 -106q-27 -76 -110 -133.5t-168 -57.5q-48 0 -86 14.5t-62.5 35t-46.5 41t-49.5 35t-59.5 15.5q-12 0 -24 -2.5t-21 -5t-20 -10t-17 -11.5t-17.5 -15t-15 -14.5t-16 -16.5t-14.5 -15z" />
<glyph unicode="&#xd2;" horiz-adv-x="1383" d="M95 600q-3 196 49.5 370t146.5 301t230.5 201t294.5 74q122 0 219.5 -48.5t159 -134t94 -196t34.5 -238.5q2 -194 -49 -367t-143.5 -301t-229 -202.5t-296.5 -74.5q-123 0 -221 48.5t-159.5 133.5t-94.5 195.5t-35 238.5zM349 632q4 -242 73.5 -352t213.5 -110 q128 0 229.5 105t154 270.5t49.5 353.5q-3 241 -72.5 349t-214.5 108q-96 0 -179.5 -63t-138.5 -165t-86 -232t-29 -264zM519 1859l150 145l277 -342l-94 -82q-78 29 -184.5 115.5t-148.5 163.5z" />
<glyph unicode="&#xd3;" horiz-adv-x="1383" d="M95 600q-3 196 49.5 370t146.5 301t230.5 201t294.5 74q122 0 219.5 -48.5t159 -134t94 -196t34.5 -238.5q2 -194 -49 -367t-143.5 -301t-229 -202.5t-296.5 -74.5q-123 0 -221 48.5t-159.5 133.5t-94.5 195.5t-35 238.5zM349 632q4 -242 73.5 -352t213.5 -110 q128 0 229.5 105t154 270.5t49.5 353.5q-3 241 -72.5 349t-214.5 108q-96 0 -179.5 -63t-138.5 -165t-86 -232t-29 -264zM778 1662l277 342l150 -145q-43 -77 -149.5 -163.5t-183.5 -115.5z" />
<glyph unicode="&#xd4;" horiz-adv-x="1383" d="M95 600q-3 196 49.5 370t146.5 301t230.5 201t294.5 74q122 0 219.5 -48.5t159 -134t94 -196t34.5 -238.5q2 -194 -49 -367t-143.5 -301t-229 -202.5t-296.5 -74.5q-123 0 -221 48.5t-159.5 133.5t-94.5 195.5t-35 238.5zM349 632q4 -242 73.5 -352t213.5 -110 q128 0 229.5 105t154 270.5t49.5 353.5q-3 241 -72.5 349t-214.5 108q-96 0 -179.5 -63t-138.5 -165t-86 -232t-29 -264zM496 1659l340 345h179l196 -342l-109 -71l-202 214l-306 -220z" />
<glyph unicode="&#xd5;" horiz-adv-x="1383" d="M95 600q-3 196 49.5 370t146.5 301t230.5 201t294.5 74q122 0 219.5 -48.5t159 -134t94 -196t34.5 -238.5q2 -194 -49 -367t-143.5 -301t-229 -202.5t-296.5 -74.5q-123 0 -221 48.5t-159.5 133.5t-94.5 195.5t-35 238.5zM349 632q4 -242 73.5 -352t213.5 -110 q128 0 229.5 105t154 270.5t49.5 353.5q-3 241 -72.5 349t-214.5 108q-96 0 -179.5 -63t-138.5 -165t-86 -232t-29 -264zM469 1796q34 67 121 122t165 55q44 0 81 -14.5t61.5 -35.5t46.5 -41.5t46.5 -35t51.5 -14.5q18 0 35.5 5.5t28.5 11t26 21t20.5 21.5t21.5 26.5 t19 24.5l96 -106q-27 -76 -110 -133.5t-168 -57.5q-48 0 -86 14.5t-62.5 35t-46.5 41t-49.5 35t-59.5 15.5q-12 0 -24 -2.5t-21 -5t-20 -10t-17 -11.5t-17.5 -15t-15 -14.5t-16 -16.5t-14.5 -15z" />
<glyph unicode="&#xd6;" horiz-adv-x="1383" d="M95 600q-3 196 49.5 370t146.5 301t230.5 201t294.5 74q122 0 219.5 -48.5t159 -134t94 -196t34.5 -238.5q2 -194 -49 -367t-143.5 -301t-229 -202.5t-296.5 -74.5q-123 0 -221 48.5t-159.5 133.5t-94.5 195.5t-35 238.5zM349 632q4 -242 73.5 -352t213.5 -110 q128 0 229.5 105t154 270.5t49.5 353.5q-3 241 -72.5 349t-214.5 108q-96 0 -179.5 -63t-138.5 -165t-86 -232t-29 -264zM501 1810q2 65 49 112.5t107 47.5t96.5 -38.5t34.5 -91.5q-2 -67 -48 -115t-115 -48q-51 0 -88.5 40.5t-35.5 92.5zM935 1810q1 64 49 112t108 48 t97 -38.5t35 -91.5q-2 -67 -48.5 -115t-115.5 -48q-51 0 -88 40t-37 93z" />
<glyph unicode="&#xd7;" horiz-adv-x="1378" d="M212 443l383 330l-304 330l155 141l284 -353l372 353l123 -148l-386 -330l307 -330l-155 -141l-287 353l-369 -353z" />
<glyph unicode="&#xd8;" horiz-adv-x="1383" d="M82 -83l154 234q-138 169 -141 449q-3 196 49.5 370t146.5 301t230.5 201t294.5 74q159 0 274 -81l130 205l89 -49l-143 -224q76 -84 115.5 -205t41.5 -263q2 -194 -49 -367t-143.5 -301t-229 -202.5t-296.5 -74.5q-173 0 -296 95l-138 -211zM349 632q1 -166 37 -273 l576 931q-66 66 -180 66q-96 0 -179.5 -63t-138.5 -165t-86 -232t-29 -264zM439 255q69 -85 197 -85t229.5 105t154 270.5t49.5 353.5q-3 191 -47 297z" />
<glyph unicode="&#xd9;" horiz-adv-x="1386" d="M137 429q-1 48 13 165l122 936h245l-118 -898q-12 -109 -12 -192q3 -134 67 -198t190 -64q152 0 237.5 107t118.5 356l116 889h241l-119 -912q-45 -340 -197 -487t-433 -147q-231 0 -349.5 116.5t-121.5 328.5zM503 1859l150 145l277 -342l-94 -82q-78 29 -184.5 115.5 t-148.5 163.5z" />
<glyph unicode="&#xda;" horiz-adv-x="1386" d="M137 429q-1 48 13 165l122 936h245l-118 -898q-12 -109 -12 -192q3 -134 67 -198t190 -64q152 0 237.5 107t118.5 356l116 889h241l-119 -912q-45 -340 -197 -487t-433 -147q-231 0 -349.5 116.5t-121.5 328.5zM763 1662l277 342l150 -145q-43 -77 -149.5 -163.5 t-183.5 -115.5z" />
<glyph unicode="&#xdb;" horiz-adv-x="1386" d="M137 429q-1 48 13 165l122 936h245l-118 -898q-12 -109 -12 -192q3 -134 67 -198t190 -64q152 0 237.5 107t118.5 356l116 889h241l-119 -912q-45 -340 -197 -487t-433 -147q-231 0 -349.5 116.5t-121.5 328.5zM481 1659l340 345h179l196 -342l-109 -71l-202 214 l-306 -220z" />
<glyph unicode="&#xdc;" horiz-adv-x="1386" d="M137 429q-1 48 13 165l122 936h245l-118 -898q-12 -109 -12 -192q3 -134 67 -198t190 -64q152 0 237.5 107t118.5 356l116 889h241l-119 -912q-45 -340 -197 -487t-433 -147q-231 0 -349.5 116.5t-121.5 328.5zM486 1810q2 65 49 112.5t107 47.5t96.5 -38.5t34.5 -91.5 q-2 -67 -48 -115t-115 -48q-51 0 -88.5 40.5t-35.5 92.5zM920 1810q1 64 49 112t108 48t97 -38.5t35 -91.5q-2 -67 -48.5 -115t-115.5 -48q-51 0 -88 40t-37 93z" />
<glyph unicode="&#xdd;" horiz-adv-x="1111" d="M86 1530h260l216 -642l30 -93l44 93l373 642h267l-595 -940l-79 -590h-238l79 590zM628 1662l277 342l150 -145q-43 -77 -149.5 -163.5t-183.5 -115.5z" />
<glyph unicode="&#xde;" horiz-adv-x="1239" d="M100 0l199 1530h247l-32 -247q128 11 188 11q232 0 355.5 -100t125.5 -300q3 -185 -73.5 -328t-220 -221.5t-332.5 -78.5q-75 0 -174 11l-36 -277h-247zM408 469q61 -16 155 -14q365 3 376 417q3 121 -64 182.5t-214 61.5q-93 0 -171 -16z" />
<glyph unicode="&#xdf;" horiz-adv-x="1225" d="M73 3l120 927q16 125 47 225t68.5 168t87.5 118t97.5 77.5t106 44t105 21t102.5 4.5q155 0 250 -77t95 -218q0 -79 -25.5 -143t-62 -104.5t-72.5 -75.5t-61.5 -72t-25.5 -76q0 -10 2.5 -21t9 -24t13 -24t18 -27.5t19.5 -27.5t23 -31.5t23 -31.5q56 -77 90 -152.5 t34 -164.5q0 -152 -110 -243t-307 -91q-75 0 -148.5 14.5t-108.5 32.5l26 210q29 -29 87 -54t114 -24q105 1 151.5 34.5t46.5 117.5q0 79 -93 212q-128 160 -128 265q0 65 28 113t84 107q66 66 99.5 128t33.5 138q0 62 -42 103.5t-118 41.5q-47 0 -86 -15t-77 -53 t-67.5 -100t-54.5 -159t-42 -226l-112 -867h-240z" />
<glyph unicode="&#xe0;" horiz-adv-x="1182" d="M78 415q0 102 24 204t76.5 199.5t127.5 172t186 120t243 45.5q108 0 233 -37l134 37l-157 -1156h-217l15 206q-60 -94 -149 -158t-198 -64q-161 0 -239.5 116.5t-78.5 314.5zM329 1575l170 156l302 -416l-97 -78q-71 29 -202 147t-173 191zM331 438q0 -276 127 -276 q46 0 92.5 26.5t85.5 70t69.5 88.5t55.5 94l76 534q-59 18 -131 18q-76 0 -139.5 -35t-106 -91.5t-72.5 -130t-43.5 -149t-13.5 -149.5z" />
<glyph unicode="&#xe1;" horiz-adv-x="1182" d="M78 415q0 102 24 204t76.5 199.5t127.5 172t186 120t243 45.5q108 0 233 -37l134 37l-157 -1156h-217l15 206q-60 -94 -149 -158t-198 -64q-161 0 -239.5 116.5t-78.5 314.5zM331 438q0 -276 127 -276q46 0 92.5 26.5t85.5 70t69.5 88.5t55.5 94l76 534q-59 18 -131 18 q-76 0 -139.5 -35t-106 -91.5t-72.5 -130t-43.5 -149t-13.5 -149.5zM617 1316l315 415l169 -156q-30 -57 -167.5 -181.5t-221.5 -156.5z" />
<glyph unicode="&#xe2;" horiz-adv-x="1182" d="M78 415q0 102 24 204t76.5 199.5t127.5 172t186 120t243 45.5q108 0 233 -37l134 37l-157 -1156h-217l15 206q-60 -94 -149 -158t-198 -64q-161 0 -239.5 116.5t-78.5 314.5zM331 438q0 -276 127 -276q46 0 92.5 26.5t85.5 70t69.5 88.5t55.5 94l76 534q-59 18 -131 18 q-76 0 -139.5 -35t-106 -91.5t-72.5 -130t-43.5 -149t-13.5 -149.5zM366 1282l340 374h179l196 -374l-112 -68l-202 237l-306 -243z" />
<glyph unicode="&#xe3;" horiz-adv-x="1182" d="M78 415q0 102 24 204t76.5 199.5t127.5 172t186 120t243 45.5q108 0 233 -37l134 37l-157 -1156h-217l15 206q-60 -94 -149 -158t-198 -64q-161 0 -239.5 116.5t-78.5 314.5zM331 438q0 -276 127 -276q46 0 92.5 26.5t85.5 70t69.5 88.5t55.5 94l76 534q-59 18 -131 18 q-76 0 -139.5 -35t-106 -91.5t-72.5 -130t-43.5 -149t-13.5 -149.5zM335 1487q34 67 121 122t165 55q44 0 81 -15t61.5 -36t46 -42t46.5 -36t51 -15q19 0 36 5.5t28 11t26.5 21t21 21.5t21.5 27t19 24l95 -106q-27 -75 -109.5 -132.5t-167.5 -57.5q-48 0 -86 14.5 t-62.5 35.5t-46.5 42t-49.5 36t-59.5 16q-11 0 -21 -1t-20 -5.5t-17 -7t-17 -10.5t-15 -11t-15 -13.5t-13 -13.5t-14 -15t-13 -14z" />
<glyph unicode="&#xe4;" horiz-adv-x="1182" d="M78 415q0 102 24 204t76.5 199.5t127.5 172t186 120t243 45.5q108 0 233 -37l134 37l-157 -1156h-217l15 206q-60 -94 -149 -158t-198 -64q-161 0 -239.5 116.5t-78.5 314.5zM331 438q0 -276 127 -276q46 0 92.5 26.5t85.5 70t69.5 88.5t55.5 94l76 534q-59 18 -131 18 q-76 0 -139.5 -35t-106 -91.5t-72.5 -130t-43.5 -149t-13.5 -149.5zM395 1507q2 65 48 112t109 47q60 0 97 -38t35 -91q-2 -68 -48 -116t-116 -48q-52 0 -89.5 40.5t-35.5 93.5zM831 1507q2 65 47.5 112t108.5 47q60 0 97.5 -38t35.5 -91q-2 -68 -48 -116t-116 -48 q-52 0 -89.5 40.5t-35.5 93.5z" />
<glyph unicode="&#xe5;" horiz-adv-x="1182" d="M78 415q0 102 24 204t76.5 199.5t127.5 172t186 120t243 45.5q108 0 233 -37l134 37l-157 -1156h-217l15 206q-60 -94 -149 -158t-198 -64q-161 0 -239.5 116.5t-78.5 314.5zM331 438q0 -276 127 -276q46 0 92.5 26.5t85.5 70t69.5 88.5t55.5 94l76 534q-59 18 -131 18 q-76 0 -139.5 -35t-106 -91.5t-72.5 -130t-43.5 -149t-13.5 -149.5zM459 1507q0 72 33.5 128.5t87 89t115 49.5t124.5 17q130 0 207.5 -67t77.5 -189q0 -135 -102.5 -208.5t-247.5 -73.5q-139 0 -217 66.5t-78 187.5zM615 1510q0 -58 43.5 -99t105.5 -41q182 0 182 168 q0 59 -41.5 97.5t-104.5 38.5q-76 0 -130.5 -38.5t-54.5 -125.5z" />
<glyph unicode="&#xe6;" horiz-adv-x="1674" d="M77 415q0 102 24.5 204t78.5 199.5t131 172t190.5 120t248.5 45.5q158 0 279 -74q126 74 281 74q148 0 223 -69t75 -185q0 -78 -29.5 -145.5t-82 -117t-116.5 -89.5t-140 -67t-145.5 -44t-139.5 -27q-2 -48 5.5 -88t26.5 -78t59.5 -60t99.5 -22q79 0 167.5 44t161.5 117 l66 -129q-55 -76 -174.5 -144t-263.5 -68q-155 0 -252 78t-133 206q-59 -121 -144 -202.5t-196 -81.5q-301 0 -301 431zM330 438q0 -142 28 -205.5t89 -63.5q122 0 251 275q8 311 180 512q-77 37 -158 37q-78 0 -144.5 -35t-110.5 -92t-75.5 -130t-45.5 -148.5t-14 -149.5z M957 563q58 3 127.5 27t133.5 63.5t107 100t43 126.5q0 114 -112 114q-64 0 -120 -43.5t-92 -110.5t-58.5 -139t-28.5 -138z" />
<glyph unicode="&#xe7;" horiz-adv-x="920" d="M82 436q0 105 25 208t75.5 195t120 163t165.5 112.5t206 41.5q152 0 231 -39l-61 -220q-35 30 -86.5 51.5t-103.5 21.5q-58 0 -116 -36.5t-104 -100t-75 -160t-29 -206.5q0 -161 46 -231.5t144 -70.5q120 0 254 132l72 -125q-40 -57 -114 -108.5t-171 -70.5 q31 -79 31 -180q0 -143 -75.5 -211t-208.5 -68q-43 0 -101.5 9.5t-74.5 20.5l28 167q28 -15 74 -15q76 0 120.5 35t45.5 128v110q-158 23 -238 142t-80 305z" />
<glyph unicode="&#xe8;" horiz-adv-x="1058" d="M82 436q3 202 81.5 366t217.5 259t313 95q148 0 223 -69t75 -185q0 -78 -29.5 -145.5t-82 -117t-116.5 -89.5t-140 -67t-145.5 -44t-139.5 -27q-2 -48 5.5 -88t26.5 -78t59.5 -60t99.5 -22q79 0 167.5 44t161.5 117l66 -129q-55 -76 -174.5 -144t-263.5 -68 q-105 0 -186 38t-128 102.5t-70 143.5t-21 168zM262 1575l170 156l302 -416l-97 -78q-71 29 -202 147t-173 191zM341 563q58 3 127.5 27t133.5 63.5t107 100t43 126.5q0 114 -112 114q-64 0 -120 -43.5t-92 -110.5t-58.5 -139t-28.5 -138z" />
<glyph unicode="&#xe9;" horiz-adv-x="1058" d="M82 436q3 202 81.5 366t217.5 259t313 95q148 0 223 -69t75 -185q0 -78 -29.5 -145.5t-82 -117t-116.5 -89.5t-140 -67t-145.5 -44t-139.5 -27q-2 -48 5.5 -88t26.5 -78t59.5 -60t99.5 -22q79 0 167.5 44t161.5 117l66 -129q-55 -76 -174.5 -144t-263.5 -68 q-105 0 -186 38t-128 102.5t-70 143.5t-21 168zM341 563q58 3 127.5 27t133.5 63.5t107 100t43 126.5q0 114 -112 114q-64 0 -120 -43.5t-92 -110.5t-58.5 -139t-28.5 -138zM550 1316l315 415l169 -156q-30 -57 -167.5 -181.5t-221.5 -156.5z" />
<glyph unicode="&#xea;" horiz-adv-x="1058" d="M82 436q3 202 81.5 366t217.5 259t313 95q148 0 223 -69t75 -185q0 -78 -29.5 -145.5t-82 -117t-116.5 -89.5t-140 -67t-145.5 -44t-139.5 -27q-2 -48 5.5 -88t26.5 -78t59.5 -60t99.5 -22q79 0 167.5 44t161.5 117l66 -129q-55 -76 -174.5 -144t-263.5 -68 q-105 0 -186 38t-128 102.5t-70 143.5t-21 168zM299 1282l340 374h179l196 -374l-112 -68l-202 237l-306 -243zM341 563q58 3 127.5 27t133.5 63.5t107 100t43 126.5q0 114 -112 114q-64 0 -120 -43.5t-92 -110.5t-58.5 -139t-28.5 -138z" />
<glyph unicode="&#xeb;" horiz-adv-x="1058" d="M82 436q3 202 81.5 366t217.5 259t313 95q148 0 223 -69t75 -185q0 -78 -29.5 -145.5t-82 -117t-116.5 -89.5t-140 -67t-145.5 -44t-139.5 -27q-2 -48 5.5 -88t26.5 -78t59.5 -60t99.5 -22q79 0 167.5 44t161.5 117l66 -129q-55 -76 -174.5 -144t-263.5 -68 q-105 0 -186 38t-128 102.5t-70 143.5t-21 168zM328 1507q2 65 48 112t109 47q60 0 97 -38t35 -91q-2 -68 -48 -116t-116 -48q-52 0 -89.5 40.5t-35.5 93.5zM341 563q58 3 127.5 27t133.5 63.5t107 100t43 126.5q0 114 -112 114q-64 0 -120 -43.5t-92 -110.5t-58.5 -139 t-28.5 -138zM764 1507q2 65 47.5 112t108.5 47q60 0 97.5 -38t35.5 -91q-2 -68 -48 -116t-116 -48q-52 0 -89.5 40.5t-35.5 93.5z" />
<glyph unicode="&#xec;" horiz-adv-x="608" d="M18 1575l170 156l302 -416l-97 -78q-71 29 -202 147t-173 191zM111 0l155 1140h244l-156 -1140h-243z" />
<glyph unicode="&#xed;" horiz-adv-x="608" d="M111 0l155 1140h244l-156 -1140h-243zM305 1316l315 415l169 -156q-30 -57 -167.5 -181.5t-221.5 -156.5z" />
<glyph unicode="&#xee;" horiz-adv-x="608" d="M55 1282l340 374h179l196 -374l-112 -68l-202 237l-306 -243zM111 0l155 1140h244l-156 -1140h-243z" />
<glyph unicode="&#xef;" horiz-adv-x="608" d="M84 1507q2 65 48 112t109 47q60 0 97 -38t35 -91q-2 -68 -48 -116t-116 -48q-52 0 -89.5 40.5t-35.5 93.5zM111 0l155 1140h244l-156 -1140h-243zM520 1507q2 65 47.5 112t108.5 47q60 0 97.5 -38t35.5 -91q-2 -68 -48 -116t-116 -48q-52 0 -89.5 40.5t-35.5 93.5z" />
<glyph unicode="&#xf0;" horiz-adv-x="1188" d="M82 439q0 166 45 303t122 227t178 139t213 49q74 0 138 -23.5t95 -70.5q-15 119 -57 204t-120 164l-137 -154l-112 96l145 150q-126 100 -237 131l49 137q134 -35 297 -144l148 171l104 -97l-142 -161q294 -280 294 -711q0 -143 -24.5 -272t-74.5 -237.5t-121 -187.5 t-169.5 -123.5t-214.5 -44.5q-102 0 -184.5 40.5t-132.5 107t-76 145.5t-26 162zM342 427q0 -119 50.5 -203t138.5 -84q107 0 190.5 128t111.5 316q22 133 26 219q1 23 -12 55t-38 65t-70 56t-98 23q-75 0 -134.5 -52t-94 -137t-52.5 -184t-18 -202z" />
<glyph unicode="&#xf1;" horiz-adv-x="1232" d="M81 3l155 1137h232l-19 -217q85 104 196 168.5t225 64.5q120 0 179 -69t59 -225q0 -71 -40 -348q-17 -122 -75 -511h-244q13 93 40 279t33 231q35 256 35 321q1 68 -22.5 91.5t-74.5 23.5q-74 0 -171.5 -69.5t-167.5 -167.5l-96 -709h-244zM318 1487q34 67 121 122 t165 55q44 0 81 -15t61.5 -36t46 -42t46.5 -36t51 -15q19 0 36 5.5t28 11t26.5 21t21 21.5t21.5 27t19 24l95 -106q-27 -75 -109.5 -132.5t-167.5 -57.5q-48 0 -86 14.5t-62.5 35.5t-46.5 42t-49.5 36t-59.5 16q-11 0 -21 -1t-20 -5.5t-17 -7t-17 -10.5t-15 -11t-15 -13.5 t-13 -13.5t-14 -15t-13 -14z" />
<glyph unicode="&#xf2;" horiz-adv-x="1149" d="M82 452q-1 136 40.5 263t117 225t188.5 157t245 59q194 0 291 -123.5t100 -343.5q1 -109 -24 -212.5t-76 -192.5t-121 -156t-163.5 -105.5t-199.5 -38.5q-195 0 -295.5 125t-102.5 343zM267 1575l170 156l302 -416l-97 -78q-71 29 -202 147t-173 191zM330 442 q3 -291 185 -291q75 0 134.5 50.5t94.5 132t52.5 175.5t16.5 189q-2 146 -44.5 218.5t-133.5 72.5q-75 0 -135.5 -51t-96.5 -132.5t-55 -176t-18 -187.5z" />
<glyph unicode="&#xf3;" horiz-adv-x="1149" d="M82 452q-1 136 40.5 263t117 225t188.5 157t245 59q194 0 291 -123.5t100 -343.5q1 -109 -24 -212.5t-76 -192.5t-121 -156t-163.5 -105.5t-199.5 -38.5q-195 0 -295.5 125t-102.5 343zM330 442q3 -291 185 -291q75 0 134.5 50.5t94.5 132t52.5 175.5t16.5 189 q-2 146 -44.5 218.5t-133.5 72.5q-75 0 -135.5 -51t-96.5 -132.5t-55 -176t-18 -187.5zM555 1316l315 415l169 -156q-30 -57 -167.5 -181.5t-221.5 -156.5z" />
<glyph unicode="&#xf4;" horiz-adv-x="1149" d="M82 452q-1 136 40.5 263t117 225t188.5 157t245 59q194 0 291 -123.5t100 -343.5q1 -109 -24 -212.5t-76 -192.5t-121 -156t-163.5 -105.5t-199.5 -38.5q-195 0 -295.5 125t-102.5 343zM304 1282l340 374h179l196 -374l-112 -68l-202 237l-306 -243zM330 442 q3 -291 185 -291q75 0 134.5 50.5t94.5 132t52.5 175.5t16.5 189q-2 146 -44.5 218.5t-133.5 72.5q-75 0 -135.5 -51t-96.5 -132.5t-55 -176t-18 -187.5z" />
<glyph unicode="&#xf5;" horiz-adv-x="1149" d="M82 452q-1 136 40.5 263t117 225t188.5 157t245 59q194 0 291 -123.5t100 -343.5q1 -109 -24 -212.5t-76 -192.5t-121 -156t-163.5 -105.5t-199.5 -38.5q-195 0 -295.5 125t-102.5 343zM273 1487q34 67 121 122t165 55q44 0 81 -15t61.5 -36t46 -42t46.5 -36t51 -15 q19 0 36 5.5t28 11t26.5 21t21 21.5t21.5 27t19 24l95 -106q-27 -75 -109.5 -132.5t-167.5 -57.5q-48 0 -86 14.5t-62.5 35.5t-46.5 42t-49.5 36t-59.5 16q-11 0 -21 -1t-20 -5.5t-17 -7t-17 -10.5t-15 -11t-15 -13.5t-13 -13.5t-14 -15t-13 -14zM330 442q3 -291 185 -291 q75 0 134.5 50.5t94.5 132t52.5 175.5t16.5 189q-2 146 -44.5 218.5t-133.5 72.5q-75 0 -135.5 -51t-96.5 -132.5t-55 -176t-18 -187.5z" />
<glyph unicode="&#xf6;" horiz-adv-x="1149" d="M82 452q-1 136 40.5 263t117 225t188.5 157t245 59q194 0 291 -123.5t100 -343.5q1 -109 -24 -212.5t-76 -192.5t-121 -156t-163.5 -105.5t-199.5 -38.5q-195 0 -295.5 125t-102.5 343zM330 442q3 -291 185 -291q75 0 134.5 50.5t94.5 132t52.5 175.5t16.5 189 q-2 146 -44.5 218.5t-133.5 72.5q-75 0 -135.5 -51t-96.5 -132.5t-55 -176t-18 -187.5zM333 1507q2 65 48 112t109 47q60 0 97 -38t35 -91q-2 -68 -48 -116t-116 -48q-52 0 -89.5 40.5t-35.5 93.5zM769 1507q2 65 47.5 112t108.5 47q60 0 97.5 -38t35.5 -91q-2 -68 -48 -116 t-116 -48q-52 0 -89.5 40.5t-35.5 93.5z" />
<glyph unicode="&#xf7;" horiz-adv-x="1356" d="M236 683l23 190l897 -1l-23 -189h-897zM493 352q5 69 60.5 118.5t124.5 49.5q72 0 104.5 -37t28.5 -95q-6 -74 -60 -121.5t-125 -47.5q-61 0 -99 37t-34 96zM594 1168q5 68 60.5 117.5t124.5 49.5q72 0 105 -37t28 -95q-5 -73 -60 -120.5t-126 -47.5q-60 0 -98 37t-34 96 z" />
<glyph unicode="&#xf8;" horiz-adv-x="1149" d="M65 -83l126 187q-107 122 -109 350q-1 136 40.5 263t117 225t188.5 157t245 59q101 0 179 -36l120 181l89 -49l-126 -189q124 -118 129 -374q1 -109 -24 -212.5t-76 -192.5t-121 -156t-163.5 -105.5t-199.5 -38.5q-124 0 -211 52l-115 -170zM330 444q0 -68 13 -128 l388 645q-39 30 -96 30q-75 0 -135.5 -51t-96.5 -132.5t-55 -176t-18 -187.5zM393 205q46 -52 122 -52q75 0 134.5 50.5t94.5 132t52.5 175.5t16.5 189q-2 103 -22 167z" />
<glyph unicode="&#xf9;" horiz-adv-x="1209" d="M108 260q-1 64 25 267q32 248 86 613h243q-7 -54 -26 -191.5t-34.5 -253t-22.5 -170.5q-22 -159 -22 -228q0 -67 28.5 -94t86.5 -27q73 0 159 69.5t152 169.5l98 725h244l-152 -1140h-223l16 209q-75 -101 -176.5 -165t-214.5 -64q-130 0 -198 66t-69 214zM300 1575 l170 156l302 -416l-97 -78q-71 29 -202 147t-173 191z" />
<glyph unicode="&#xfa;" horiz-adv-x="1209" d="M108 260q-1 64 25 267q32 248 86 613h243q-7 -54 -26 -191.5t-34.5 -253t-22.5 -170.5q-22 -159 -22 -228q0 -67 28.5 -94t86.5 -27q73 0 159 69.5t152 169.5l98 725h244l-152 -1140h-223l16 209q-75 -101 -176.5 -165t-214.5 -64q-130 0 -198 66t-69 214zM588 1316 l315 415l169 -156q-30 -57 -167.5 -181.5t-221.5 -156.5z" />
<glyph unicode="&#xfb;" horiz-adv-x="1209" d="M108 260q-1 64 25 267q32 248 86 613h243q-7 -54 -26 -191.5t-34.5 -253t-22.5 -170.5q-22 -159 -22 -228q0 -67 28.5 -94t86.5 -27q73 0 159 69.5t152 169.5l98 725h244l-152 -1140h-223l16 209q-75 -101 -176.5 -165t-214.5 -64q-130 0 -198 66t-69 214zM337 1282 l340 374h179l196 -374l-112 -68l-202 237l-306 -243z" />
<glyph unicode="&#xfc;" horiz-adv-x="1209" d="M108 260q-1 64 25 267q32 248 86 613h243q-7 -54 -26 -191.5t-34.5 -253t-22.5 -170.5q-22 -159 -22 -228q0 -67 28.5 -94t86.5 -27q73 0 159 69.5t152 169.5l98 725h244l-152 -1140h-223l16 209q-75 -101 -176.5 -165t-214.5 -64q-130 0 -198 66t-69 214zM366 1507 q2 65 48 112t109 47q60 0 97 -38t35 -91q-2 -68 -48 -116t-116 -48q-52 0 -89.5 40.5t-35.5 93.5zM802 1507q2 65 47.5 112t108.5 47q60 0 97.5 -38t35.5 -91q-2 -68 -48 -116t-116 -48q-52 0 -89.5 40.5t-35.5 93.5z" />
<glyph unicode="&#xfd;" horiz-adv-x="1077" d="M-164 -464l66 186q67 -39 135 -39q98 0 187 64.5t205 235.5h-147l-62 375l-111 782h257l81 -752l38 -309q90 169 107 220q91 161 137 327.5t64 371.5q4 49 6 142h230q5 -61 1 -139q-18 -342 -220 -741q-110 -228 -255 -412q-99 -128 -140 -171q-146 -154 -325 -178 q-37 -5 -77 -5q-82 0 -177 42zM463 1316l315 415l169 -156q-30 -57 -167.5 -181.5t-221.5 -156.5z" />
<glyph unicode="&#xfe;" horiz-adv-x="1201" d="M11 -509l70 498l221 1648h232l-64 -541l-31 -164q61 94 153.5 159t204.5 65q161 0 239.5 -116.5t78.5 -315.5q0 -102 -24.5 -204t-78.5 -199t-130 -171.5t-187.5 -120t-243.5 -45.5q-55 0 -132 14l-18 -136l-51 -371h-239zM348 165q59 -18 131 -18q94 0 169.5 52.5 t120.5 136t68.5 178t23.5 187.5q0 275 -126 275q-48 0 -97.5 -28t-91 -73t-74 -91.5t-56.5 -94.5z" />
<glyph unicode="&#xff;" horiz-adv-x="1077" d="M-164 -464l66 186q67 -39 135 -39q98 0 187 64.5t205 235.5h-147l-62 375l-111 782h257l81 -752l38 -309q90 169 107 220q91 161 137 327.5t64 371.5q4 49 6 142h230q5 -61 1 -139q-18 -342 -220 -741q-110 -228 -255 -412q-99 -128 -140 -171q-146 -154 -325 -178 q-37 -5 -77 -5q-82 0 -177 42zM241 1507q2 65 48 112t109 47q60 0 97 -38t35 -91q-2 -68 -48 -116t-116 -48q-52 0 -89.5 40.5t-35.5 93.5zM677 1507q2 65 47.5 112t108.5 47q60 0 97.5 -38t35.5 -91q-2 -68 -48 -116t-116 -48q-52 0 -89.5 40.5t-35.5 93.5z" />
<glyph unicode="&#x152;" horiz-adv-x="2138" d="M95 600q-3 196 49.5 370t146.5 301t230.5 201t294.5 74q321 0 420 -321l40 305h812l-16 -192l-576 6l-61 -470l432 6l-19 -199l-436 13l-67 -509l680 15l-21 -200h-928l36 274q-89 -137 -217.5 -213.5t-289.5 -76.5q-123 0 -221 48.5t-159.5 133.5t-94.5 195.5t-35 238.5 zM349 632q4 -242 73.5 -352t213.5 -110q128 0 229.5 105t154 270.5t49.5 353.5q-3 241 -72.5 349t-214.5 108q-96 0 -179.5 -63t-138.5 -165t-86 -232t-29 -264z" />
<glyph unicode="&#x153;" horiz-adv-x="1767" d="M82 448q-2 135 39 262.5t115 226.5t186 159t243 60q232 0 329 -177q167 177 409 177q148 0 223.5 -69.5t75.5 -184.5q0 -67 -23 -127t-61 -105.5t-91.5 -84.5t-111.5 -66.5t-123.5 -49.5t-124.5 -35.5t-119 -21.5q-1 -37 2.5 -70t16 -66.5t33 -57.5t56.5 -39t83 -15 q80 0 168.5 44t160.5 117l66 -129q-53 -76 -173.5 -144t-264.5 -68q-228 0 -336 172q-159 -172 -380 -172q-195 0 -295.5 123t-102.5 341zM330 438q3 -287 185 -287q55 0 102.5 28.5t81.5 78.5t57.5 111.5t37.5 133.5q4 43 14 97q5 62 5 109q-3 280 -185 280q-74 0 -134 -52 t-95 -134.5t-52.5 -177t-16.5 -187.5zM1050 563q58 3 127.5 27t133.5 63.5t107 100t43 126.5q0 114 -112 114q-64 0 -120 -43.5t-92 -110.5t-58.5 -139t-28.5 -138z" />
<glyph unicode="&#x178;" horiz-adv-x="1111" d="M86 1530h260l216 -642l30 -93l44 93l373 642h267l-595 -940l-79 -590h-238l79 590zM352 1810q2 65 49 112.5t107 47.5t96.5 -38.5t34.5 -91.5q-2 -67 -48 -115t-115 -48q-51 0 -88.5 40.5t-35.5 92.5zM786 1810q1 64 49 112t108 48t97 -38.5t35 -91.5q-2 -67 -48.5 -115 t-115.5 -48q-51 0 -88 40t-37 93z" />
<glyph unicode="&#x2c6;" horiz-adv-x="797" d="M45 1282l340 374h179l196 -374l-112 -68l-202 237l-306 -243z" />
<glyph unicode="&#x2dc;" horiz-adv-x="818" d="M-7 1487q34 67 121 122t165 55q44 0 81 -15t61.5 -36t46 -42t46.5 -36t51 -15q19 0 36 5.5t28 11t26.5 21t21 21.5t21.5 27t19 24l95 -106q-27 -75 -109.5 -132.5t-167.5 -57.5q-48 0 -86 14.5t-62.5 35.5t-46.5 42t-49.5 36t-59.5 16q-11 0 -21 -1t-20 -5.5t-17 -7 t-17 -10.5t-15 -11t-15 -13.5t-13 -13.5t-14 -15t-13 -14z" />
<glyph unicode="&#x2000;" horiz-adv-x="1002" />
<glyph unicode="&#x2001;" horiz-adv-x="2004" />
<glyph unicode="&#x2002;" horiz-adv-x="1002" />
<glyph unicode="&#x2003;" horiz-adv-x="2004" />
<glyph unicode="&#x2004;" horiz-adv-x="668" />
<glyph unicode="&#x2005;" horiz-adv-x="501" />
<glyph unicode="&#x2006;" horiz-adv-x="334" />
<glyph unicode="&#x2007;" horiz-adv-x="334" />
<glyph unicode="&#x2008;" horiz-adv-x="250" />
<glyph unicode="&#x2009;" horiz-adv-x="400" />
<glyph unicode="&#x200a;" horiz-adv-x="111" />
<glyph unicode="&#x2010;" horiz-adv-x="1266" d="M220 615l23 185h838l-24 -185h-837z" />
<glyph unicode="&#x2011;" horiz-adv-x="1266" d="M220 615l23 185h838l-24 -185h-837z" />
<glyph unicode="&#x2012;" horiz-adv-x="1266" d="M220 615l23 185h838l-24 -185h-837z" />
<glyph unicode="&#x2013;" horiz-adv-x="1538" d="M220 616l32 184h1097l-32 -184h-1097z" />
<glyph unicode="&#x2014;" horiz-adv-x="2031" d="M220 616l31 184h1585l-32 -184h-1584z" />
<glyph unicode="&#x2018;" horiz-adv-x="690" d="M194 1247q0 81 21.5 155t55.5 127.5t78.5 99t86 73.5t84.5 48l87 -120l-2 -22q-60 -31 -112 -117.5t-52 -196.5q0 -61 22 -118.5t61 -91.5l-5 -41l-143 -128q-69 32 -125.5 123t-56.5 209z" />
<glyph unicode="&#x2019;" horiz-adv-x="690" d="M200 1027l2 22q60 31 112 117.5t52 196.5q0 61 -22 118.5t-61 91.5l5 41l143 128q69 -32 125.5 -123t56.5 -209q0 -81 -21.5 -155t-55.5 -127.5t-78.5 -99t-86 -73.5t-84.5 -48z" />
<glyph unicode="&#x201a;" horiz-adv-x="690" d="M74 -412l2 22q60 31 112 117.5t52 196.5q0 61 -22 118.5t-61 91.5l5 41l143 128q69 -32 125.5 -123t56.5 -209q0 -81 -21.5 -155t-55.5 -127.5t-78.5 -99t-86 -73.5t-84.5 -48z" />
<glyph unicode="&#x201c;" horiz-adv-x="1187" d="M194 1247q0 81 21.5 155t55.5 127.5t78.5 99t86 73.5t84.5 48l87 -120l-2 -22q-60 -31 -112 -117.5t-52 -196.5q0 -61 22 -118.5t61 -91.5l-5 -41l-143 -128q-69 32 -125.5 123t-56.5 209zM691 1247q0 81 21.5 155t55.5 127.5t78.5 99t86 73.5t84.5 48l87 -120l-2 -22 q-60 -31 -112 -117.5t-52 -196.5q0 -61 22 -118.5t61 -91.5l-5 -41l-143 -128q-69 32 -125.5 123t-56.5 209z" />
<glyph unicode="&#x201d;" horiz-adv-x="1187" d="M258 1027l2 22q60 31 112 117.5t52 196.5q0 61 -22 118.5t-61 91.5l5 41l143 128q69 -32 125.5 -123t56.5 -209q0 -81 -21.5 -155t-55.5 -127.5t-78.5 -99t-86 -73.5t-84.5 -48zM757 1027l2 22q60 31 112 117.5t52 196.5q0 61 -22 118.5t-61 91.5l5 41l143 128 q69 -32 125.5 -123t56.5 -209q0 -81 -21.5 -155t-55.5 -127.5t-78.5 -99t-86 -73.5t-84.5 -48z" />
<glyph unicode="&#x201e;" horiz-adv-x="1187" d="M74 -412l2 22q60 31 112 117.5t52 196.5q0 61 -22 118.5t-61 91.5l5 41l143 128q69 -32 125.5 -123t56.5 -209q0 -81 -21.5 -155t-55.5 -127.5t-78.5 -99t-86 -73.5t-84.5 -48zM571 -412l2 22q60 31 112 117.5t52 196.5q0 61 -22 118.5t-61 91.5l5 41l143 128 q69 -32 125.5 -123t56.5 -209q0 -81 -21.5 -155t-55.5 -127.5t-78.5 -99t-86 -73.5t-84.5 -48z" />
<glyph unicode="&#x2022;" horiz-adv-x="858" d="M233 645q0 94 74 175t177 81q76 0 126 -49t50 -123q0 -97 -71 -178.5t-180 -81.5q-74 0 -125 51.5t-51 124.5z" />
<glyph unicode="&#x2026;" horiz-adv-x="1578" d="M71 100q0 72 48 124t125 52q67 0 99 -34.5t32 -88.5q0 -82 -47 -129.5t-127 -47.5q-56 0 -93 35t-37 89zM597 100q0 72 48 124t125 52q67 0 99 -34.5t32 -88.5q0 -82 -47 -129.5t-127 -47.5q-56 0 -93 35t-37 89zM1123 100q0 72 48 124t125 52q67 0 99 -34.5t32 -88.5 q0 -82 -47 -129.5t-127 -47.5q-56 0 -93 35t-37 89z" />
<glyph unicode="&#x202f;" horiz-adv-x="400" />
<glyph unicode="&#x2039;" horiz-adv-x="1190" d="M216 530l25 169l707 396l44 -142l-486 -341l399 -336l-82 -130z" />
<glyph unicode="&#x203a;" horiz-adv-x="1190" d="M186 285l486 341l-399 336l82 130l607 -384l-25 -169l-707 -396z" />
<glyph unicode="&#x205f;" horiz-adv-x="501" />
<glyph unicode="&#x20ac;" horiz-adv-x="1389" d="M24 545l20 153h180q3 88 21 186h-176l20 152h196q84 238 260 374t405 136q29 0 56.5 -1.5t48.5 -3.5t45.5 -6.5t38 -7t36.5 -8.5t30.5 -8.5t30.5 -10t28 -8.5l-67 -192q-23 24 -102 45t-184 21q-133 0 -228.5 -86t-147.5 -244h521l-19 -152h-540q-13 -75 -18 -186h533 l-17 -153h-517q23 -388 280 -388q112 0 190.5 30.5t156.5 87.5l60 -156q-54 -61 -174 -98t-272 -37q-95 0 -174 31.5t-134 84t-94.5 125.5t-60.5 152t-29 168h-203z" />
<glyph unicode="&#x2122;" horiz-adv-x="2120" d="M175 1378l24 152h666l-18 -152h-247l-90 -636l-177 -1l90 637h-248zM900 742l149 788h285l94 -424l28 -147l237 571h297l-29 -788h-180l28 486l15 212l-31 -76l-290 -630h-142l-133 548l-35 160l-27 -165l-93 -535h-173z" />
<glyph unicode="&#x25fc;" horiz-adv-x="1140" d="M0 0v1140h1140v-1140h-1140z" />
</font>
</defs>
</svg>
