<?xml version="1.0" standalone="no"?>
<!DOCTYPE svg PUBLIC "-//W3C//DTD SVG 1.1//EN" "http://www.w3.org/Graphics/SVG/1.1/DTD/svg11.dtd" >
<svg xmlns="http://www.w3.org/2000/svg">
<metadata></metadata>
<defs>
<font id="merriweathersans_st_light" horiz-adv-x="0" >
<font-face units-per-em="2048" ascent="1638" descent="-410" />
<missing-glyph horiz-adv-x="655" />
<glyph unicode="&#xfb01;" horiz-adv-x="1389" d="M76 1014v92l196 34v92q0 98 23.5 176.5t62 128.5t90 83.5t105 47.5t110.5 14q82 0 137 -21v-133q-57 20 -159 20q-93 0 -148 -72.5t-55 -207.5v-128h304v-126h-304v-1014h-166v1014h-196zM984 1502q0 54 37.5 91t85.5 37q52 0 79.5 -31t27.5 -82q0 -57 -36.5 -93 t-86.5 -36q-45 0 -76 31t-31 83zM1011 0v1139h167v-1139h-167z" />
<glyph unicode="&#xfb02;" horiz-adv-x="1395" d="M76 1014v92l196 34v92q0 98 23.5 176.5t62 128.5t90 83.5t105 47.5t110.5 14q82 0 137 -21v-133q-57 20 -159 20q-93 0 -148 -72.5t-55 -207.5v-128h304v-126h-304v-1014h-166v1014h-196zM1014 0v1664h167v-1664h-167z" />
<glyph unicode="&#xfb03;" horiz-adv-x="2190" d="M76 1014v92l196 34v92q0 98 23.5 176.5t62 128.5t90 83.5t105 47.5t110.5 14q82 0 137 -21v-133q-57 20 -159 20q-93 0 -148 -72.5t-55 -207.5v-128h304v-126h-304v-1014h-166v1014h-196zM877 1014v92l196 34v92q0 98 23.5 176.5t62 128.5t90 83.5t105 47.5t110.5 14 q82 0 137 -21v-133q-57 20 -159 20q-93 0 -148 -72.5t-55 -207.5v-128h304v-126h-304v-1014h-166v1014h-196zM1785 1502q0 54 37.5 91t85.5 37q52 0 79.5 -31t27.5 -82q0 -57 -36.5 -93t-86.5 -36q-45 0 -76 31t-31 83zM1813 0v1139h167v-1139h-167z" />
<glyph unicode="&#xfb04;" horiz-adv-x="2196" d="M76 1014v92l196 34v92q0 98 23.5 176.5t62 128.5t90 83.5t105 47.5t110.5 14q82 0 137 -21v-133q-57 20 -159 20q-93 0 -148 -72.5t-55 -207.5v-128h304v-126h-304v-1014h-166v1014h-196zM877 1014v92l196 34v92q0 98 23.5 176.5t62 128.5t90 83.5t105 47.5t110.5 14 q82 0 137 -21v-133q-57 20 -159 20q-93 0 -148 -72.5t-55 -207.5v-128h304v-126h-304v-1014h-166v1014h-196zM1816 0v1664h167v-1664h-167z" />
<glyph />
<glyph unicode="&#xd;" />
<glyph unicode="&#x9;" />
<glyph unicode="&#xa;" />
<glyph />
<glyph />
<glyph />
<glyph />
<glyph />
<glyph />
<glyph />
<glyph unicode=" "  horiz-adv-x="655" />
<glyph unicode="&#x09;" horiz-adv-x="655" />
<glyph unicode="&#xa0;" horiz-adv-x="655" />
<glyph unicode="!" horiz-adv-x="601" d="M184 108q-1 58 36 99.5t85 41.5q52 0 81 -35t31 -89q1 -60 -35 -100.5t-87 -40.5q-45 0 -77.5 35t-33.5 89zM211 1780h187l-18 -1307h-148z" />
<glyph unicode="&#x22;" horiz-adv-x="1214" d="M274 1685h183l-24 -719h-134zM756 1685h183l-24 -719h-134z" />
<glyph unicode="#" horiz-adv-x="1556" d="M203 358v119h223l40 437h-227v117h238l31 338h145l-32 -338h374l30 338h145l-31 -338h230v-117h-241l-40 -437h234l1 -119h-246l-33 -358h-140l31 358h-376l-33 -358h-143l32 358h-212zM570 477h376l38 437h-374z" />
<glyph unicode="$" horiz-adv-x="1382" d="M238 74l40 139q64 -39 170 -66.5t210 -27.5q163 0 254.5 62t90.5 185q0 32 -6 60t-21.5 53t-30.5 45t-44.5 41.5t-51.5 36t-64 35.5t-68.5 33.5t-77.5 35.5q-397 180 -398 456q0 89 34.5 159t94.5 113t130.5 67.5t152.5 32.5l4 218h124l-3 -215q204 -9 314 -81l-35 -133 q-126 82 -326 82q-84 0 -156.5 -22.5t-122 -74.5t-49.5 -124q0 -50 15.5 -92t40 -73t71 -64t91.5 -57t120 -60q54 -26 88.5 -43.5t84.5 -46.5t82 -53.5t68 -60t56.5 -71.5t34.5 -82t14 -96q0 -181 -117 -282.5t-317 -116.5l-2 -221h-124l2 221q-123 6 -228 33t-145 55z" />
<glyph unicode="%" horiz-adv-x="1944" d="M85 1083q0 95 31 173t83.5 128t119 78t141.5 30q88 2 155.5 -28.5t108.5 -86t61.5 -128t20.5 -158.5q0 -185 -109.5 -293t-265.5 -112q-105 -2 -185.5 53t-120.5 145t-40 199zM234 1089q0 -126 56 -209t151 -82q98 2 157 78t59 210t-53.5 214.5t-152.5 79.5 q-98 -2 -157.5 -80t-59.5 -211zM567 0l658 1530h145l-658 -1530h-145zM1138 452q0 95 31 173t83.5 128t119 78t141.5 30q88 3 155.5 -27.5t108 -86.5t61 -128t20.5 -158q0 -125 -53.5 -218t-137 -138.5t-183.5 -48.5q-105 -2 -185.5 52.5t-120.5 144.5t-40 199zM1287 458 q0 -126 56 -208.5t150 -81.5q98 1 157 77.5t59 210.5t-53.5 214.5t-151.5 79.5q-98 -2 -157.5 -80t-59.5 -212z" />
<glyph unicode="&#x26;" horiz-adv-x="1532" d="M148 386q0 252 336 400q-86 110 -136 207.5t-50 203.5q0 162 109.5 255.5t293.5 93.5q169 0 270.5 -98t101.5 -234q0 -88 -27 -161t-79.5 -130t-117 -99.5t-151.5 -82.5q75 -102 201.5 -259.5t202.5 -237.5q109 101 109 270q0 122 -38 214h147q35 -99 35 -214 q0 -228 -152 -358q57 -40 111.5 -55.5t125.5 -13.5v-88q-52 -15 -113 -15q-69 0 -125 20t-116 64q-73 -37 -162 -60.5t-172 -23.5q-277 0 -440.5 105t-163.5 297zM305 390q0 -123 109.5 -203.5t328.5 -80.5q115 0 239 53q-88 96 -208.5 248t-213.5 280 q-118 -55 -186.5 -126.5t-68.5 -170.5zM453 1200q0 -31 3 -57.5t14 -55t17.5 -46t28 -49t30 -44.5t38.5 -53.5t41 -54.5q144 60 224.5 148.5t80.5 223.5q0 85 -63.5 150t-169.5 65q-108 0 -176 -57.5t-68 -169.5z" />
<glyph unicode="'" horiz-adv-x="731" d="M274 1685h183l-24 -719h-134z" />
<glyph unicode="(" horiz-adv-x="848" d="M142 724q0 163 39 320t95 269.5t122 206t117 144t83 68.5l115 -57q-30 -22 -71.5 -65t-101.5 -129.5t-109 -189.5t-86 -254t-40 -313q-3 -127 14 -246t45 -210t67.5 -173.5t77.5 -140t80 -106t71 -75t53 -43.5l-115 -57q-23 14 -53 40t-75 75t-88 109.5t-87.5 148 t-77.5 185t-54 226.5t-21 267z" />
<glyph unicode=")" horiz-adv-x="848" d="M135 -248q30 22 71.5 65t101.5 129.5t109 189.5t86 254t40 313q3 127 -14 246t-45 210t-67.5 173.5t-77.5 140t-80 106t-71 75t-53 43.5l115 57q23 -14 53 -40t75 -75t88 -109.5t87.5 -148t77.5 -185t54 -226.5t21 -267q0 -163 -39 -320t-95 -269.5t-122 -206t-117 -144 t-83 -68.5z" />
<glyph unicode="*" horiz-adv-x="1226" d="M139 1340l71 126l237 -151l131 -104q0 3 -14 81.5t-15 82.5l-14 283h146l-10 -281l-26 -165l128 108l238 152l72 -124l-247 -133l-156 -61l157 -57l250 -128l-74 -129l-235 150l-133 104q3 -6 29 -165l16 -280l-146 -1l10 281l25 167l-128 -110l-236 -152l-73 125 l246 134l157 60q-4 2 -79 29t-79 28z" />
<glyph unicode="+" horiz-adv-x="1393" d="M232 706v134h237l163 -8l-5 171v244h136v-244l-6 -171l149 8h255v-134h-255l-149 5l6 -172v-251h-136v251l5 172l-163 -5h-237z" />
<glyph unicode="," horiz-adv-x="601" d="M164 -409q56 32 99.5 118t43.5 195q0 63 -32 127.5t-74 79.5v48l105 99q82 -39 120.5 -124t38.5 -179q0 -162 -71.5 -285.5t-172.5 -168.5l-56 69z" />
<glyph unicode="-" horiz-adv-x="1350" d="M247 705v135h856v-135h-856z" />
<glyph unicode="." horiz-adv-x="601" d="M184 108q-1 58 36 99.5t86 41.5q52 0 81 -35t30 -89q2 -60 -34.5 -100.5t-87.5 -40.5q-45 0 -77.5 35t-33.5 89z" />
<glyph unicode="/" horiz-adv-x="854" d="M66 -363l570 1962h151l-571 -1962h-150z" />
<glyph unicode="0" horiz-adv-x="1391" d="M144 762q4 347 163.5 556.5t406.5 209.5q539 0 534 -772q-1 -225 -70.5 -400.5t-196.5 -274t-293 -98.5q-118 0 -212.5 43t-156 116t-102 174t-57.5 211.5t-16 234.5zM316 768q0 -104 12.5 -198.5t41.5 -181.5t71.5 -150.5t107 -101t144.5 -37.5q181 0 281.5 174.5 t100.5 475.5q0 144 -19.5 259.5t-61.5 208t-115.5 143t-174.5 50.5q-182 0 -285 -173.5t-103 -468.5z" />
<glyph unicode="1" horiz-adv-x="863" d="M113 1345q94 26 209.5 89t169.5 111h2l74 -20v-1525h-173v1332q-6 -2 -41 -16t-52.5 -20.5t-49.5 -17.5t-61 -19t-59 -14z" />
<glyph unicode="2" horiz-adv-x="1268" d="M142 88q111 74 215.5 159t202.5 186t170.5 203t116.5 211.5t44 208.5q0 161 -75.5 254t-214.5 93q-110 0 -212.5 -48.5t-166.5 -114.5l-72 95q74 80 195.5 141t273.5 61q116 0 203 -37t138 -103.5t76 -150t25 -183.5q0 -158 -91.5 -332.5t-238 -325.5t-331.5 -276l717 6 v-135h-949z" />
<glyph unicode="3" horiz-adv-x="1151" d="M110 1375q67 58 187.5 108.5t241.5 50.5q118 0 212 -36.5t153.5 -117t59.5 -194.5q0 -123 -86.5 -220.5t-215.5 -154.5q174 -10 278 -105t105 -224q0 -107 -47.5 -198.5t-134.5 -158t-216.5 -104t-286.5 -37.5q-87 0 -195 19v116q71 -16 163 -16q256 0 401.5 106 t145.5 260q0 127 -102 199.5t-294 56.5q-28 -9 -118 -30l-36 116q109 22 192 56q127 49 204 128t78 171q0 63 -21.5 109.5t-60 73.5t-86.5 40t-106 13q-98 0 -192 -35.5t-158 -86.5z" />
<glyph unicode="4" horiz-adv-x="1320" d="M113 361q68 142 292 629t243 548h141l38 -63q-22 -65 -233.5 -489t-216.5 -435l-80 -141h543l14 502h153v-502l254 1v-130h-254v-281h-167v281h-686z" />
<glyph unicode="5" horiz-adv-x="1217" d="M208 799l59 723h763l-17 -144h-616l-46 -463q152 54 280 54q212 0 328 -116.5t116 -325.5q0 -105 -49 -203.5t-139.5 -177t-232.5 -126t-314 -47.5q-84 0 -129 13l1 113q32 -5 84 -5q267 -1 438 120t171 302q0 329 -346 329q-145 0 -312 -70z" />
<glyph unicode="6" horiz-adv-x="1367" d="M167 573q0 151 49.5 293t133 253t191 200t225 144.5t234.5 76.5l46 -109q-244 -58 -430 -230.5t-245 -394.5q53 73 148.5 128.5t231.5 55.5q216 0 332 -126t116 -324q0 -109 -33.5 -208t-96.5 -177.5t-165 -125t-228 -46.5q-118 0 -215.5 47.5t-161 128.5t-98 187.5 t-34.5 226.5zM348 645q-2 -88 7.5 -165.5t35 -148.5t65 -121.5t101.5 -80.5t141 -30q105 0 182 60.5t113 151t36 195.5q0 187 -81.5 269.5t-230.5 82.5q-137 0 -228 -46t-137 -107q-4 -40 -4 -60z" />
<glyph unicode="7" horiz-adv-x="1248" d="M155 1385l1 137h941l37 -47l-552 -1481l-209 1q309 680 578 1390h-796z" />
<glyph unicode="8" horiz-adv-x="1299" d="M151 385q0 115 87.5 223.5t258.5 178.5q-64 34 -111 68.5t-88.5 80.5t-63.5 105t-22 129q0 90 37 162t101 117.5t146 69.5t175 24q193 0 314 -95t121 -251q0 -124 -80 -235t-223 -179q66 -32 110.5 -57t96.5 -62.5t83 -73.5t52 -85.5t22 -104.5q1 -99 -40 -179.5 t-111.5 -131.5t-160 -78t-189.5 -27q-77 0 -149 13.5t-139 44.5t-117 76.5t-80 114t-30 152.5zM311 398q0 -143 96.5 -219.5t264.5 -76.5q84 0 158.5 33t123 97.5t48.5 147.5q0 49 -21 92t-49.5 73t-82.5 63.5t-94 53.5t-108 52q-17 8 -26 12q-138 -43 -224 -133.5 t-86 -194.5zM366 1180q0 -58 24 -107.5t72.5 -91t98 -72t122.5 -67.5q121 43 195 133.5t75 200.5q3 114 -76 182t-212 68q-126 0 -212.5 -66.5t-86.5 -179.5z" />
<glyph unicode="9" horiz-adv-x="1386" d="M175 998q0 242 141 394.5t386 152.5q121 0 218.5 -46.5t159.5 -127.5t94.5 -186t32.5 -225q0 -154 -47.5 -297.5t-128 -255t-185.5 -201t-221.5 -145t-234.5 -77.5l-56 103q239 54 414 217.5t244 373.5q-135 -148 -372 -148q-142 0 -244.5 65t-151.5 169t-49 234z M343 1052q0 -188 81 -290t224 -102q245 0 376 169q2 20 4 56q3 118 -15.5 213.5t-59 170t-110.5 115.5t-166 41q-99 0 -177 -54.5t-117.5 -139t-39.5 -179.5z" />
<glyph unicode=":" horiz-adv-x="601" d="M184 108q-1 58 36 99.5t86 41.5q52 0 81 -35t30 -89q2 -60 -34.5 -100.5t-87.5 -40.5q-45 0 -77.5 35t-33.5 89zM184 932q-1 58 36 99.5t86 41.5q52 0 81 -35t30 -89q2 -60 -34.5 -100.5t-87.5 -40.5q-45 0 -77.5 35t-33.5 89z" />
<glyph unicode=";" horiz-adv-x="601" d="M154 -409q56 32 99.5 118t43.5 195q0 63 -32 127.5t-74 79.5v48l105 99q82 -39 120.5 -124t38.5 -179q0 -162 -71.5 -285.5t-172.5 -168.5l-56 69zM184 932q-1 58 36 99.5t86 41.5q52 0 81 -35t30 -89q2 -60 -34.5 -100.5t-87.5 -40.5q-45 0 -77.5 35t-33.5 89z" />
<glyph unicode="&#x3c;" horiz-adv-x="1368" d="M171 712v122l962 459v-156l-789 -364l789 -360v-159z" />
<glyph unicode="=" horiz-adv-x="1397" d="M241 428v127h915v-127h-915zM241 986v128h915v-128h-915z" />
<glyph unicode="&#x3e;" horiz-adv-x="1368" d="M235 254v159l789 360l-789 364v156l962 -459v-122z" />
<glyph unicode="?" horiz-adv-x="1047" d="M134 1672v123q16 13 80.5 27.5t128.5 14.5q167 0 290.5 -46.5t190.5 -125.5t92.5 -176.5t9.5 -207.5q-7 -63 -36.5 -117t-70.5 -92.5t-89 -72.5t-95 -63t-86 -57.5t-64.5 -63.5t-27.5 -73q-1 -14 -1 -28.5t0.5 -27t3.5 -28.5t4.5 -26.5t6.5 -28.5t7 -26.5t8.5 -28.5 t9 -26.5t9.5 -28t9 -27.5l-127 -1q-33 44 -62 129t-30 165q-1 45 22.5 86.5t63 74.5t87 64.5t97 63.5t91 64.5t70 73.5t33.5 86q37 198 -82.5 311t-359.5 113q-125 0 -183 -24zM389 105q-1 56 35.5 96.5t83.5 40.5q51 0 79 -34t30 -86q1 -59 -35 -98.5t-85 -39.5 q-43 0 -75 34t-33 87z" />
<glyph unicode="@" horiz-adv-x="2218" d="M224 425q0 249 80.5 460.5t219.5 355t327.5 223.5t401.5 80q221 0 388.5 -82t262.5 -243.5t95 -383.5q0 -155 -31.5 -291t-86 -233.5t-125.5 -168.5t-151 -105.5t-162 -34.5q-67 0 -98 46.5t-36 134.5q-7 81 15 221q-39 -81 -81.5 -150.5t-93 -128.5t-106.5 -93t-110 -34 q-52 0 -102 27t-91.5 78.5t-65.5 138t-22 193.5q2 87 23 174t65.5 171t107 148t155 103.5t202.5 39.5q153 0 245 -57l133 26q-92 -334 -129 -609q-22 -161 -17 -234t44 -73q67 0 136 54t123 144t88.5 218.5t34.5 267.5q0 624 -639 624q-137 0 -266 -44.5t-237 -131 t-189.5 -205.5t-127 -276.5t-45.5 -334.5q0 -168 39 -303t106 -225t160.5 -150.5t199 -87t225.5 -26.5q139 0 244 28.5t169 64.5l30 -100q-66 -44 -194 -75t-264 -31q-145 0 -272.5 34t-234 106t-182.5 176t-118.5 250.5t-42.5 323.5zM795 464q-3 -154 42 -242.5t129 -88.5 q69 0 164.5 137.5t169 314t92.5 300.5q-26 34 -84.5 52.5t-117.5 18.5q-74 0 -138.5 -29.5t-110 -78.5t-78.5 -113t-49.5 -133t-18.5 -138z" />
<glyph unicode="A" horiz-adv-x="1398" d="M35 0l589 1538h165l574 -1538h-182l-147 419h-667l-153 -419h-179zM413 545h577l-244 695l-39 121l-39 -122z" />
<glyph unicode="B" horiz-adv-x="1354" d="M208 0v1523l92 -1q63 0 166.5 6.5t173.5 6.5q247 0 372.5 -92.5t125.5 -263.5q0 -78 -22.5 -149.5t-79.5 -133t-142 -82.5q143 -7 246 -110.5t103 -250.5q0 -112 -31.5 -195.5t-100.5 -145.5t-186.5 -94t-281.5 -32q-49 0 -110 2.5t-132.5 6.5t-103.5 5h-89zM376 130 q105 -20 286 -20q204 0 306.5 74.5t102.5 248.5q0 284 -366 290q-294 0 -329 -4v-589zM376 848q30 -4 92 -5h70h86q94 1 100 1q117 9 183.5 91.5t66.5 219.5q0 260 -365 260q-151 0 -233 -12v-555z" />
<glyph unicode="C" horiz-adv-x="1332" d="M109 754q0 148 35.5 274.5t99.5 219.5t151 159t191 98.5t219 32.5q80 0 152 -7.5t108.5 -15.5t82.5 -20.5t55 -14.5l-25 -150q-2 1 -42.5 16.5t-72 25t-100.5 19t-148 9.5q-243 0 -390.5 -167.5t-147.5 -466.5q0 -187 61 -332.5t182 -230.5t284 -85q129 0 237.5 29 t157.5 61l2 -144q-12 -4 -54 -19t-67.5 -22.5t-71 -18t-97.5 -15.5t-114 -5q-206 0 -362.5 96t-241 270.5t-84.5 403.5z" />
<glyph unicode="D" horiz-adv-x="1483" d="M208 0v1522q108 0 120 1q44 0 159.5 6.5t178.5 6.5q357 0 539 -190t181 -541q0 -380 -196 -603q-192 -218 -533 -218h-15q-36 1 -151 7t-171 7q-42 2 -112 2zM378 128q124 -18 262 -18h28q122 2 220 42.5t170 121t112 208.5q41 132 40 303q0 327 -144 477 q-144 152 -439 151q-111 0 -249 -14v-1271z" />
<glyph unicode="E" horiz-adv-x="1207" d="M208 0v1522h858v-131h-689v-539h503v-131h-503v-588h762v-133h-931z" />
<glyph unicode="F" horiz-adv-x="1090" d="M208 0v1522h851v-131h-681v-561h509v-131h-509v-699h-170z" />
<glyph unicode="G" horiz-adv-x="1447" d="M112 750q0 190 54.5 341.5t151 248t224 147.5t276.5 51q98 0 167.5 -8.5t150 -28.5t102.5 -24l-8 -152q-174 80 -423 80q-108 0 -201.5 -41.5t-164.5 -119.5t-112 -200t-41 -274q0 -191 59 -338.5t176.5 -232.5t278.5 -85q112 0 210.5 20.5t147.5 46.5v436l-316 11v122 h479v-659q-25 -1 -74 -18.5t-101 -37t-145 -35.5t-198 -16q-160 0 -291.5 58t-219 160.5t-135 243t-47.5 304.5z" />
<glyph unicode="H" horiz-adv-x="1546" d="M208 0v1522h169v-682h792v682h169v-1522h-169v710h-792v-710h-169z" />
<glyph unicode="I" horiz-adv-x="617" d="M223 0v1522h171v-1522h-171z" />
<glyph unicode="J" horiz-adv-x="699" d="M-37 -243q102 28 184.5 98.5t113.5 175.5q17 56 25 150.5t9 161.5t1 211v968h171v-985q0 -26 1 -101v-64.5v-42.5q-1 -32 -2.5 -87.5t-6 -97t-11.5 -79.5q-16 -87 -61 -160t-106.5 -121t-129 -77t-135.5 -39z" />
<glyph unicode="K" horiz-adv-x="1368" d="M208 0v1522h169v-821l675 821h201l-541 -646q20 -32 225 -337t276 -428l66 -111h-196q-8 13 -26.5 48t-35.5 65q-46 81 -118.5 193.5t-168.5 255t-128 191.5l-229 -265v-488h-169z" />
<glyph unicode="L" horiz-adv-x="1071" d="M208 0v1522h173v-1389h628v-133h-801z" />
<glyph unicode="M" horiz-adv-x="1930" d="M151 -1l162 1523h240l337 -989l75 -286l73 286l318 989h228l196 -1522h-171l-106 947l-44 450l-124 -450l-323 -962h-93l-339 962l-136 450l-38 -450l-91 -947z" />
<glyph unicode="N" horiz-adv-x="1558" d="M207 0v1522h157l701 -1060l142 -249l-12 313v996h156v-1522h-156l-686 1034l-157 267l11 -331v-970h-156z" />
<glyph unicode="O" horiz-adv-x="1577" d="M113 769q4 185 59 332.5t150 241.5t219.5 144t270.5 51h6q298 0 474 -211q172 -205 171 -537v-26q-4 -185 -56.5 -333t-143.5 -244t-213.5 -148t-267.5 -55h-16q-196 0 -344 96q-154 100 -234 280q-75 170 -75 387v22zM284 758v-8q0 -128 32 -240q32 -116 94 -205 q60 -89 158 -141q96 -51 214 -50h5q230 2 367 173.5t138 484.5v8q0 128 -30 240q-32 116 -91.5 203t-153.5 137q-92 49 -205 49h-5q-111 -1 -205 -42.5t-165 -121t-111.5 -204.5t-41.5 -283z" />
<glyph unicode="P" horiz-adv-x="1284" d="M208 0v1522h82q54 0 182 7t197 7q526 0 526 -491q0 -245 -152 -380.5t-419 -137.5q-48 0 -99 1.5t-93.5 4t-54.5 2.5v-535h-169zM377 664q95 -12 237 -12q90 1 162.5 22t130 65.5t89 122t31.5 182.5q-1 197 -101 286q-95 84 -285 84h-22q-155 -4 -242 -16v-734z" />
<glyph unicode="Q" horiz-adv-x="1574" d="M112 769q4 185 59 332.5t150 241.5t219.5 144t270.5 51h6q297 0 473 -211q172 -205 172 -537v-26q-7 -308 -141.5 -501.5t-359.5 -253.5q133 -158 373 -158q123 0 178 23v-123q-24 -16 -73.5 -27t-103.5 -11q-167 0 -293.5 59.5t-238.5 212.5q-3 0 -11 -0.5t-11 -0.5h-16 q-196 0 -345 96q-154 101 -233 280q-75 170 -75 387v22zM283 758v-8q0 -127 31 -240q33 -116 94.5 -205t159.5 -141q95 -50 213 -50h5q230 2 367 173.5t138 484.5v8q0 128 -31 240q-31 115 -90.5 202.5t-153.5 137.5q-92 49 -205 49h-5q-111 -1 -205 -42.5t-165 -121 t-111.5 -204.5t-41.5 -283z" />
<glyph unicode="R" horiz-adv-x="1364" d="M208 0v1522q89 1 100 1q39 0 163.5 6.5t196.5 6.5q522 0 522 -420q0 -168 -82 -276.5t-227 -149.5q52 -31 106 -107t90.5 -150.5t85 -178.5t75.5 -152q39 -73 58 -102h-191q-13 17 -54 102q-18 37 -54 120.5t-65 145t-68 130t-84.5 111.5t-93.5 55q-62 -2 -154 -2 q-69 0 -155 1v-663h-169zM377 783q59 -6 284 -6q166 2 260.5 85.5t95.5 245.5q0 161 -89.5 232t-286.5 71q-174 0 -264 -16v-612z" />
<glyph unicode="S" horiz-adv-x="1158" d="M139 74l40 139q64 -39 170 -66.5t210 -27.5q163 0 255 62q91 61 90 182q0 35 -6 63t-21.5 53t-30.5 45t-44.5 41.5t-51.5 36t-64 35.5t-68.5 33.5t-77.5 35.5q-397 180 -398 456q0 81 29 146.5t77 107.5t112.5 70t132.5 40t140 12q237 0 360 -82l-35 -133 q-126 82 -326 82q-84 0 -156.5 -22.5t-122 -74.5t-49.5 -124q0 -50 15.5 -92t40 -73t71 -64t91.5 -57t120 -60q54 -26 88.5 -43.5t84.5 -46.5t82 -53.5t68 -60t56.5 -71.5t34.5 -82t14 -96q0 -195 -136 -298t-364 -103q-138 0 -261 29t-170 61z" />
<glyph unicode="T" horiz-adv-x="1284" d="M64 1391v131h1161v-131h-499v-1391h-170v1391h-492z" />
<glyph unicode="U" horiz-adv-x="1479" d="M173 644v879h169l-1 -839q0 -163 27 -274.5t82 -175t127.5 -90.5t173.5 -27q75 0 133 17t107 57.5t80.5 105t49 162t17.5 226.5v837h168v-877q0 -661 -560 -661q-296 0 -435 166.5t-138 493.5z" />
<glyph unicode="V" horiz-adv-x="1336" d="M33 1522h179l392 -1085l75 -244l76 244l370 1085h178l-553 -1538h-143z" />
<glyph unicode="W" horiz-adv-x="1914" d="M34 1522h174l249 -1006l69 -335l75 335l297 1006h125l301 -1006l85 -333l64 332l237 1007h170l-391 -1538h-166l-326 1096l-37 182l-37 -182l-329 -1096h-147z" />
<glyph unicode="X" horiz-adv-x="1334" d="M76 0l489 781l-483 741l190 1l295 -465l107 -177l105 177l283 464h183l-480 -764l494 -758h-193l-314 503l-94 152l-91 -152l-309 -503h-182z" />
<glyph unicode="Y" horiz-adv-x="1254" d="M33 1522h181l374 -701l51 -114l44 114l359 701h179l-499 -935v-587h-172v584z" />
<glyph unicode="Z" horiz-adv-x="1313" d="M109 66l807 1209l85 112h-809v135h994l36 -64l-805 -1219l-86 -106h849v-133h-1036z" />
<glyph unicode="[" horiz-adv-x="841" d="M226 2v1542q0 115 29.5 154t120.5 39q110 0 312 -20v-90h-302v-1709l302 -2v-87q-140 -20 -312 -20q-91 0 -120.5 39t-29.5 154z" />
<glyph unicode="\" horiz-adv-x="854" d="M65 1599h151l570 -1962h-150z" />
<glyph unicode="]" horiz-adv-x="841" d="M153 -84l302 2v1709h-302v90q202 20 312 20q91 0 120.5 -39t29.5 -154v-1542q0 -115 -29.5 -154t-120.5 -39q-172 0 -312 20v87z" />
<glyph unicode="^" horiz-adv-x="1363" d="M189 509l414 1022h154l417 -1022h-160l-334 839l-330 -839h-161z" />
<glyph unicode="_" horiz-adv-x="1692" d="M-40 -297h1772v-105h-1772v105z" />
<glyph unicode="`" horiz-adv-x="557" d="M50 1679l119 102q112 -145 338 -398l-85 -68q-74 50 -194 165.5t-178 198.5z" />
<glyph unicode="a" horiz-adv-x="1149" d="M112 301q0 223 246 314q92 34 216 50.5t229 16.5v132q0 54 -11.5 93t-32 62.5t-55.5 37t-73.5 18.5t-93.5 5q-83 0 -184.5 -31t-149.5 -66l-42 110q47 31 173 72.5t247 41.5q93 0 159.5 -15t120.5 -52.5t81.5 -108t27.5 -174.5v-823h-69q-49 0 -68.5 14t-19.5 66v42 q-54 -49 -148 -85.5t-206 -36.5q-154 0 -250.5 85.5t-96.5 231.5zM277 314q0 -95 56.5 -150t174.5 -55q95 0 181.5 35t113.5 64v367q-79 0 -183.5 -13t-169.5 -40q-173 -66 -173 -208z" />
<glyph unicode="b" horiz-adv-x="1248" d="M186 64v1597h167v-475l-7 -170q145 140 347 140q95 0 175.5 -34.5t142.5 -100t97 -171t35 -238.5q0 -280 -159 -454.5t-415 -174.5q-113 0 -230 28t-153 53zM353 155q29 -22 92.5 -35.5t142.5 -13.5q77 0 145 30.5t121.5 89t85.5 152.5t33 212v10q0 206 -81 314 q-83 112 -244 111q-86 0 -165.5 -35.5t-129.5 -80.5v-754z" />
<glyph unicode="c" horiz-adv-x="1016" d="M108 553q0 174 61 309t184 214.5t293 79.5q93 0 168.5 -18t108.5 -41l-29 -132q-85 62 -256 62q-151 0 -256.5 -114.5t-111.5 -326.5v-22q0 -102 25 -186q28 -92 78 -150t114.5 -88t138.5 -30q89 0 165 24.5t124 54.5l34 -96q-55 -50 -148 -79.5t-200 -29.5 q-153 0 -266 75t-169.5 202.5t-57.5 291.5z" />
<glyph unicode="d" horiz-adv-x="1244" d="M105 533q0 275 157.5 449t413.5 174q124 0 221 -38l-2 68v478h166v-1676h-71q-45 0 -65.5 13t-20.5 56v69q-145 -142 -350 -142q-90 0 -169 32.5t-142.5 96.5t-100.5 172t-37 248zM275 556v-10q0 -212 83 -320q85 -111 242 -111q88 0 165.5 35t129.5 80v748 q-67 56 -235 56t-275 -127.5t-110 -350.5z" />
<glyph unicode="e" horiz-adv-x="1133" d="M106 565q0 263 135.5 425.5t375.5 165.5h6q176 0 286 -116q112 -118 117 -312q0 -133 -9 -175h-747q0 -27 1 -40q3 -107 32 -186t80 -126t116 -69t147 -22q77 0 171 23t139 53l33 -97q-56 -46 -167 -75.5t-219 -29.5q-239 0 -368 153t-129 428zM277 665h592q1 24 1 46 q0 81 -17 145q-22 80 -84 130.5t-162 50.5q-133 0 -221 -91.5t-109 -280.5z" />
<glyph unicode="f" horiz-adv-x="800" d="M76 1014v92l196 34v92q0 98 23.5 176.5t62 128.5t90 83.5t105 47.5t110.5 14q82 0 137 -21v-133q-57 20 -159 20q-93 0 -148 -72.5t-55 -207.5v-128h304v-126h-304v-1014h-166v1014h-196z" />
<glyph unicode="g" horiz-adv-x="1229" d="M124 -194q0 79 47.5 142t110.5 98q-86 48 -86 166v5q1 58 38 118.5t98 104.5q-88 48 -138 130.5t-50 187.5q0 99 34.5 175.5t95.5 124t139.5 72t172.5 26.5h13q157 0 268 -68q39 20 100 34.5t119 14.5h107v-134h-232q69 -93 69 -225q0 -187 -127.5 -292.5t-323.5 -105.5 q-83 0 -154 21q-31 -24 -53.5 -63t-22.5 -79q0 -72 36 -99.5t128 -27.5h247q95 0 166 -16t113 -42t68 -64t35 -76t9 -85q0 -110 -74.5 -194.5t-198.5 -128.5q-121 -43 -270 -43h-7q-226 0 -351.5 79t-125.5 244zM287 -174q0 -119 78 -173.5t242 -54.5q102 0 187 22.5t141 73 t56 120.5q0 100 -66.5 143t-233.5 43h-154q-99 0 -158 10q-92 -76 -92 -184zM311 766q0 -122 71 -198t201 -76q131 0 206 67.5t75 212.5q0 134 -71 202q-70 68 -195 68h-4q-59 0 -107 -14t-89 -44t-64 -85.5t-23 -132.5z" />
<glyph unicode="h" horiz-adv-x="1313" d="M196 0v1664h166v-507l-8 -156q74 59 190 106.5t229 49.5h10q181 0 261 -106q81 -108 81 -368v-6v-677h-167l1 689q0 187 -55 259q-52 69 -184 69h-15q-80 -2 -175.5 -42t-167.5 -96v-879h-166z" />
<glyph unicode="i" horiz-adv-x="593" d="M185 1502q0 54 37.5 91t85.5 37q52 0 79.5 -31t27.5 -82q0 -57 -36.5 -93t-86.5 -36q-45 0 -76 31t-31 83zM213 0v1139h167v-1139h-167z" />
<glyph unicode="j" horiz-adv-x="566" d="M-93 -370q44 -19 116 -19q100 0 145 82.5t45 265.5v1180h167v-1116q0 -276 -84 -403t-256 -127q-109 0 -133 13v124zM183 1502q0 54 37.5 91t85.5 37q52 0 79.5 -31t27.5 -82q0 -57 -36.5 -93t-86.5 -36q-45 0 -76 31t-31 83z" />
<glyph unicode="k" horiz-adv-x="1171" d="M190 0v1661h166v-953l-3 -123l537 554h197l-445 -446l494 -693h-190l-414 582l-180 -181l4 -177v-224h-166z" />
<glyph unicode="l" horiz-adv-x="598" d="M216 0v1664h167v-1664h-167z" />
<glyph unicode="m" horiz-adv-x="1982" d="M196 0v1139h149v-146q76 60 194 111t225 53h12q104 0 168 -33q68 -35 102 -119q77 59 190 105t224 47h7q177 0 251 -100q76 -102 77 -354v-703h-167v695q0 87 -8 142t-32 99.5t-70 63.5q-42 17 -107 17h-14q-76 -1 -163.5 -37t-158.5 -86q13 -75 13 -186v-708h-166v697 q0 91 -9 148t-33.5 99t-68.5 58q-37 14 -93 14h-21q-76 -3 -171.5 -42.5t-163.5 -95.5v-878h-166z" />
<glyph unicode="n" horiz-adv-x="1293" d="M196 0v1139h149v-146q81 61 195 111.5t225 52.5h11q178 0 252 -99q77 -102 77 -353v-705h-167v706q0 176 -50 247q-47 65 -171 65h-22q-76 -1 -169 -42.5t-164 -97.5v-878h-166z" />
<glyph unicode="o" horiz-adv-x="1228" d="M107 591q4 266 149 415.5t370 149.5q104 0 188 -32t141 -87t95 -131.5t55 -164.5q16 -83 16 -176v-11q-4 -266 -147.5 -418t-369.5 -152q-105 0 -190 32.5t-142 88.5t-95 133q-39 78 -55 166q-16 83 -15 176v11zM277 589q0 -100 19.5 -185.5t58.5 -153.5t104 -107 t149 -40h5q158 1 247 121q90 122 91 337q0 100 -19.5 184.5t-59 149.5t-103.5 102t-147 38h-5q-158 1 -248 -115q-91 -118 -92 -331z" />
<glyph unicode="p" horiz-adv-x="1251" d="M189 -506v1646h151v-133q149 149 357 149q90 0 169 -32.5t143 -96.5t101 -172t37 -248q0 -275 -158 -449t-414 -174q-126 0 -223 38l3 -161v-367h-166zM355 163q66 -57 235 -57q168 0 275.5 127.5t110.5 350.5v15q0 207 -82 315q-86 111 -243 111q-89 0 -166.5 -35 t-129.5 -81v-746z" />
<glyph unicode="q" horiz-adv-x="1243" d="M105 533q0 275 157.5 449t413.5 174q131 0 241 -42v2l145 28v-1650h-167v367l5 260q-144 -137 -346 -137q-90 0 -169 32.5t-142.5 96.5t-100.5 172t-37 248zM275 556v-10q0 -212 83 -320q85 -111 242 -111q88 0 165 34.5t130 79.5v749q-65 56 -235 56q-168 0 -275 -127.5 t-110 -350.5z" />
<glyph unicode="r" horiz-adv-x="830" d="M188 0v1139h141l10 -152q43 55 145 112t203 57q76 0 107 -13v-157q-44 23 -137 23q-91 0 -171.5 -40.5t-131.5 -92.5v-876h-166z" />
<glyph unicode="s" horiz-adv-x="988" d="M125 66l26 126q39 -27 136.5 -55t192.5 -29q113 0 181 45.5t68 131.5q0 22 -5.5 41.5t-18.5 37t-25 31.5t-36 29t-40 24t-47.5 23t-47.5 21t-52 21q-72 29 -125.5 60t-101 73.5t-72.5 98.5q-24 54 -24 118v5q3 140 115.5 213.5t282.5 74.5h9q85 0 164 -18q83 -20 120 -41 l-27 -127q-32 24 -106 43t-154 19q-119 0 -183 -42.5t-66 -112.5q-1 -83 60.5 -134t188.5 -100q55 -22 94.5 -40t91 -50t83.5 -66t55 -83.5t23 -106.5q0 -148 -106.5 -230.5t-290.5 -82.5q-106 0 -208.5 24t-154.5 58z" />
<glyph unicode="t" horiz-adv-x="854" d="M83 1014v91q19 6 54.5 14t55.5 13t39.5 17t25.5 29q7 17 23 102.5t27 119.5h101v-260h354v-126h-354v-650q0 -85 7 -134t27 -74t45 -31.5t73 -6.5q49 0 116.5 18.5t96.5 38.5l29 -97q-44 -36 -134.5 -65t-166.5 -29q-58 0 -100.5 11t-80.5 40t-58 88t-20 147v744h-160z " />
<glyph unicode="u" horiz-adv-x="1253" d="M185 471v669h167v-676q0 -108 11 -173.5t40 -104t71 -51.5t112 -13q81 0 170.5 33t143.5 74v911h166v-1152h-64q-45 0 -64.5 13t-19.5 55v61q-83 -58 -192.5 -95.5t-206.5 -37.5q-62 0 -111 12t-84 33.5t-60 56t-40 72.5t-24 90.5t-12 104t-3 118.5z" />
<glyph unicode="v" horiz-adv-x="1119" d="M40 1140h179l259 -708l90 -278l84 278l249 708h178l-442 -1158h-142z" />
<glyph unicode="w" horiz-adv-x="1640" d="M41 1140h167l229 -783l43 -180l40 180l224 783h162l223 -783l43 -184l43 179l220 788h163l-354 -1158h-155l-236 837l-30 148l-33 -148l-231 -837h-158z" />
<glyph unicode="x" horiz-adv-x="1142" d="M76 1140h189l272 -398l38 -62l37 67l271 393h188l-409 -561l411 -579h-193l-275 407l-40 63l-37 -70l-260 -400h-191l405 576z" />
<glyph unicode="y" horiz-adv-x="1112" d="M55 1140h179l276 -782l79 -232l69 232l239 782h180l-394 -1169q-70 -209 -150.5 -321.5t-190.5 -143.5q-54 -13 -104 -13q-26 0 -64 4.5t-46 9.5v137q38 -12 98 -12q47 0 87.5 16t82.5 54t78.5 112t63.5 180h-50z" />
<glyph unicode="z" horiz-adv-x="1076" d="M96 65l594 849l69 98h-609v128h805l29 -74l-592 -846l-71 -98h655v-122h-846z" />
<glyph unicode="{" horiz-adv-x="986" d="M118 724v110q125 41 188 71.5t63 63.5v575q0 114 32.5 155.5t124.5 41.5q117 0 297 -20v-92h-295v-657q0 -49 -37 -80q-47 -45 -208 -114q57 -23 122 -59.5t89 -60.5q34 -34 34 -76v-664h295v-85q-120 -28 -297 -28q-91 0 -124 41.5t-33 155.5v583q0 32 -73 70.5 t-178 68.5z" />
<glyph unicode="|" horiz-adv-x="842" d="M344 -187v1967h154v-1967h-154z" />
<glyph unicode="}" horiz-adv-x="986" d="M162 -82h295v664q0 42 34 76q24 24 89 60.5t122 59.5q-161 69 -208 114q-37 31 -37 80v657h-295v92q180 20 297 20q92 0 124.5 -41.5t32.5 -155.5v-575q0 -33 63 -63.5t188 -71.5v-110q-105 -30 -178 -68.5t-73 -70.5v-583q0 -114 -33 -155.5t-124 -41.5q-177 0 -297 28 v85z" />
<glyph unicode="~" horiz-adv-x="1438" d="M222 776q31 71 115.5 135t191.5 64q54 0 99.5 -17.5t77.5 -43t62.5 -51t68 -43t79.5 -17.5q131 0 220 125l79 -76q-33 -78 -114.5 -135t-193.5 -57q-54 0 -98.5 18t-76.5 43t-61.5 50.5t-67 43.5t-80.5 18q-124 0 -213 -126z" />
<glyph />
<glyph unicode="&#xa1;" horiz-adv-x="601" d="M184 1234q-1 60 35 100.5t87 40.5q45 0 77.5 -35t33.5 -89q1 -58 -36 -99.5t-85 -41.5q-52 0 -81 35t-31 89zM203 -421l18 1307h148l21 -1307h-187z" />
<glyph unicode="&#xa2;" horiz-adv-x="1194" d="M170 553q0 162 53 290.5t160.5 210.5t256.5 98l6 221h114l-6 -219q160 -9 231 -57l-29 -132q-85 62 -256 62q-151 0 -256.5 -114.5t-111.5 -326.5q-3 -116 25 -208.5t78 -150t114.5 -87.5t138.5 -30q89 0 165 24.5t124 54.5l34 -96q-47 -44 -125.5 -72t-170.5 -35 l-3 -202h-115l4 204q-135 14 -233 91.5t-147.5 199.5t-50.5 274z" />
<glyph unicode="&#xa3;" horiz-adv-x="1546" d="M141 54q0 57 53.5 95.5t158.5 44.5q2 4 16.5 28t24.5 44t22.5 51.5t19 69t6.5 78.5v299h-183v116h183v177q0 214 125.5 347.5t337.5 133.5q209 0 329 -94l-80 -122q-101 89 -266 89q-55 0 -102.5 -19t-89 -60t-65 -117t-22.5 -180v-155h385v-116h-384v-105 q3 -378 -106 -490q63 2 135.5 -16t155.5 -37.5t167 -19.5q273 0 273 231q0 51 -25 102.5t-64 70.5l119 61q50 -30 89 -99t39 -145q0 -159 -100 -250t-311 -91q-94 0 -193 20.5t-158 41.5t-130 33.5t-110 -3.5q-28 -32 -73 -55t-91 -23q-31 0 -58.5 18.5t-27.5 45.5z" />
<glyph unicode="&#xa4;" horiz-adv-x="1530" d="M216 277l200 200q-94 119 -94 274q0 153 93 272l-199 200l95 98l203 -205q112 76 249 76q138 0 253 -78l205 204l97 -96l-203 -203q91 -118 91 -268q0 -152 -92 -269l200 -200l-96 -96l-202 202q-113 -78 -253 -78q-136 0 -247 75l-203 -205zM457 751q0 -130 90 -223 t217 -93t216.5 93t89.5 223q0 131 -89.5 223.5t-216.5 92.5t-217 -93t-90 -223z" />
<glyph unicode="&#xa5;" horiz-adv-x="1542" d="M188 1522h182l330 -534l73 -139l69 144l336 529h178l-476 -723h365v-110h-390v-257h390v-110h-390v-322h-166v322h-406v110h406v257h-406v110h374z" />
<glyph unicode="&#xa6;" horiz-adv-x="842" d="M344 -186v831h154v-831h-154zM344 946v834h154v-834h-154z" />
<glyph unicode="&#xa7;" horiz-adv-x="1358" d="M218 783q0 170 140 303q-128 103 -128 256q0 76 29.5 135t75.5 95.5t109.5 59.5t125.5 32t129 9q239 0 361 -73l-33 -127q-112 75 -331 74q-64 0 -117.5 -10t-99 -31t-71 -58t-25.5 -88q0 -53 26 -98t70 -78t101 -63t120.5 -57.5t126.5 -56.5t120 -65.5t101 -79 t70 -101.5t26 -129q0 -152 -116 -276q108 -90 108 -216q0 -75 -30.5 -134t-78.5 -95.5t-113.5 -60.5t-131 -33.5t-134.5 -9.5q-136 0 -251.5 28.5t-169.5 64.5l33 127q49 -36 155 -65.5t236 -28.5q67 0 124.5 10.5t105.5 32.5t75.5 60t27.5 89q0 46 -26 85t-70.5 68 t-102 55.5t-121 51t-127 51t-121 60t-102 72.5t-70.5 94t-26 121zM371 810q0 -65 35 -115.5t100 -87.5t130.5 -64t154.5 -62t144 -64q57 105 57 188q0 58 -25.5 107t-65 82t-99 66t-113.5 55.5t-124.5 54t-118.5 58.5q-75 -122 -75 -218z" />
<glyph unicode="&#xa8;" horiz-adv-x="782" d="M57 1514q0 51 36 85t82 34q99 0 99 -105q0 -54 -34.5 -87t-82.5 -33q-43 0 -71.5 28t-28.5 78zM509 1514q0 51 35.5 85t81.5 34q50 0 74.5 -28t24.5 -77q0 -54 -34.5 -87t-82.5 -33q-43 0 -71 28.5t-28 77.5z" />
<glyph unicode="&#xa9;" horiz-adv-x="2133" d="M204 1125q0 177 67.5 337.5t183 276t275 184t336.5 68.5t337 -68.5t275 -184t183 -276t68 -337.5q0 -178 -68 -339t-183 -277.5t-275 -185t-337 -68.5t-336.5 68.5t-275 185t-183 277.5t-67.5 339zM313 1125q0 -158 58 -300t157.5 -245.5t240 -164.5t297.5 -61t297.5 61 t240 164.5t157.5 245.5t58 300q0 157 -58 299t-157.5 245t-240 164t-297.5 61t-297.5 -61t-240 -164t-157.5 -245t-58 -299zM627 1121q0 105 32 194.5t93 155.5t154 103t209 37q150 0 242 -64l-26 -124q-96 68 -229 68q-152 0 -239.5 -99t-87.5 -260q0 -167 86 -269 t230 -102q137 0 251 66l35 -96q-49 -39 -130.5 -64.5t-175.5 -25.5q-133 0 -236 67t-155.5 175.5t-52.5 237.5z" />
<glyph unicode="&#xaa;" horiz-adv-x="1032" d="M139 924q0 174 179 241q151 57 399 57v79q0 103 -49 140.5t-166 37.5q-74 0 -166 -29.5t-130 -56.5l-43 93q34 32 150.5 71.5t221.5 39.5q163 0 248 -66t85 -227v-619h-54h-31.5t-22.5 2.5t-20 8t-9 17t-5 28.5v31q-44 -37 -124 -65.5t-157 -28.5q-138 0 -222 64.5 t-84 181.5zM287 934q0 -67 49.5 -105.5t135.5 -38.5q61 0 133 22.5t112 47.5v268q-238 0 -322 -40q-53 -25 -80.5 -59t-27.5 -95z" />
<glyph unicode="&#xab;" horiz-adv-x="1931" d="M245 542v141l653 448l44 -125l-534 -391l534 -388l-44 -121zM971 542v141l653 448l44 -125l-534 -391l534 -388l-44 -121z" />
<glyph unicode="&#xac;" horiz-adv-x="1470" d="M235 726v126h990v-529h-152v403h-838z" />
<glyph unicode="&#xad;" horiz-adv-x="1350" d="M247 705v135h856v-135h-856z" />
<glyph unicode="&#xae;" horiz-adv-x="2133" d="M204 1125q0 177 67.5 337.5t183 276t275 184t336.5 68.5t337 -68.5t275 -184t183 -276t68 -337.5q0 -178 -68 -339t-183 -277.5t-275 -185t-337 -68.5t-336.5 68.5t-275 185t-183 277.5t-67.5 339zM313 1125q0 -158 58 -300t157.5 -245.5t240 -164.5t297.5 -61t297.5 61 t240 164.5t157.5 245.5t58 300q0 157 -58 299t-157.5 245t-240 164t-297.5 61t-297.5 -61t-240 -164t-157.5 -245t-58 -299zM752 642v962h74q41 0 124 3t126 3q178 0 267.5 -75t89.5 -194q0 -248 -220 -298q39 -25 70 -70t64.5 -114.5t45.5 -90.5q11 -21 83 -126l-156 1 q-27 34 -62 105q-10 18 -35.5 73t-43 87.5t-50.5 68t-70 46.5h-172v-381h-135zM887 1124q33 -3 174 -3q115 2 173.5 50.5t58.5 152.5q0 92 -60 140t-194 45q-71 -2 -152 -10v-375z" />
<glyph unicode="&#xaf;" horiz-adv-x="643" d="M50 1452v124h543v-124h-543z" />
<glyph unicode="&#xb0;" horiz-adv-x="909" d="M121 1278q0 143 95.5 237t237.5 94q140 0 236.5 -95t96.5 -236q0 -143 -95.5 -237t-237.5 -94q-139 0 -236 95.5t-97 235.5zM232 1278q0 -96 64.5 -162t157.5 -66q95 0 159 65t64 163q0 96 -65 161.5t-158 65.5q-94 0 -158 -64.5t-64 -162.5z" />
<glyph unicode="&#xb1;" horiz-adv-x="1393" d="M232 706v134h237l163 -8l-5 171v244h136v-244l-6 -171l149 8h255v-134h-255l-149 5l6 -172v-251h-136v251l5 172l-163 -5h-237zM251 0v126h890v-126h-890z" />
<glyph unicode="&#xb2;" horiz-adv-x="1020" d="M101 774q48 31 113 79.5t158 128.5t168 160t129 172t54 165q0 226 -254 226q-96 0 -179 -46t-128 -99l-53 54q44 66 152 130t231 64q100 0 173.5 -27t114 -74.5t59 -103.5t18.5 -122q0 -74 -38 -155t-96 -151.5t-139 -144.5t-156 -129.5t-157 -109.5l623 42l1 -133h-764z " />
<glyph unicode="&#xb3;" horiz-adv-x="1020" d="M134 1671q57 57 148.5 97t200.5 40q138 0 221.5 -65.5t83.5 -171.5q0 -188 -228 -286q70 7 125.5 -6t89.5 -38t56 -61t30.5 -71.5t8.5 -73.5q0 -138 -129 -241.5t-337 -103.5q-145 0 -256 50v94q122 -43 227 -43q169 0 262.5 66t93.5 178q0 96 -64.5 154.5t-182.5 47.5 l-122 -51l-23 98q70 21 138 55q50 26 84.5 51t61.5 64.5t27 84.5q0 82 -46.5 120.5t-156.5 38.5q-76 0 -147 -31t-119 -77z" />
<glyph unicode="&#xb4;" horiz-adv-x="557" d="M50 1383q233 254 338 398l118 -102q-50 -74 -176.5 -197t-195.5 -167z" />
<glyph unicode="&#xb5;" horiz-adv-x="1359" d="M216 -371v1511h166v-756q0 -137 66 -202.5t197 -66.5q76 0 155 39t133 81v905h166v-912q0 -63 9.5 -85t31.5 -22q41 0 90 42l24 -76q-17 -29 -73.5 -64.5t-117.5 -35.5q-113 0 -108 151q-151 -154 -324 -154q-97 0 -167.5 28.5t-115.5 100.5l24 -484h-156z" />
<glyph unicode="&#xb6;" horiz-adv-x="1319" d="M91 1277q0 201 143 317.5t415 116.5q51 0 222.5 -10.5t222.5 -11.5v-1689h-140v1579q-6 0 -72 2l-132 4t-78 1v-1586h-140v832q-225 0 -333 107.5t-108 337.5z" />
<glyph unicode="&#xb7;" horiz-adv-x="592" d="M180 731q-1 58 36 99.5t86 41.5q52 0 81 -35t30 -89q2 -60 -34.5 -100.5t-87.5 -40.5q-45 0 -77.5 35t-33.5 89z" />
<glyph unicode="&#xb8;" horiz-adv-x="468" d="M48 -436l12 109q28 -18 90 -18q135 0 143 165q11 124 -25 201l64 4l34 -4q60 -79 51 -253q-7 -119 -70.5 -175.5t-158.5 -56.5q-38 0 -80.5 8t-59.5 20z" />
<glyph unicode="&#xb9;" horiz-adv-x="1020" d="M133 1650q269 60 413 170h3l65 -14l1 -1009h280v-96h-728v96l306 1l-1 860q-136 -59 -321 -92z" />
<glyph unicode="&#xba;" horiz-adv-x="1033" d="M114 1148q1 94 27 171.5t67 128t95.5 85t112 49.5t117.5 15q185 0 287 -127t99 -340q-2 -118 -37.5 -208.5t-94 -142.5t-128.5 -78t-148 -26q-187 0 -293 128t-104 345zM273 1148q-1 -166 65 -263t181 -96q112 1 176.5 83.5t65.5 256.5q1 167 -61 262t-175 94 q-111 -2 -181 -84t-71 -253z" />
<glyph unicode="&#xbb;" horiz-adv-x="1931" d="M262 227l534 388l-534 391l44 125l653 -448v-141l-653 -436zM988 227l534 388l-534 391l44 125l653 -448v-141l-653 -436z" />
<glyph unicode="&#xbc;" horiz-adv-x="2430" d="M133 1476q269 60 413 170h3l65 -14l1 -1009h280v-96h-728v96l306 1l-1 860q-136 -59 -321 -92zM775 -118l764 1802l103 -28l-762 -1798zM1474 290l449 872h114l35 -40l-398 -722l-61 -101l408 21l22 293l115 2v-288l213 11l1 -113h-214v-233h-137v233h-511z" />
<glyph unicode="&#xbd;" horiz-adv-x="2430" d="M133 1476q269 60 413 170h3l65 -14l1 -1009h280v-96h-728v96l306 1l-1 860q-136 -59 -321 -92zM775 -118l764 1802l103 -28l-762 -1798zM1544 71q48 31 113 79.5t158 128.5t168 160t129 172t54 165q0 226 -254 226q-96 0 -179 -46t-128 -99l-53 54q44 66 152 130t231 64 q100 0 173.5 -27t114 -74.5t59 -103.5t18.5 -122q0 -74 -38 -155t-96 -151.5t-139 -144.5t-156 -129.5t-157 -109.5l623 42l1 -133h-764z" />
<glyph unicode="&#xbe;" horiz-adv-x="2430" d="M134 1497q57 57 148.5 97t200.5 40q138 0 221.5 -65.5t83.5 -171.5q0 -188 -228 -286q70 7 125.5 -6t89.5 -38t56 -61t30.5 -71.5t8.5 -73.5q0 -138 -129 -241.5t-337 -103.5q-145 0 -256 50v94q122 -43 227 -43q169 0 262.5 66t93.5 178q0 96 -64.5 154.5t-182.5 47.5 l-122 -51l-23 98q70 21 138 55q50 26 84.5 51t61.5 64.5t27 84.5q0 82 -46.5 120.5t-156.5 38.5q-76 0 -147 -31t-119 -77zM775 -118l764 1802l103 -28l-762 -1798zM1474 290l449 872h114l35 -40l-398 -722l-61 -101l408 21l22 293l115 2v-288l213 11l1 -113h-214v-233h-137 v233h-511z" />
<glyph unicode="&#xbf;" horiz-adv-x="1047" d="M120 89q7 63 36.5 117t70.5 92.5t89 72.5t95 63t86 57.5t64.5 63.5t27.5 73q1 14 1 28.5t-0.5 27t-3.5 28.5t-4.5 26.5t-6.5 28.5t-7 26.5t-8.5 28.5t-9 26.5t-9.5 28t-9 27.5l127 1q33 -44 62 -129t30 -165q1 -45 -22.5 -86.5t-63 -74.5t-87 -64.5t-97 -63.5t-91 -64.5 t-70 -73.5t-33.5 -86q-37 -198 82.5 -311t359.5 -113q125 0 183 24v-123q-16 -13 -80.5 -27.5t-128.5 -14.5q-167 0 -290.5 46.5t-190.5 125.5t-92.5 176.5t-9.5 207.5zM429 1248q-1 59 35 98.5t85 39.5q43 0 75 -34t33 -87q1 -56 -35.5 -96.5t-83.5 -40.5q-51 0 -79 34 t-30 86z" />
<glyph unicode="&#xc0;" horiz-adv-x="1398" d="M35 0l589 1538h165l574 -1538h-182l-147 419h-667l-153 -419h-179zM362 1873l111 102q28 -31 168 -157.5t179 -157.5l-71 -71q-87 44 -203 128t-184 156zM413 545h577l-244 695l-39 121l-39 -122z" />
<glyph unicode="&#xc1;" horiz-adv-x="1398" d="M35 0l589 1538h165l574 -1538h-182l-147 419h-667l-153 -419h-179zM413 545h577l-244 695l-39 121l-39 -122zM580 1660q39 31 179 157.5t168 157.5l111 -102q-80 -80 -187.5 -159.5t-198.5 -124.5z" />
<glyph unicode="&#xc2;" horiz-adv-x="1398" d="M35 0l589 1538h165l574 -1538h-182l-147 419h-667l-153 -419h-179zM348 1684l277 298h149l280 -296l-110 -47l-244 223l-248 -223zM413 545h577l-244 695l-39 121l-39 -122z" />
<glyph unicode="&#xc3;" horiz-adv-x="1398" d="M35 0l589 1538h165l574 -1538h-182l-147 419h-667l-153 -419h-179zM290 1767q32 73 109.5 125t157.5 52q46 0 83 -15.5t61 -37.5t46.5 -44t50.5 -37.5t61 -15.5q97 0 186 105l67 -56q-33 -73 -110.5 -124.5t-156.5 -51.5q-46 0 -83 16t-61 38.5t-46.5 45t-51 38.5 t-62.5 16q-96 0 -185 -108zM413 545h577l-244 695l-39 121l-39 -122z" />
<glyph unicode="&#xc4;" horiz-adv-x="1398" d="M35 0l589 1538h165l574 -1538h-182l-147 419h-667l-153 -419h-179zM348 1798q0 54 36.5 89t84.5 35q52 0 78 -29t26 -80q0 -56 -35 -89.5t-86 -33.5q-45 0 -74.5 28.5t-29.5 79.5zM413 545h577l-244 695l-39 121l-39 -122zM827 1798q0 54 36.5 89t84.5 35q52 0 78.5 -29 t26.5 -80q0 -56 -35.5 -89.5t-85.5 -33.5q-45 0 -75 28.5t-30 79.5z" />
<glyph unicode="&#xc5;" horiz-adv-x="1398" d="M35 0l562 1469q-99 22 -154 88t-53 164q1 66 28 116.5t72.5 78.5t98.5 42t112 14q144 0 226.5 -65.5t81.5 -187.5q-1 -99 -54.5 -160.5t-141.5 -85.5l550 -1473h-182l-147 419h-667l-153 -419h-179zM413 545h577l-244 695l-39 121l-39 -122zM509 1721q-1 -76 49 -120 t139 -45q87 -1 140.5 38.5t53.5 123.5q0 76 -52 117t-139 42q-81 0 -135.5 -36.5t-55.5 -119.5z" />
<glyph unicode="&#xc6;" horiz-adv-x="1855" d="M-52 0l730 1522h1035v-131h-703v-541h526v-131h-526v-586h776v-133h-944v417h-507l-199 -417h-188zM395 544h447v866h-33z" />
<glyph unicode="&#xc7;" horiz-adv-x="1332" d="M109 754q0 148 35.5 274.5t99.5 219.5t151 159t191 98.5t219 32.5q80 0 152 -7.5t108.5 -15.5t82.5 -20.5t55 -14.5l-25 -150q-2 1 -42.5 16.5t-72 25t-100.5 19t-148 9.5q-243 0 -390.5 -167.5t-147.5 -466.5q0 -187 61 -332.5t182 -230.5t284 -85q129 0 237.5 29 t157.5 61l2 -144q-11 -4 -49 -17.5t-60.5 -20.5t-62 -17t-83.5 -15.5t-95 -7.5q38 -83 30 -218q-7 -119 -70.5 -175.5t-158.5 -56.5q-38 0 -80.5 8t-59.5 20l12 109q28 -18 90 -18q135 0 143 165q8 103 -12 166q-290 18 -463 227t-173 541z" />
<glyph unicode="&#xc8;" horiz-adv-x="1207" d="M208 0v1522h858v-131h-689v-539h503v-131h-503v-588h762v-133h-931zM336 1873l111 102q28 -31 168 -157.5t179 -157.5l-71 -71q-87 44 -203 128t-184 156z" />
<glyph unicode="&#xc9;" horiz-adv-x="1207" d="M208 0v1522h858v-131h-689v-539h503v-131h-503v-588h762v-133h-931zM555 1660q39 31 179 157.5t168 157.5l111 -102q-80 -80 -187.5 -159.5t-198.5 -124.5z" />
<glyph unicode="&#xca;" horiz-adv-x="1207" d="M208 0v1522h858v-131h-689v-539h503v-131h-503v-588h762v-133h-931zM323 1684l277 298h149l280 -296l-110 -47l-244 223l-248 -223z" />
<glyph unicode="&#xcb;" horiz-adv-x="1207" d="M208 0v1522h858v-131h-689v-539h503v-131h-503v-588h762v-133h-931zM323 1798q0 54 36.5 89t84.5 35q52 0 78 -29t26 -80q0 -56 -35 -89.5t-86 -33.5q-45 0 -74.5 28.5t-29.5 79.5zM802 1798q0 54 36.5 89t84.5 35q52 0 78.5 -29t26.5 -80q0 -56 -35.5 -89.5t-85.5 -33.5 q-45 0 -75 28.5t-30 79.5z" />
<glyph unicode="&#xcc;" horiz-adv-x="617" d="M-28 1873l111 102q28 -31 168 -157.5t179 -157.5l-71 -71q-87 44 -203 128t-184 156zM223 0v1522h171v-1522h-171z" />
<glyph unicode="&#xcd;" horiz-adv-x="617" d="M190 1660q39 31 179 157.5t168 157.5l111 -102q-80 -80 -187.5 -159.5t-198.5 -124.5zM223 0v1522h171v-1522h-171z" />
<glyph unicode="&#xce;" horiz-adv-x="617" d="M-42 1684l277 298h149l280 -296l-110 -47l-244 223l-248 -223zM223 0v1522h171v-1522h-171z" />
<glyph unicode="&#xcf;" horiz-adv-x="617" d="M-42 1798q0 54 36.5 89t84.5 35q52 0 78 -29t26 -80q0 -56 -35 -89.5t-86 -33.5q-45 0 -74.5 28.5t-29.5 79.5zM223 0v1522h171v-1522h-171zM437 1798q0 54 36.5 89t84.5 35q52 0 78.5 -29t26.5 -80q0 -56 -35.5 -89.5t-85.5 -33.5q-45 0 -75 28.5t-30 79.5z" />
<glyph unicode="&#xd0;" horiz-adv-x="1483" d="M64 737v114h144v671q108 0 120 1q44 0 159.5 6.5t178.5 6.5q357 0 539 -190t181 -541q0 -380 -196.5 -603t-547.5 -218q-36 1 -151 7t-171 7q-42 2 -112 2v737h-144zM378 128q136 -20 290 -18q122 2 220 42.5t170 121t111.5 209t40.5 297.5q1 330 -143.5 481.5 t-439.5 151.5q-111 0 -249 -14v-548h433v-114h-433v-609z" />
<glyph unicode="&#xd1;" horiz-adv-x="1558" d="M207 0v1522h157l701 -1060l142 -249l-12 313v996h156v-1522h-156l-686 1034l-157 267l11 -331v-970h-156zM378 1767q32 73 109.5 125t157.5 52q46 0 83 -15.5t61 -37.5t46.5 -44t50.5 -37.5t61 -15.5q97 0 186 105l67 -56q-33 -73 -110.5 -124.5t-156.5 -51.5 q-46 0 -83 16t-61 38.5t-46.5 45t-51 38.5t-62.5 16q-96 0 -185 -108z" />
<glyph unicode="&#xd2;" horiz-adv-x="1577" d="M113 769q4 185 59 332.5t150 241.5t219.5 144t270.5 51q301 2 479.5 -211t171.5 -563q-4 -185 -56.5 -333t-143.5 -244t-213.5 -148t-267.5 -55q-206 -4 -360.5 96.5t-233.5 279.5t-75 409zM284 758q-1 -132 31.5 -248t94 -205t159 -140.5t218.5 -50.5q230 2 367 173.5 t138 484.5q1 132 -30.5 247.5t-91 203t-153.5 137.5t-210 49q-111 -1 -205 -42.5t-165 -121t-111.5 -204.5t-41.5 -283zM472 1873l111 102q28 -31 168 -157.5t179 -157.5l-71 -71q-87 44 -203 128t-184 156z" />
<glyph unicode="&#xd3;" horiz-adv-x="1577" d="M113 769q4 185 59 332.5t150 241.5t219.5 144t270.5 51q301 2 479.5 -211t171.5 -563q-4 -185 -56.5 -333t-143.5 -244t-213.5 -148t-267.5 -55q-206 -4 -360.5 96.5t-233.5 279.5t-75 409zM284 758q-1 -132 31.5 -248t94 -205t159 -140.5t218.5 -50.5q230 2 367 173.5 t138 484.5q1 132 -30.5 247.5t-91 203t-153.5 137.5t-210 49q-111 -1 -205 -42.5t-165 -121t-111.5 -204.5t-41.5 -283zM691 1660q39 31 179 157.5t168 157.5l111 -102q-80 -80 -187.5 -159.5t-198.5 -124.5z" />
<glyph unicode="&#xd4;" horiz-adv-x="1577" d="M113 769q4 185 59 332.5t150 241.5t219.5 144t270.5 51q301 2 479.5 -211t171.5 -563q-4 -185 -56.5 -333t-143.5 -244t-213.5 -148t-267.5 -55q-206 -4 -360.5 96.5t-233.5 279.5t-75 409zM284 758q-1 -132 31.5 -248t94 -205t159 -140.5t218.5 -50.5q230 2 367 173.5 t138 484.5q1 132 -30.5 247.5t-91 203t-153.5 137.5t-210 49q-111 -1 -205 -42.5t-165 -121t-111.5 -204.5t-41.5 -283zM458 1684l277 298h149l280 -296l-110 -47l-244 223l-248 -223z" />
<glyph unicode="&#xd5;" horiz-adv-x="1577" d="M113 769q4 185 59 332.5t150 241.5t219.5 144t270.5 51q301 2 479.5 -211t171.5 -563q-4 -185 -56.5 -333t-143.5 -244t-213.5 -148t-267.5 -55q-206 -4 -360.5 96.5t-233.5 279.5t-75 409zM284 758q-1 -132 31.5 -248t94 -205t159 -140.5t218.5 -50.5q230 2 367 173.5 t138 484.5q1 132 -30.5 247.5t-91 203t-153.5 137.5t-210 49q-111 -1 -205 -42.5t-165 -121t-111.5 -204.5t-41.5 -283zM400 1767q32 73 109.5 125t157.5 52q46 0 83 -15.5t61 -37.5t46.5 -44t50.5 -37.5t61 -15.5q97 0 186 105l67 -56q-33 -73 -110.5 -124.5t-156.5 -51.5 q-46 0 -83 16t-61 38.5t-46.5 45t-51 38.5t-62.5 16q-96 0 -185 -108z" />
<glyph unicode="&#xd6;" horiz-adv-x="1577" d="M113 769q4 185 59 332.5t150 241.5t219.5 144t270.5 51q301 2 479.5 -211t171.5 -563q-4 -185 -56.5 -333t-143.5 -244t-213.5 -148t-267.5 -55q-206 -4 -360.5 96.5t-233.5 279.5t-75 409zM284 758q-1 -132 31.5 -248t94 -205t159 -140.5t218.5 -50.5q230 2 367 173.5 t138 484.5q1 132 -30.5 247.5t-91 203t-153.5 137.5t-210 49q-111 -1 -205 -42.5t-165 -121t-111.5 -204.5t-41.5 -283zM458 1798q0 54 36.5 89t84.5 35q52 0 78 -29t26 -80q0 -56 -35 -89.5t-86 -33.5q-45 0 -74.5 28.5t-29.5 79.5zM937 1798q0 54 36.5 89t84.5 35 q52 0 78.5 -29t26.5 -80q0 -56 -35.5 -89.5t-85.5 -33.5q-45 0 -75 28.5t-30 79.5z" />
<glyph unicode="&#xd7;" horiz-adv-x="1370" d="M250 424l348 347l-348 356l99 97l337 -362l336 362l99 -97l-348 -353l348 -350l-99 -98l-336 354l-337 -354z" />
<glyph unicode="&#xd8;" horiz-adv-x="1577" d="M113 769q4 185 59 332.5t150 241.5t219.5 144t270.5 51q101 0 193 -26l78 218l96 -28l-81 -225q177 -84 273 -270.5t92 -442.5q-4 -185 -56.5 -333t-143.5 -244t-213.5 -148t-267.5 -55q-115 -2 -211 27l-74 -205l-96 27l77 215q-177 88 -273.5 278.5t-91.5 442.5z M284 758q-2 -186 61.5 -337.5t183.5 -232.5l430 1197q-69 24 -152 24q-111 -1 -205 -42.5t-165 -121t-111.5 -204.5t-41.5 -283zM618 142q79 -29 169 -28q230 2 367 173.5t138 484.5q1 189 -62 340t-181 229z" />
<glyph unicode="&#xd9;" horiz-adv-x="1479" d="M173 644v879h169l-1 -839q0 -163 27 -274.5t82 -175t127.5 -90.5t173.5 -27q75 0 133 17t107 57.5t80.5 105t49 162t17.5 226.5v837h168v-877q0 -661 -560 -661q-296 0 -435 166.5t-138 493.5zM412 1873l111 102q28 -31 168 -157.5t179 -157.5l-71 -71q-87 44 -203 128 t-184 156z" />
<glyph unicode="&#xda;" horiz-adv-x="1479" d="M173 644v879h169l-1 -839q0 -163 27 -274.5t82 -175t127.5 -90.5t173.5 -27q75 0 133 17t107 57.5t80.5 105t49 162t17.5 226.5v837h168v-877q0 -661 -560 -661q-296 0 -435 166.5t-138 493.5zM631 1660q39 31 179 157.5t168 157.5l111 -102q-80 -80 -187.5 -159.5 t-198.5 -124.5z" />
<glyph unicode="&#xdb;" horiz-adv-x="1479" d="M173 644v879h169l-1 -839q0 -163 27 -274.5t82 -175t127.5 -90.5t173.5 -27q75 0 133 17t107 57.5t80.5 105t49 162t17.5 226.5v837h168v-877q0 -661 -560 -661q-296 0 -435 166.5t-138 493.5zM398 1684l277 298h149l280 -296l-110 -47l-244 223l-248 -223z" />
<glyph unicode="&#xdc;" horiz-adv-x="1479" d="M173 644v879h169l-1 -839q0 -163 27 -274.5t82 -175t127.5 -90.5t173.5 -27q75 0 133 17t107 57.5t80.5 105t49 162t17.5 226.5v837h168v-877q0 -661 -560 -661q-296 0 -435 166.5t-138 493.5zM398 1798q0 54 36.5 89t84.5 35q52 0 78 -29t26 -80q0 -56 -35 -89.5 t-86 -33.5q-45 0 -74.5 28.5t-29.5 79.5zM877 1798q0 54 36.5 89t84.5 35q52 0 78.5 -29t26.5 -80q0 -56 -35.5 -89.5t-85.5 -33.5q-45 0 -75 28.5t-30 79.5z" />
<glyph unicode="&#xdd;" horiz-adv-x="1254" d="M33 1522h181l374 -701l51 -114l44 114l359 701h179l-499 -935v-587h-172v584zM528 1660q39 31 179 157.5t168 157.5l111 -102q-80 -80 -187.5 -159.5t-198.5 -124.5z" />
<glyph unicode="&#xde;" horiz-adv-x="1273" d="M208 0v1522h169v-292q24 2 88.5 7t113.5 8t91 3q248 0 382.5 -112t134.5 -344q0 -245 -149.5 -372.5t-418.5 -127.5q-50 0 -242 12v-304h-169zM377 429q106 -14 225 -14q198 0 307 86.5t109 288.5q0 344 -403 336q-133 -4 -238 -22v-675z" />
<glyph unicode="&#xdf;" horiz-adv-x="1275" d="M46 1014v99l161 30q38 218 176.5 327t335.5 109q72 0 136.5 -16.5t116 -49t82 -85.5t30.5 -120q0 -65 -23.5 -121t-56.5 -94t-66 -72t-56.5 -71.5t-23.5 -75.5q0 -41 20.5 -77.5t53 -65.5t72.5 -59t79.5 -64.5t72 -74.5t53 -97.5t20.5 -124.5q0 -86 -35 -151.5 t-93 -102.5t-125 -55t-141 -18q-153 0 -231 33v132q89 -47 237 -47q91 0 155 48.5t64 142.5q0 50 -20 93.5t-51.5 76.5t-69 64t-75.5 64t-69.5 69t-51 86t-19.5 109q0 50 22 94.5t54 79.5t63.5 71t53.5 84t22 103q0 89 -63.5 131t-163.5 42q-154 0 -242.5 -116t-88.5 -369 v-975h-167v986v28h-148z" />
<glyph unicode="&#xe0;" horiz-adv-x="1149" d="M112 301q0 223 246 314q92 34 216 50.5t229 16.5v132q0 54 -11.5 93t-32 62.5t-55.5 37t-73.5 18.5t-93.5 5q-83 0 -184.5 -31t-149.5 -66l-42 110q47 31 173 72.5t247 41.5q93 0 159.5 -15t120.5 -52.5t81.5 -108t27.5 -174.5v-823h-69q-49 0 -68.5 14t-19.5 66v42 q-54 -49 -148 -85.5t-206 -36.5q-154 0 -250.5 85.5t-96.5 231.5zM233 1679l119 102q112 -145 338 -398l-85 -68q-74 50 -194 165.5t-178 198.5zM277 314q0 -95 56.5 -150t174.5 -55q95 0 181.5 35t113.5 64v367q-79 0 -183.5 -13t-169.5 -40q-173 -66 -173 -208z" />
<glyph unicode="&#xe1;" horiz-adv-x="1149" d="M112 301q0 223 246 314q92 34 216 50.5t229 16.5v132q0 54 -11.5 93t-32 62.5t-55.5 37t-73.5 18.5t-93.5 5q-83 0 -184.5 -31t-149.5 -66l-42 110q47 31 173 72.5t247 41.5q93 0 159.5 -15t120.5 -52.5t81.5 -108t27.5 -174.5v-823h-69q-49 0 -68.5 14t-19.5 66v42 q-54 -49 -148 -85.5t-206 -36.5q-154 0 -250.5 85.5t-96.5 231.5zM277 314q0 -95 56.5 -150t174.5 -55q95 0 181.5 35t113.5 64v367q-79 0 -183.5 -13t-169.5 -40q-173 -66 -173 -208zM463 1383q233 254 338 398l118 -102q-50 -74 -176.5 -197t-195.5 -167z" />
<glyph unicode="&#xe2;" horiz-adv-x="1149" d="M112 301q0 223 246 314q92 34 216 50.5t229 16.5v132q0 54 -11.5 93t-32 62.5t-55.5 37t-73.5 18.5t-93.5 5q-83 0 -184.5 -31t-149.5 -66l-42 110q47 31 173 72.5t247 41.5q93 0 159.5 -15t120.5 -52.5t81.5 -108t27.5 -174.5v-823h-69q-49 0 -68.5 14t-19.5 66v42 q-54 -49 -148 -85.5t-206 -36.5q-154 0 -250.5 85.5t-96.5 231.5zM213 1345l297 347h149l291 -346l-103 -44l-263 263l-274 -263zM277 314q0 -95 56.5 -150t174.5 -55q95 0 181.5 35t113.5 64v367q-79 0 -183.5 -13t-169.5 -40q-173 -66 -173 -208z" />
<glyph unicode="&#xe3;" horiz-adv-x="1149" d="M112 301q0 223 246 314q92 34 216 50.5t229 16.5v132q0 54 -11.5 93t-32 62.5t-55.5 37t-73.5 18.5t-93.5 5q-83 0 -184.5 -31t-149.5 -66l-42 110q47 31 173 72.5t247 41.5q93 0 159.5 -15t120.5 -52.5t81.5 -108t27.5 -174.5v-823h-69q-49 0 -68.5 14t-19.5 66v42 q-54 -49 -148 -85.5t-206 -36.5q-154 0 -250.5 85.5t-96.5 231.5zM172 1462q34 70 105 123t154 53q46 0 83.5 -15t62 -37t46.5 -44t50.5 -37t61.5 -15q104 0 192 104l67 -56q-38 -74 -106.5 -124.5t-152.5 -50.5q-49 0 -87 15.5t-62 37.5t-46 43.5t-49.5 37t-61.5 15.5 q-101 0 -191 -104zM277 314q0 -95 56.5 -150t174.5 -55q95 0 181.5 35t113.5 64v367q-79 0 -183.5 -13t-169.5 -40q-173 -66 -173 -208z" />
<glyph unicode="&#xe4;" horiz-adv-x="1149" d="M112 301q0 223 246 314q92 34 216 50.5t229 16.5v132q0 54 -11.5 93t-32 62.5t-55.5 37t-73.5 18.5t-93.5 5q-83 0 -184.5 -31t-149.5 -66l-42 110q47 31 173 72.5t247 41.5q93 0 159.5 -15t120.5 -52.5t81.5 -108t27.5 -174.5v-823h-69q-49 0 -68.5 14t-19.5 66v42 q-54 -49 -148 -85.5t-206 -36.5q-154 0 -250.5 85.5t-96.5 231.5zM250 1514q0 51 36 85t82 34q99 0 99 -105q0 -54 -34.5 -87t-82.5 -33q-44 0 -72 28t-28 78zM277 314q0 -95 56.5 -150t174.5 -55q95 0 181.5 35t113.5 64v367q-79 0 -183.5 -13t-169.5 -40 q-173 -66 -173 -208zM702 1514q0 51 35.5 85t81.5 34q50 0 74.5 -28t24.5 -77q0 -54 -34.5 -87t-82.5 -33q-43 0 -71 28.5t-28 77.5z" />
<glyph unicode="&#xe5;" horiz-adv-x="1149" d="M112 301q0 223 246 314q92 34 216 50.5t229 16.5v132q0 54 -11.5 93t-32 62.5t-55.5 37t-73.5 18.5t-93.5 5q-83 0 -184.5 -31t-149.5 -66l-42 110q47 31 173 72.5t247 41.5q93 0 159.5 -15t120.5 -52.5t81.5 -108t27.5 -174.5v-823h-69q-49 0 -68.5 14t-19.5 66v42 q-54 -49 -148 -85.5t-206 -36.5q-154 0 -250.5 85.5t-96.5 231.5zM275 1601q1 66 28 117t72 81t98.5 44.5t112.5 14.5q143 0 226 -68t82 -190q-1 -88 -46 -150.5t-113.5 -90t-153.5 -27.5q-142 0 -225 73.5t-81 195.5zM277 314q0 -95 56.5 -150t174.5 -55q95 0 181.5 35 t113.5 64v367q-79 0 -183.5 -13t-169.5 -40q-173 -66 -173 -208zM394 1601q-1 -77 49.5 -124t138.5 -48q86 0 140 42.5t54 127.5q0 77 -52.5 120t-138.5 44q-79 0 -134.5 -39t-56.5 -123z" />
<glyph unicode="&#xe6;" horiz-adv-x="1830" d="M112 301q0 110 64 189.5t182 124.5q171 67 443 67v119q0 74 -17 121t-53 70t-77 30.5t-105 7.5q-81 0 -185.5 -32t-157.5 -67l-42 112q49 31 178 72.5t249 41.5q135 0 217.5 -40t117.5 -142q138 178 389 181q180 2 291.5 -115.5t116.5 -312.5q0 -133 -8 -175h-747 q0 -27 1 -40q12 -402 373 -402q77 0 172.5 23t140.5 52l33 -97q-56 -46 -168 -75.5t-220 -29.5q-283 0 -408 204q-77 -93 -187 -148.5t-242 -55.5q-154 0 -252.5 85.5t-98.5 231.5zM280 314q0 -94 54.5 -149.5t170.5 -55.5q104 0 201.5 54.5t139.5 118.5q-43 117 -43 283v10 q-229 0 -353 -53q-88 -33 -129 -83.5t-41 -124.5zM975 665h592q4 81 -8 146.5t-41.5 117t-84 80t-129.5 28.5q-133 0 -220.5 -91.5t-108.5 -280.5z" />
<glyph unicode="&#xe7;" horiz-adv-x="1016" d="M108 553q0 174 61 309t184 214.5t293 79.5q93 0 168.5 -18t108.5 -41l-29 -132q-85 62 -256 62q-151 0 -256.5 -114.5t-111.5 -326.5q-3 -116 25 -208.5t78 -150t114.5 -87.5t138.5 -30q89 0 165 24.5t124 54.5l34 -96q-50 -46 -134 -75t-182 -33q37 -83 30 -217 q-7 -119 -70.5 -175.5t-158.5 -56.5q-38 0 -80.5 8t-59.5 20l12 109q28 -18 90 -18q135 0 143 165q9 104 -13 169q-196 26 -306.5 180.5t-111.5 383.5z" />
<glyph unicode="&#xe8;" horiz-adv-x="1133" d="M106 565q0 263 135.5 425.5t375.5 165.5q180 2 292 -115.5t117 -312.5q0 -133 -9 -175h-747q0 -27 1 -40q3 -107 32 -186t80 -126t116 -69t147 -22q77 0 171 23t139 53l33 -97q-56 -46 -167 -75.5t-219 -29.5q-239 0 -368 153t-129 428zM254 1679l119 102 q112 -145 338 -398l-85 -68q-74 50 -194 165.5t-178 198.5zM277 665h592q6 110 -16 190.5t-84 131t-162 50.5q-133 0 -221 -91.5t-109 -280.5z" />
<glyph unicode="&#xe9;" horiz-adv-x="1133" d="M106 565q0 263 135.5 425.5t375.5 165.5q180 2 292 -115.5t117 -312.5q0 -133 -9 -175h-747q0 -27 1 -40q3 -107 32 -186t80 -126t116 -69t147 -22q77 0 171 23t139 53l33 -97q-56 -46 -167 -75.5t-219 -29.5q-239 0 -368 153t-129 428zM277 665h592q6 110 -16 190.5 t-84 131t-162 50.5q-133 0 -221 -91.5t-109 -280.5zM484 1383q233 254 338 398l118 -102q-50 -74 -176.5 -197t-195.5 -167z" />
<glyph unicode="&#xea;" horiz-adv-x="1133" d="M106 565q0 263 135.5 425.5t375.5 165.5q180 2 292 -115.5t117 -312.5q0 -133 -9 -175h-747q0 -27 1 -40q3 -107 32 -186t80 -126t116 -69t147 -22q77 0 171 23t139 53l33 -97q-56 -46 -167 -75.5t-219 -29.5q-239 0 -368 153t-129 428zM234 1345l297 347h149l291 -346 l-103 -44l-263 263l-274 -263zM277 665h592q6 110 -16 190.5t-84 131t-162 50.5q-133 0 -221 -91.5t-109 -280.5z" />
<glyph unicode="&#xeb;" horiz-adv-x="1133" d="M106 565q0 263 135.5 425.5t375.5 165.5q180 2 292 -115.5t117 -312.5q0 -133 -9 -175h-747q0 -27 1 -40q3 -107 32 -186t80 -126t116 -69t147 -22q77 0 171 23t139 53l33 -97q-56 -46 -167 -75.5t-219 -29.5q-239 0 -368 153t-129 428zM271 1514q0 51 36 85t82 34 q99 0 99 -105q0 -54 -34.5 -87t-82.5 -33q-43 0 -71.5 28t-28.5 78zM277 665h592q6 110 -16 190.5t-84 131t-162 50.5q-133 0 -221 -91.5t-109 -280.5zM723 1514q0 51 35.5 85t81.5 34q50 0 74.5 -28t24.5 -77q0 -54 -34.5 -87t-82.5 -33q-43 0 -71 28.5t-28 77.5z" />
<glyph unicode="&#xec;" horiz-adv-x="593" d="M-55 1679l119 102q112 -145 338 -398l-85 -68q-74 50 -194 165.5t-178 198.5zM213 0v1139h167v-1139h-167z" />
<glyph unicode="&#xed;" horiz-adv-x="593" d="M174 1383q233 254 338 398l118 -102q-50 -74 -176.5 -197t-195.5 -167zM213 0v1139h167v-1139h-167z" />
<glyph unicode="&#xee;" horiz-adv-x="593" d="M-75 1345l297 347h149l291 -346l-103 -44l-263 263l-274 -263zM213 0v1139h167v-1139h-167z" />
<glyph unicode="&#xef;" horiz-adv-x="593" d="M-38 1514q0 51 36 85t82 34q99 0 99 -105q0 -54 -34.5 -87t-82.5 -33q-44 0 -72 28t-28 78zM213 0v1139h167v-1139h-167zM414 1514q0 51 35.5 85t81.5 34q50 0 74.5 -28t24.5 -77q0 -54 -34.5 -87t-82.5 -33q-43 0 -71 28.5t-28 77.5z" />
<glyph unicode="&#xf0;" horiz-adv-x="1211" d="M112 557q0 278 141.5 438.5t368.5 159.5q157 -2 265 -113q-43 131 -124.5 244.5t-189.5 196.5l-141 -160l-89 70l141 153q-129 82 -237 116l40 97q136 -42 278 -125q24 26 57.5 65.5t55.5 66.5l22 27l90 -69q-79 -92 -135 -151l10 -6q218 -162 335.5 -408t117.5 -547 q0 -312 -135.5 -474t-364.5 -165q-231 -4 -368.5 154.5t-137.5 429.5zM277 563q0 -223 96 -349t251 -126q66 0 123.5 30t103.5 88t73 153t27 215q0 197 -9 277q-22 77 -106 128t-208 51q-165 0 -258 -126.5t-93 -340.5z" />
<glyph unicode="&#xf1;" horiz-adv-x="1293" d="M196 0v1139h149v-146q81 61 195 111.5t225 52.5q186 3 263 -99t77 -353v-705h-167v706q0 176 -50.5 247t-192.5 65q-76 -1 -169 -42.5t-164 -97.5v-878h-166zM287 1462q34 70 105 123t154 53q46 0 83.5 -15t62 -37t46.5 -44t50.5 -37t61.5 -15q104 0 192 104l67 -56 q-38 -74 -106.5 -124.5t-152.5 -50.5q-49 0 -87 15.5t-62 37.5t-46 43.5t-49.5 37t-61.5 15.5q-101 0 -191 -104z" />
<glyph unicode="&#xf2;" horiz-adv-x="1228" d="M107 591q4 266 149 415.5t370 149.5q104 0 188 -32t141 -87t95 -131.5t55 -164.5t16 -187q-4 -266 -147.5 -418t-369.5 -152q-105 0 -190 32.5t-142 88.5t-95 133.5t-54.5 165.5t-15.5 187zM271 1679l119 102q112 -145 338 -398l-85 -68q-74 50 -194 165.5t-178 198.5z M277 589q0 -100 19.5 -185.5t58.5 -153.5t104 -107t149 -40q162 -2 252 120.5t91 337.5q0 100 -19.5 184.5t-59 149.5t-103.5 102t-147 38q-162 2 -253 -115.5t-92 -330.5z" />
<glyph unicode="&#xf3;" horiz-adv-x="1228" d="M107 591q4 266 149 415.5t370 149.5q104 0 188 -32t141 -87t95 -131.5t55 -164.5t16 -187q-4 -266 -147.5 -418t-369.5 -152q-105 0 -190 32.5t-142 88.5t-95 133.5t-54.5 165.5t-15.5 187zM277 589q0 -100 19.5 -185.5t58.5 -153.5t104 -107t149 -40q162 -2 252 120.5 t91 337.5q0 100 -19.5 184.5t-59 149.5t-103.5 102t-147 38q-162 2 -253 -115.5t-92 -330.5zM501 1383q233 254 338 398l118 -102q-50 -74 -176.5 -197t-195.5 -167z" />
<glyph unicode="&#xf4;" horiz-adv-x="1228" d="M107 591q4 266 149 415.5t370 149.5q104 0 188 -32t141 -87t95 -131.5t55 -164.5t16 -187q-4 -266 -147.5 -418t-369.5 -152q-105 0 -190 32.5t-142 88.5t-95 133.5t-54.5 165.5t-15.5 187zM251 1345l297 347h149l291 -346l-103 -44l-263 263l-274 -263zM277 589 q0 -100 19.5 -185.5t58.5 -153.5t104 -107t149 -40q162 -2 252 120.5t91 337.5q0 100 -19.5 184.5t-59 149.5t-103.5 102t-147 38q-162 2 -253 -115.5t-92 -330.5z" />
<glyph unicode="&#xf5;" horiz-adv-x="1228" d="M107 591q4 266 149 415.5t370 149.5q104 0 188 -32t141 -87t95 -131.5t55 -164.5t16 -187q-4 -266 -147.5 -418t-369.5 -152q-105 0 -190 32.5t-142 88.5t-95 133.5t-54.5 165.5t-15.5 187zM210 1462q34 70 105 123t154 53q46 0 83.5 -15t62 -37t46.5 -44t50.5 -37 t61.5 -15q104 0 192 104l67 -56q-38 -74 -106.5 -124.5t-152.5 -50.5q-49 0 -87 15.5t-62 37.5t-46 43.5t-49.5 37t-61.5 15.5q-101 0 -191 -104zM277 589q0 -100 19.5 -185.5t58.5 -153.5t104 -107t149 -40q162 -2 252 120.5t91 337.5q0 100 -19.5 184.5t-59 149.5 t-103.5 102t-147 38q-162 2 -253 -115.5t-92 -330.5z" />
<glyph unicode="&#xf6;" horiz-adv-x="1228" d="M107 591q4 266 149 415.5t370 149.5q104 0 188 -32t141 -87t95 -131.5t55 -164.5t16 -187q-4 -266 -147.5 -418t-369.5 -152q-105 0 -190 32.5t-142 88.5t-95 133.5t-54.5 165.5t-15.5 187zM277 589q0 -100 19.5 -185.5t58.5 -153.5t104 -107t149 -40q162 -2 252 120.5 t91 337.5q0 100 -19.5 184.5t-59 149.5t-103.5 102t-147 38q-162 2 -253 -115.5t-92 -330.5zM288 1514q0 51 36 85t82 34q99 0 99 -105q0 -54 -34.5 -87t-82.5 -33q-44 0 -72 28t-28 78zM740 1514q0 51 35.5 85t81.5 34q50 0 74.5 -28t24.5 -77q0 -54 -34.5 -87t-82.5 -33 q-43 0 -71 28.5t-28 77.5z" />
<glyph unicode="&#xf7;" horiz-adv-x="1393" d="M232 709v130h929v-130h-929zM586 373q0 55 37.5 91.5t86.5 36.5q53 0 80.5 -30.5t27.5 -81.5q0 -57 -36.5 -92.5t-88.5 -35.5q-45 0 -76 30t-31 82zM587 1170q0 55 37.5 92t86.5 37q53 0 80.5 -31t27.5 -82q0 -57 -37 -92.5t-88 -35.5q-46 0 -76.5 30t-30.5 82z" />
<glyph unicode="&#xf8;" horiz-adv-x="1229" d="M106 591q4 265 149.5 415t370.5 150q67 0 128 -14l65 194l97 -28l-67 -198q140 -66 208.5 -214.5t66.5 -341.5q-4 -266 -148 -418t-371 -152q-69 0 -130 14l-65 -193l-96 27l66 198q-141 67 -208.5 216.5t-65.5 344.5zM275 589q-1 -139 37 -250.5t114 -172.5l287 855 q-37 12 -90 14q-163 2 -255 -115.5t-93 -330.5zM515 117q45 -14 94 -14q163 -2 254 120.5t91 337.5q0 138 -37.5 246t-112.5 167z" />
<glyph unicode="&#xf9;" horiz-adv-x="1253" d="M185 471v669h167v-676q0 -108 11 -173.5t40 -104t71 -51.5t112 -13q81 0 170.5 33t143.5 74v911h166v-1152h-64q-45 0 -64.5 13t-19.5 55v61q-83 -58 -192.5 -95.5t-206.5 -37.5q-62 0 -111 12t-84 33.5t-60 56t-40 72.5t-24 90.5t-12 104t-3 118.5zM293 1679l119 102 q112 -145 338 -398l-85 -68q-74 50 -194 165.5t-178 198.5z" />
<glyph unicode="&#xfa;" horiz-adv-x="1253" d="M185 471v669h167v-676q0 -108 11 -173.5t40 -104t71 -51.5t112 -13q81 0 170.5 33t143.5 74v911h166v-1152h-64q-45 0 -64.5 13t-19.5 55v61q-83 -58 -192.5 -95.5t-206.5 -37.5q-62 0 -111 12t-84 33.5t-60 56t-40 72.5t-24 90.5t-12 104t-3 118.5zM523 1383 q233 254 338 398l118 -102q-50 -74 -176.5 -197t-195.5 -167z" />
<glyph unicode="&#xfb;" horiz-adv-x="1253" d="M185 471v669h167v-676q0 -108 11 -173.5t40 -104t71 -51.5t112 -13q81 0 170.5 33t143.5 74v911h166v-1152h-64q-45 0 -64.5 13t-19.5 55v61q-83 -58 -192.5 -95.5t-206.5 -37.5q-62 0 -111 12t-84 33.5t-60 56t-40 72.5t-24 90.5t-12 104t-3 118.5zM274 1345l297 347 h149l291 -346l-103 -44l-263 263l-274 -263z" />
<glyph unicode="&#xfc;" horiz-adv-x="1253" d="M185 471v669h167v-676q0 -108 11 -173.5t40 -104t71 -51.5t112 -13q81 0 170.5 33t143.5 74v911h166v-1152h-64q-45 0 -64.5 13t-19.5 55v61q-83 -58 -192.5 -95.5t-206.5 -37.5q-62 0 -111 12t-84 33.5t-60 56t-40 72.5t-24 90.5t-12 104t-3 118.5zM311 1514q0 51 36 85 t82 34q99 0 99 -105q0 -54 -34.5 -87t-82.5 -33q-43 0 -71.5 28t-28.5 78zM763 1514q0 51 35.5 85t81.5 34q50 0 74.5 -28t24.5 -77q0 -54 -34.5 -87t-82.5 -33q-43 0 -71 28.5t-28 77.5z" />
<glyph unicode="&#xfd;" horiz-adv-x="1112" d="M55 1140h179l276 -782l79 -232l69 232l239 782h180l-394 -1169q-70 -209 -150.5 -321.5t-190.5 -143.5q-54 -13 -104 -13q-26 0 -64 4.5t-46 9.5v137q38 -12 98 -12q47 0 87.5 16t82.5 54t78.5 112t63.5 180h-50zM462 1383q233 254 338 398l118 -102q-50 -74 -176.5 -197 t-195.5 -167z" />
<glyph unicode="&#xfe;" horiz-adv-x="1252" d="M189 64v1597h167v-475l-7 -170q145 140 347 140q95 0 175.5 -34.5t142.5 -100t97 -171t35 -238.5q0 -280 -159 -454.5t-415 -174.5q-104 0 -225 27l10 -161v-356h-167v570zM356 155q29 -22 92.5 -35.5t142.5 -13.5q77 0 145 30.5t121.5 89t85.5 152.5t33 212 q2 212 -81 323.5t-244 111.5q-86 0 -165.5 -35.5t-129.5 -80.5v-754z" />
<glyph unicode="&#xff;" horiz-adv-x="1112" d="M55 1140h179l276 -782l79 -232l69 232l239 782h180l-394 -1169q-70 -209 -150.5 -321.5t-190.5 -143.5q-54 -13 -104 -13q-26 0 -64 4.5t-46 9.5v137q38 -12 98 -12q47 0 87.5 16t82.5 54t78.5 112t63.5 180h-50zM250 1514q0 51 36 85t82 34q99 0 99 -105 q0 -54 -34.5 -87t-82.5 -33q-44 0 -72 28t-28 78zM702 1514q0 51 35.5 85t81.5 34q50 0 74.5 -28t24.5 -77q0 -54 -34.5 -87t-82.5 -33q-43 0 -71 28.5t-28 77.5z" />
<glyph unicode="&#x152;" horiz-adv-x="2061" d="M112 764q4 185 58 331t148.5 240.5t221 146t278.5 56.5q160 4 278 -66v50h823v-131h-654v-539h485v-132h-485v-586h728v-134h-897v74q-130 -86 -308 -90q-206 -4 -362.5 96.5t-237 279t-76.5 404.5zM282 755q0 -104 20.5 -199t63 -176t102.5 -141t144 -93.5t183 -33.5 q179 0 301 106v1106q-111 85 -282 85q-82 0 -158 -24t-144.5 -76t-119 -127t-80.5 -185t-30 -242z" />
<glyph unicode="&#x153;" horiz-adv-x="1983" d="M107 591q3 177 73 306.5t185.5 194t262.5 64.5q289 0 415 -236q64 111 172 172.5t252 63.5q181 2 292.5 -115.5t116.5 -312.5q0 -128 -8 -175h-748q0 -27 1 -40q6 -209 105.5 -305.5t267.5 -96.5q78 0 173.5 23t140.5 52l32 -97q-55 -46 -167 -75.5t-220 -29.5 q-295 0 -421 231q-67 -112 -178 -171.5t-249 -59.5q-131 0 -230 49t-157 134.5t-85.5 192t-25.5 231.5zM277 589q-1 -135 33 -241.5t110.5 -175t188.5 -69.5q163 -2 255 120.5t93 337.5q1 135 -34 239t-112 169t-187 66q-161 2 -253.5 -115.5t-93.5 -330.5zM1127 665h592 q6 109 -16 190t-84.5 131.5t-162.5 50.5q-133 0 -220.5 -91.5t-108.5 -280.5z" />
<glyph unicode="&#x178;" horiz-adv-x="1254" d="M33 1522h181l374 -701l51 -114l44 114l359 701h179l-499 -935v-587h-172v584zM296 1798q0 54 36.5 89t84.5 35q52 0 78 -29t26 -80q0 -56 -35 -89.5t-86 -33.5q-45 0 -74.5 28.5t-29.5 79.5zM775 1798q0 54 36.5 89t84.5 35q52 0 78.5 -29t26.5 -80q0 -56 -35.5 -89.5 t-85.5 -33.5q-45 0 -75 28.5t-30 79.5z" />
<glyph unicode="&#x2c6;" horiz-adv-x="833" d="M48 1345l297 347h149l291 -346l-103 -44l-263 263l-274 -263z" />
<glyph unicode="&#x2dc;" horiz-adv-x="917" d="M48 1462q34 70 105 123t154 53q46 0 83.5 -15t62 -37t46.5 -44t50.5 -37t61.5 -15q104 0 192 104l67 -56q-38 -74 -106.5 -124.5t-152.5 -50.5q-49 0 -87 15.5t-62 37.5t-46 43.5t-49.5 37t-61.5 15.5q-101 0 -191 -104z" />
<glyph unicode="&#x2000;" horiz-adv-x="995" />
<glyph unicode="&#x2001;" horiz-adv-x="1991" />
<glyph unicode="&#x2002;" horiz-adv-x="995" />
<glyph unicode="&#x2003;" horiz-adv-x="1991" />
<glyph unicode="&#x2004;" horiz-adv-x="663" />
<glyph unicode="&#x2005;" horiz-adv-x="497" />
<glyph unicode="&#x2006;" horiz-adv-x="331" />
<glyph unicode="&#x2007;" horiz-adv-x="331" />
<glyph unicode="&#x2008;" horiz-adv-x="248" />
<glyph unicode="&#x2009;" horiz-adv-x="398" />
<glyph unicode="&#x200a;" horiz-adv-x="110" />
<glyph unicode="&#x2010;" horiz-adv-x="1350" d="M247 705v135h856v-135h-856z" />
<glyph unicode="&#x2011;" horiz-adv-x="1350" d="M247 705v135h856v-135h-856z" />
<glyph unicode="&#x2012;" horiz-adv-x="1350" d="M247 705v135h856v-135h-856z" />
<glyph unicode="&#x2013;" horiz-adv-x="1692" d="M240 705v135h1212v-135h-1212z" />
<glyph unicode="&#x2014;" horiz-adv-x="2343" d="M240 705v135h1863v-135h-1863z" />
<glyph unicode="&#x2018;" horiz-adv-x="498" d="M101 1307q0 78 21 151t54 126.5t67 91.5t68 61l72 -47v-25q-47 -38 -86 -132t-39 -195q0 -75 36 -143t86 -89v-47l-86 -96q-88 30 -140.5 126.5t-52.5 217.5z" />
<glyph unicode="&#x2019;" horiz-adv-x="498" d="M123 1010v25q40 40 75 133.5t35 193.5q0 78 -31.5 148t-75.5 92v47l108 88q73 -31 114.5 -113.5t41.5 -199.5t-34.5 -218t-75.5 -156t-85 -87z" />
<glyph unicode="&#x201a;" horiz-adv-x="498" d="M123 -464q40 40 75 133.5t35 193.5q0 78 -31.5 148t-75.5 92v47l108 88q73 -31 114.5 -113.5t41.5 -199.5t-34.5 -218t-75.5 -156t-85 -87l-72 47v25z" />
<glyph unicode="&#x201c;" horiz-adv-x="981" d="M101 1307q0 78 21 151t54 126.5t67 91.5t68 61l72 -47v-25q-47 -38 -86 -132t-39 -195q0 -75 36 -143t86 -89v-47l-86 -96q-88 30 -140.5 126.5t-52.5 217.5zM589 1307q0 78 21 151t54 126.5t67 91.5t68 61l72 -47v-25q-47 -38 -86 -132t-39 -195q0 -75 36 -143t86 -89 v-47l-86 -96q-88 30 -140.5 126.5t-52.5 217.5z" />
<glyph unicode="&#x201d;" horiz-adv-x="981" d="M123 1010v25q40 40 75 133.5t35 193.5q0 78 -31.5 148t-75.5 92v47l108 88q73 -31 114.5 -113.5t41.5 -199.5t-34.5 -218t-75.5 -156t-85 -87zM611 1010v25q40 40 75 133.5t35 193.5q0 78 -31.5 148t-75.5 92v47l108 88q73 -31 114.5 -113.5t41.5 -199.5t-34.5 -218 t-75.5 -156t-85 -87z" />
<glyph unicode="&#x201e;" horiz-adv-x="981" d="M123 -445q40 40 75 133.5t35 193.5q0 78 -31.5 148t-75.5 92v47l108 88q73 -31 114.5 -113.5t41.5 -199.5t-34.5 -218t-75.5 -156t-85 -87l-72 47v25zM609 -445q40 40 75 133.5t35 193.5q0 78 -31.5 148t-75.5 92v47l108 88q73 -31 114.5 -113.5t41.5 -199.5t-34.5 -218 t-75.5 -156t-85 -87l-72 47v25z" />
<glyph unicode="&#x2022;" horiz-adv-x="852" d="M255 724q4 75 56.5 126.5t122.5 51.5q71 0 119 -50.5t44 -123.5q-3 -74 -55.5 -127t-123.5 -53q-70 0 -118.5 52.5t-44.5 123.5z" />
<glyph unicode="&#x2026;" horiz-adv-x="1803" d="M184 108q-1 58 36 99.5t86 41.5q52 0 81 -35t30 -89q2 -60 -34.5 -100.5t-87.5 -40.5q-45 0 -77.5 35t-33.5 89zM785 108q-1 58 36 99.5t86 41.5q52 0 81 -35t30 -89q2 -60 -34.5 -100.5t-87.5 -40.5q-45 0 -77.5 35t-33.5 89zM1386 108q-1 58 36 99.5t86 41.5 q52 0 81 -35t30 -89q2 -60 -34.5 -100.5t-87.5 -40.5q-45 0 -77.5 35t-33.5 89z" />
<glyph unicode="&#x202f;" horiz-adv-x="398" />
<glyph unicode="&#x2039;" horiz-adv-x="1204" d="M245 542v141l653 448l44 -125l-534 -391l534 -388l-44 -121z" />
<glyph unicode="&#x203a;" horiz-adv-x="1204" d="M262 227l534 388l-534 391l44 125l653 -448v-141l-653 -436z" />
<glyph unicode="&#x205f;" horiz-adv-x="497" />
<glyph unicode="&#x20ac;" horiz-adv-x="1522" d="M119 527v110h194q-2 54 -2 83q0 94 12 179h-173v109h193q61 247 225 385t405 145q91 3 155.5 -6t138 -33t75.5 -24l-41 -134q-128 69 -332 70q-163 0 -284 -102t-167 -301h587v-109h-605q-7 -59 -7 -132q0 -60 5 -130h574v-110h-562q70 -432 430 -432q221 0 385 92 l46 -126q-25 -4 -67.5 -19.5t-83 -30.5t-121.5 -27t-180 -12q-250 0 -401.5 148t-192.5 407h-206z" />
<glyph unicode="&#x2122;" horiz-adv-x="2218" d="M189 1428v118h685v-118l-276 2v-663h-140v663zM1033 767l37 779h221l188 -474l40 -139l33 138l177 475h208l67 -779h-136l-35 520l-9 169l-48 -136l-211 -558h-91l-223 542l-62 153l-3 -152l-23 -538h-130z" />
<glyph unicode="&#x25fc;" horiz-adv-x="1140" d="M0 0v1140h1140v-1140h-1140z" />
</font>
</defs>
</svg>
