<?xml version="1.0" encoding="utf-8"?>
<!-- Generator: Adobe Illustrator 18.0.0, SVG Export Plug-In . SVG Version: 6.00 Build 0)  -->
<!DOCTYPE svg PUBLIC "-//W3C//DTD SVG 1.1//EN" "http://www.w3.org/Graphics/SVG/1.1/DTD/svg11.dtd">
<svg version="1.1" id="Layer_1" xmlns="http://www.w3.org/2000/svg" xmlns:xlink="http://www.w3.org/1999/xlink" x="0px" y="0px"
	 viewBox="0 0 1126.8 172.1" enable-background="new 0 0 1126.8 172.1" xml:space="preserve">
<g>
	<g>
		<path d="M171.6,159.2c-9.5,0-16.9-2.2-23.1-8.1l5.5-5.5c4.5,4.7,10.5,6.5,17.5,6.5c9.3,0,15-3.3,15-9.9c0-4.9-2.9-7.7-9.4-8.2
			l-9.3-0.8c-11-0.9-16.8-5.8-16.8-15.1c0-10.3,8.7-16.4,20.7-16.4c8,0,15.2,1.9,20.2,6.1l-5.4,5.4c-4-3.1-9.1-4.5-15-4.5
			c-8.2,0-12.6,3.5-12.6,9.3c0,4.8,2.7,7.7,9.8,8.2l9,0.8c9.8,0.9,16.6,4.7,16.6,15.2C194.4,153,185.2,159.2,171.6,159.2z"/>
		<path d="M219.4,158.6c-9.6,0-14.4-6.7-14.4-15.1V109H198v-6.3h7.1V85.1h8.2v17.6h12v6.3h-12v34.3c0,5.1,2.4,8.2,7.7,8.2h4.3v7.1
			H219.4z"/>
		<path d="M267.8,158.6v-5.4c-4.6,4.6-8.7,6.1-16.2,6.1c-7.8,0-12.3-1.5-15.9-5.1c-2.7-2.7-4.2-7-4.2-11.4c0-9.8,6.9-16.2,19.4-16.2
			h16.9v-5.4c0-8.2-4.1-12.3-14.4-12.3c-7.2,0-10.9,1.7-14.2,6.4l-5.6-5.1c5-6.5,10.7-8.3,19.9-8.3c15.1,0,22.5,6.5,22.5,18.7v38.2
			H267.8z M267.8,132.6H252c-8.5,0-12.6,3.4-12.6,9.9c0,6.5,4,9.6,12.9,9.6c4.8,0,9-0.3,12.6-3.8c1.9-1.8,2.9-5,2.9-9.7V132.6z"/>
		<path d="M308.2,159.2c-14.2,0-24.9-9.6-24.9-28.8c0-19.2,10.7-28.8,24.9-28.8c7.8,0,12.7,2.1,18.5,8.3l-5.6,5.3
			c-4.2-4.7-7.5-6.3-12.9-6.3c-5.5,0-10.1,2.2-13,6.4c-2.6,3.7-3.7,8-3.7,15.1c0,7.1,1,11.4,3.7,15.1c3,4.2,7.5,6.4,13,6.4
			c5.4,0,8.7-1.7,12.9-6.4l5.6,5.4C320.9,157.2,316,159.2,308.2,159.2z"/>
		<path d="M371.7,158.6l-17.8-28.8l-11,12.6v16.2h-8.2V77.2h8.2v54.4l25.4-29.2h10.3l-19.1,21.5l22.4,34.7H371.7z"/>
		<path d="M428.3,151.9c-3.7,3.9-9.7,7.3-18.5,7.3c-8.8,0-14.7-3.4-18.4-7.3c-5.4-5.6-6.7-12.3-6.7-23.2c0-10.7,1.4-17.5,6.7-23.1
			c3.7-3.9,9.6-7.3,18.4-7.3c8.8,0,14.8,3.4,18.5,7.3c5.4,5.6,6.7,12.3,6.7,23.1C435,139.6,433.7,146.3,428.3,151.9z M416.8,114.3
			c-1.7-1.7-4-2.6-7-2.6c-3,0-5.1,0.9-6.9,2.6c-3.1,3.1-3.4,8.2-3.4,14.4c0,6.2,0.3,11.4,3.4,14.5c1.7,1.7,3.9,2.6,6.9,2.6
			c3,0,5.3-0.9,7-2.6c3.1-3.1,3.4-8.3,3.4-14.5C420.2,122.6,419.8,117.4,416.8,114.3z"/>
		<path d="M468.4,158.6h-11.7L434.8,99h15.6l12.1,36.8l12-36.8h15.6L468.4,158.6z"/>
		<path d="M504.2,133.4c0,7.7,4.7,13.2,13,13.2c6.5,0,9.7-1.8,13.5-5.6l9,8.8c-6.1,6.1-11.9,9.4-22.6,9.4c-14,0-27.5-6.4-27.5-30.5
			c0-19.4,10.5-30.4,25.9-30.4c16.6,0,25.9,12.1,25.9,28.4v6.6H504.2z M525.4,116.9c-1.6-3.5-4.9-6.2-9.9-6.2c-5,0-8.3,2.6-9.9,6.2
			c-0.9,2.2-1.3,3.8-1.4,6.4h22.6C526.7,120.6,526.3,119,525.4,116.9z"/>
		<path d="M581.1,115.3c-2.3-2.3-4.2-3.5-7.9-3.5c-4.6,0-9.6,3.4-9.6,11v35.9h-14.8V99h14.5v5.7c2.9-3.4,8.6-6.4,15-6.4
			c5.8,0,9.9,1.5,14,5.6L581.1,115.3z"/>
		<path d="M617.4,112.1v46.5h-14.8v-46.5h-6.2v-11.3h6.2v-7.4c0-8.5,5.3-17,17.4-17h8.5v12.6h-5.7c-3.5,0-5.3,1.9-5.3,5.4v6.5h11
			v11.3H617.4z M652.8,158.6c-12.2,0-17.4-8.6-17.4-17V77.2h14.8v63.4c0,3.5,1.5,5.4,5.3,5.4h5.7v12.6H652.8z"/>
		<path d="M707,151.9c-3.7,3.9-9.7,7.3-18.5,7.3c-8.8,0-14.7-3.4-18.4-7.3c-5.4-5.6-6.7-12.3-6.7-23.2c0-10.7,1.4-17.5,6.7-23.1
			c3.7-3.9,9.6-7.3,18.4-7.3c8.8,0,14.8,3.4,18.5,7.3c5.4,5.6,6.7,12.3,6.7,23.1C713.8,139.6,712.4,146.3,707,151.9z M695.5,114.3
			c-1.7-1.7-4-2.6-7-2.6s-5.1,0.9-6.9,2.6c-3.1,3.1-3.4,8.2-3.4,14.4c0,6.2,0.3,11.4,3.4,14.5c1.7,1.7,3.9,2.6,6.9,2.6
			s5.3-0.9,7-2.6c3.1-3.1,3.4-8.3,3.4-14.5C698.9,122.6,698.6,117.4,695.5,114.3z"/>
		<path d="M780.4,158.6h-12.2l-12.4-37.3l-12.4,37.3h-12.2L712.8,99h15.8l9.6,36.8L750.3,99h10.8l12.2,36.8l9.6-36.8h15.6
			L780.4,158.6z"/>
		<g>
			<path fill="#F47920" d="M829.4,158.6c-14.2,0-24.9-9.6-24.9-28.8c0-19.2,10.7-28.8,24.9-28.8c7.8,0,12.7,2.1,18.5,8.3l-5.6,5.3
				c-4.2-4.7-7.5-6.3-12.9-6.3c-5.5,0-10.1,2.2-13,6.4c-2.6,3.7-3.7,8-3.7,15.1c0,7.1,1,11.4,3.7,15.1c3,4.2,7.5,6.4,13,6.4
				c5.4,0,8.7-1.7,12.9-6.4l5.6,5.4C842.1,156.5,837.1,158.6,829.4,158.6z"/>
			<path fill="#F47920" d="M887.6,157.9v-5.4c-4.6,4.6-8.7,6.1-16.2,6.1c-7.8,0-12.3-1.5-15.9-5.1c-2.7-2.7-4.2-7-4.2-11.4
				c0-9.8,6.9-16.2,19.4-16.2h16.9v-5.4c0-8.2-4.1-12.3-14.4-12.3c-7.2,0-10.9,1.7-14.2,6.4l-5.6-5.1c5-6.5,10.7-8.3,19.9-8.3
				c15.1,0,22.5,6.5,22.5,18.8v38.2H887.6z M887.6,131.9h-15.8c-8.5,0-12.6,3.4-12.6,9.9c0,6.5,4,9.6,12.9,9.6c4.8,0,9-0.3,12.6-3.8
				c1.9-1.8,2.9-5,2.9-9.7V131.9z"/>
			<path fill="#F47920" d="M934.1,112.4c-3.1-3.1-5.4-4.1-9.7-4.1c-8.2,0-13.5,6.5-13.5,15.1v34.5h-8.2v-56.2h8.2v6.9
				c3.1-4.7,9.3-7.5,15.8-7.5c5.4,0,9.5,1.3,13.5,5.3L934.1,112.4z"/>
			<path fill="#F47920" d="M947.4,131.9c0,12.3,5.8,19.4,16.6,19.4c6.5,0,10.3-1.9,14.7-6.4l5.6,4.9c-5.7,5.7-11,8.7-20.6,8.7
				c-14.9,0-24.6-8.9-24.6-28.8c0-18.2,8.8-28.8,23.1-28.8c14.5,0,23.1,10.5,23.1,27.2v3.8H947.4z M975.4,116.4
				c-2.2-5.1-7.2-8.5-13.1-8.5c-5.9,0-11,3.3-13.1,8.5c-1.3,3.1-1.5,4.8-1.7,9.4h29.7C976.9,121.2,976.6,119.5,975.4,116.4z"/>
			<path fill="#F47920" d="M999,131.9c0,12.3,5.8,19.4,16.6,19.4c6.5,0,10.3-1.9,14.7-6.4l5.6,4.9c-5.7,5.7-11,8.7-20.6,8.7
				c-14.9,0-24.6-8.9-24.6-28.8c0-18.2,8.8-28.8,23.1-28.8c14.5,0,23.1,10.5,23.1,27.2v3.8H999z M1027,116.4
				c-2.2-5.1-7.2-8.5-13.1-8.5c-5.9,0-11,3.3-13.1,8.5c-1.3,3.1-1.5,4.8-1.7,9.4h29.7C1028.4,121.2,1028.2,119.5,1027,116.4z"/>
			<path fill="#F47920" d="M1075.4,112.4c-3.1-3.1-5.4-4.1-9.7-4.1c-8.2,0-13.5,6.5-13.5,15.1v34.5h-8.2v-56.2h8.2v6.9
				c3.1-4.7,9.3-7.5,15.8-7.5c5.4,0,9.5,1.3,13.5,5.3L1075.4,112.4z"/>
			<path fill="#F47920" d="M1104,158.6c-9.5,0-16.9-2.2-23.1-8.1l5.5-5.5c4.5,4.7,10.5,6.5,17.5,6.5c9.3,0,15-3.3,15-9.9
				c0-4.9-2.9-7.7-9.4-8.2l-9.3-0.8c-11-0.9-16.8-5.8-16.8-15.1c0-10.3,8.7-16.5,20.7-16.5c8,0,15.2,1.9,20.2,6.1l-5.4,5.4
				c-4-3.1-9.1-4.5-15-4.5c-8.2,0-12.6,3.5-12.6,9.3c0,4.8,2.7,7.7,9.8,8.2l9,0.8c9.8,0.9,16.6,4.7,16.6,15.2
				C1126.8,152.3,1117.6,158.6,1104,158.6z"/>
		</g>
	</g>
	
		<rect x="30.8" y="88.8" transform="matrix(0.9718 0.2357 -0.2357 0.9718 24.3558 -12.5506)" fill="#BF9452" width="67.8" height="13.6"/>
	
		<rect x="39.4" y="66.2" transform="matrix(0.8905 0.455 -0.455 0.8905 41.2266 -25.3815)" fill="#D28B29" width="67.8" height="13.6"/>
	
		<rect x="54.8" y="43.9" transform="matrix(0.7531 0.6579 -0.6579 0.7531 55.2313 -45.8303)" fill="#F68A1F" width="67.8" height="13.6"/>
	
		<rect x="76.5" y="25.1" transform="matrix(0.5616 0.8274 -0.8274 0.5616 74.7525 -77.3511)" fill="#F47920" width="67.8" height="13.6"/>
	
		<rect x="27.6" y="111.3" transform="matrix(0.9985 5.452312e-02 -5.452312e-02 0.9985 6.5279 -3.1769)" fill="#A68A6E" width="67.8" height="13.6"/>
	<polygon fill="#818185" points="109,158.6 109,102.4 122.6,102.4 122.6,172.1 0,172.1 0,102.3 13.6,102.3 13.6,158.6 	"/>
	<rect x="27.1" y="131.5" fill="#818185" width="68.3" height="13.6"/>
</g>
</svg>
